<svg width="2059" height="244" viewBox="0 0 2059 244" fill="none" xmlns="http://www.w3.org/2000/svg">
<g filter="url(#filter0_d)">
<path d="M692.952 46.6587C648.48 40.6625 627.914 54.7068 628.116 66.7759C628.116 66.7759 514.859 65.8657 526.155 105.764C537.452 145.662 644.023 133.663 658.935 127.092C670.538 143.778 728.572 159.25 765.629 136.322C779.75 137.776 806.958 147.881 851.976 131.182C918.273 159.831 976.057 139.036 1000.92 123.99C1010.17 123.111 1031.97 119.18 1038.31 116.852C1077.82 102.339 1067.34 64.4039 1000.02 70.1711C986.131 57.6405 953.872 56.0132 938.769 55.7878C938.769 11.4722 724.908 -4.91676 692.952 46.6587Z" fill="#8189AF"/>
<path d="M692.952 46.6587C648.48 40.6625 627.914 54.7068 628.116 66.7759C628.116 66.7759 514.859 65.8657 526.155 105.764C537.452 145.662 644.023 133.663 658.935 127.092C670.538 143.778 728.572 159.25 765.629 136.322C779.75 137.776 806.958 147.881 851.976 131.182C918.273 159.831 976.057 139.036 1000.92 123.99C1010.17 123.111 1031.97 119.18 1038.31 116.852C1077.82 102.339 1067.34 64.4039 1000.02 70.1711C986.131 57.6405 953.872 56.0132 938.769 55.7878C938.769 11.4722 724.908 -4.91676 692.952 46.6587Z" fill="url(#paint0_linear)"/>
</g>
<g filter="url(#filter1_d)">
<path d="M1678.62 41.1934C1640.03 33.7807 1622.28 50.5231 1622.53 64.9995C1622.53 64.9995 1524.34 63.3453 1534.35 111.254C1544.37 159.164 1645.61 151.166 1658.5 143.359C1668.65 163.429 1710.13 176.411 1742.12 149.095C1754.37 150.909 1778.02 163.164 1816.95 143.359C1874.58 178.049 1924.56 153.395 1946.03 135.473C1954.05 134.465 1972.92 129.858 1978.41 127.097C2012.58 109.887 2003.28 64.3362 1944.96 70.9189C1932.84 55.8209 1904.87 53.7089 1891.78 53.3635C1891.53 0.212235 1706.04 -20.5066 1678.62 41.1934Z" fill="#8189AF"/>
<path d="M1678.62 41.1934C1640.03 33.7807 1622.28 50.5231 1622.53 64.9995C1622.53 64.9995 1524.34 63.3453 1534.35 111.254C1544.37 159.164 1645.61 151.166 1658.5 143.359C1668.65 163.429 1710.13 176.411 1742.12 149.095C1754.37 150.909 1778.02 163.164 1816.95 143.359C1874.58 178.049 1924.56 153.395 1946.03 135.473C1954.05 134.465 1972.92 129.858 1978.41 127.097C2012.58 109.887 2003.28 64.3362 1944.96 70.9189C1932.84 55.8209 1904.87 53.7089 1891.78 53.3635C1891.53 0.212235 1706.04 -20.5066 1678.62 41.1934Z" fill="url(#paint1_linear)"/>
</g>
<g filter="url(#filter2_d)">
<path d="M1234.12 85.3563C1189.63 78.3483 1171.88 91.5078 1172.12 105.411C1172.12 105.411 1062.09 116.058 1073.49 162.042C1084.89 208.027 1191.43 194.447 1206.33 186.912C1217.98 206.159 1276.05 224.113 1313.05 197.786C1327.18 199.493 1354.41 211.194 1399.39 192.061C1465.76 225.212 1523.5 201.389 1548.32 184.115C1557.57 183.123 1597.28 186.783 1603.62 184.115C1643.1 167.487 1614.59 115.627 1547.29 122.118C1533.36 107.652 1501.1 105.705 1486 105.411C1485.88 54.3632 1265.94 26.0186 1234.12 85.3563Z" fill="#8189AF"/>
<path d="M1234.12 85.3563C1189.63 78.3483 1171.88 91.5078 1172.12 105.411C1172.12 105.411 1062.09 116.058 1073.49 162.042C1084.89 208.027 1191.43 194.447 1206.33 186.912C1217.98 206.159 1276.05 224.113 1313.05 197.786C1327.18 199.493 1354.41 211.194 1399.39 192.061C1465.76 225.212 1523.5 201.389 1548.32 184.115C1557.57 183.123 1597.28 186.783 1603.62 184.115C1643.1 167.487 1614.59 115.627 1547.29 122.118C1533.36 107.652 1501.1 105.705 1486 105.411C1485.88 54.3632 1265.94 26.0186 1234.12 85.3563Z" fill="url(#paint2_linear)"/>
</g>
<g filter="url(#filter3_d)">
<path d="M372.952 45.9395C328.48 39.9433 307.914 53.9876 308.116 66.0567C308.116 66.0567 194.859 65.1465 206.155 105.045C217.452 144.943 324.023 132.944 338.935 126.373C350.538 143.059 408.572 176.102 445.629 153.173C459.75 154.627 486.958 164.732 531.976 148.033C598.273 176.682 649.799 150.446 680.022 168.673C689.276 167.794 812.862 124.502 819.202 122.173C858.716 107.66 747.338 63.6847 680.021 69.4519C666.131 56.9213 633.872 55.2939 618.769 55.0685C618.769 10.7529 404.908 -5.636 372.952 45.9395Z" fill="#8189AF"/>
<path d="M372.952 45.9395C328.48 39.9433 307.914 53.9876 308.116 66.0567C308.116 66.0567 194.859 65.1465 206.155 105.045C217.452 144.943 324.023 132.944 338.935 126.373C350.538 143.059 408.572 176.102 445.629 153.173C459.75 154.627 486.958 164.732 531.976 148.033C598.273 176.682 649.799 150.446 680.022 168.673C689.276 167.794 812.862 124.502 819.202 122.173C858.716 107.66 747.338 63.6847 680.021 69.4519C666.131 56.9213 633.872 55.2939 618.769 55.0685C618.769 10.7529 404.908 -5.636 372.952 45.9395Z" fill="url(#paint3_linear)"/>
</g>
<g filter="url(#filter4_d)">
<path d="M894.003 92.4219C853.386 84.6145 772.431 99.5388 771.78 111.598C771.78 111.598 584.417 115.529 592.074 155.83C599.732 196.131 832.382 182.596 846.596 176.646C856.145 193.782 919.064 206.304 954.843 184.926C967.772 186.957 992.174 198.16 1034.87 183.328C1094.05 214.648 1148.8 196.248 1172.79 182.243C1181.39 181.744 1201.77 178.711 1207.78 176.646C1245.24 163.772 1238.2 125.464 1175.69 128.467C1163.74 115.387 1134.09 112.441 1120.17 111.598C1091.55 32.0786 927.061 42.231 894.003 92.4219Z" fill="#8189AF"/>
<path d="M894.003 92.4219C853.386 84.6145 772.431 99.5388 771.78 111.598C771.78 111.598 584.417 115.529 592.074 155.83C599.732 196.131 832.382 182.596 846.596 176.646C856.145 193.782 919.064 206.304 954.843 184.926C967.772 186.957 992.174 198.16 1034.87 183.328C1094.05 214.648 1148.8 196.248 1172.79 182.243C1181.39 181.744 1201.77 178.711 1207.78 176.646C1245.24 163.772 1238.2 125.464 1175.69 128.467C1163.74 115.387 1134.09 112.441 1120.17 111.598C1091.55 32.0786 927.061 42.231 894.003 92.4219Z" fill="url(#paint4_linear)"/>
</g>
<g filter="url(#filter5_d)">
<path d="M146.638 89.8475C110.164 83.5422 92.347 93.9265 91.8316 103.479C91.8316 103.479 -1.86724 98.778 5.22898 130.729C12.3252 162.68 101.219 156.937 113.934 152.264C122.595 165.868 169.76 180.145 201.73 163.314C213.337 164.96 235.288 173.908 273.496 162.284C326.756 187.271 375.762 172.856 397.193 161.831C404.903 161.461 423.166 159.119 428.545 157.5C462.073 147.411 455.539 117.041 399.491 119.236C388.701 108.838 362.09 106.417 349.601 105.708C323.477 42.6239 176.005 50.1814 146.638 89.8475Z" fill="#8189AF"/>
<path d="M146.638 89.8475C110.164 83.5422 92.347 93.9265 91.8316 103.479C91.8316 103.479 -1.86724 98.778 5.22898 130.729C12.3252 162.68 101.219 156.937 113.934 152.264C122.595 165.868 169.76 180.145 201.73 163.314C213.337 164.96 235.288 173.908 273.496 162.284C326.756 187.271 375.762 172.856 397.193 161.831C404.903 161.461 423.166 159.119 428.545 157.5C462.073 147.411 455.539 117.041 399.491 119.236C388.701 108.838 362.09 106.417 349.601 105.708C323.477 42.6239 176.005 50.1814 146.638 89.8475Z" fill="url(#paint5_linear)"/>
</g>
<g filter="url(#filter6_d)">
<path d="M1686.84 121.333C1642.4 114.455 1621.9 130.249 1622.13 143.866C1622.13 143.866 1509.01 142.554 1520.41 187.597C1531.81 232.64 1638.22 219.372 1653.1 211.996C1664.73 230.851 1722.75 248.454 1759.69 222.678C1773.8 224.354 1801.01 235.824 1845.92 217.097C1912.23 249.587 1969.88 226.271 1994.67 209.359C2003.91 208.39 2025.67 204.01 2031.99 201.399C2071.42 185.125 2060.84 142.298 1993.62 148.635C1979.7 134.462 1947.48 132.545 1932.39 132.253C1932.26 82.2538 1718.6 63.2235 1686.84 121.333Z" fill="#8189AF"/>
<path d="M1686.84 121.333C1642.4 114.455 1621.9 130.249 1622.13 143.866C1622.13 143.866 1509.01 142.554 1520.41 187.597C1531.81 232.64 1638.22 219.372 1653.1 211.996C1664.73 230.851 1722.75 248.454 1759.69 222.678C1773.8 224.354 1801.01 235.824 1845.92 217.097C1912.23 249.587 1969.88 226.271 1994.67 209.359C2003.91 208.39 2025.67 204.01 2031.99 201.399C2071.42 185.125 2060.84 142.298 1993.62 148.635C1979.7 134.462 1947.48 132.545 1932.39 132.253C1932.26 82.2538 1718.6 63.2235 1686.84 121.333Z" fill="url(#paint6_linear)"/>
</g>
<defs>
<filter id="filter0_d" x="521.363" y="14.6387" width="543.961" height="141.251" filterUnits="userSpaceOnUse" color-interpolation-filters="sRGB">
<feFlood flood-opacity="0" result="BackgroundImageFix"/>
<feColorMatrix in="SourceAlpha" type="matrix" values="0 0 0 0 0 0 0 0 0 0 0 0 0 0 0 0 0 0 127 0"/>
<feOffset dy="4"/>
<feGaussianBlur stdDeviation="2"/>
<feColorMatrix type="matrix" values="0 0 0 0 0 0 0 0 0 0 0 0 0 0 0 0 0 0 0.25 0"/>
<feBlend mode="normal" in2="BackgroundImageFix" result="effect1_dropShadow"/>
<feBlend mode="normal" in="SourceGraphic" in2="effect1_dropShadow" result="shape"/>
</filter>
<filter id="filter1_d" x="1529.63" y="3.34375" width="472.595" height="169.317" filterUnits="userSpaceOnUse" color-interpolation-filters="sRGB">
<feFlood flood-opacity="0" result="BackgroundImageFix"/>
<feColorMatrix in="SourceAlpha" type="matrix" values="0 0 0 0 0 0 0 0 0 0 0 0 0 0 0 0 0 0 127 0"/>
<feOffset dy="4"/>
<feGaussianBlur stdDeviation="2"/>
<feColorMatrix type="matrix" values="0 0 0 0 0 0 0 0 0 0 0 0 0 0 0 0 0 0 0.25 0"/>
<feBlend mode="normal" in2="BackgroundImageFix" result="effect1_dropShadow"/>
<feBlend mode="normal" in="SourceGraphic" in2="effect1_dropShadow" result="shape"/>
</filter>
<filter id="filter2_d" x="1068.66" y="52.0776" width="556.938" height="166.931" filterUnits="userSpaceOnUse" color-interpolation-filters="sRGB">
<feFlood flood-opacity="0" result="BackgroundImageFix"/>
<feColorMatrix in="SourceAlpha" type="matrix" values="0 0 0 0 0 0 0 0 0 0 0 0 0 0 0 0 0 0 127 0"/>
<feOffset dy="4"/>
<feGaussianBlur stdDeviation="2"/>
<feColorMatrix type="matrix" values="0 0 0 0 0 0 0 0 0 0 0 0 0 0 0 0 0 0 0.25 0"/>
<feBlend mode="normal" in2="BackgroundImageFix" result="effect1_dropShadow"/>
<feBlend mode="normal" in="SourceGraphic" in2="effect1_dropShadow" result="shape"/>
</filter>
<filter id="filter3_d" x="201.363" y="13.9194" width="630.104" height="162.754" filterUnits="userSpaceOnUse" color-interpolation-filters="sRGB">
<feFlood flood-opacity="0" result="BackgroundImageFix"/>
<feColorMatrix in="SourceAlpha" type="matrix" values="0 0 0 0 0 0 0 0 0 0 0 0 0 0 0 0 0 0 127 0"/>
<feOffset dy="4"/>
<feGaussianBlur stdDeviation="2"/>
<feColorMatrix type="matrix" values="0 0 0 0 0 0 0 0 0 0 0 0 0 0 0 0 0 0 0.25 0"/>
<feBlend mode="normal" in2="BackgroundImageFix" result="effect1_dropShadow"/>
<feBlend mode="normal" in="SourceGraphic" in2="effect1_dropShadow" result="shape"/>
</filter>
<filter id="filter4_d" x="587.846" y="53.3096" width="646.823" height="155.201" filterUnits="userSpaceOnUse" color-interpolation-filters="sRGB">
<feFlood flood-opacity="0" result="BackgroundImageFix"/>
<feColorMatrix in="SourceAlpha" type="matrix" values="0 0 0 0 0 0 0 0 0 0 0 0 0 0 0 0 0 0 127 0"/>
<feOffset dy="4"/>
<feGaussianBlur stdDeviation="2"/>
<feColorMatrix type="matrix" values="0 0 0 0 0 0 0 0 0 0 0 0 0 0 0 0 0 0 0.25 0"/>
<feBlend mode="normal" in2="BackgroundImageFix" result="effect1_dropShadow"/>
<feBlend mode="normal" in="SourceGraphic" in2="effect1_dropShadow" result="shape"/>
</filter>
<filter id="filter5_d" x="0.845459" y="59.1831" width="452.099" height="124.914" filterUnits="userSpaceOnUse" color-interpolation-filters="sRGB">
<feFlood flood-opacity="0" result="BackgroundImageFix"/>
<feColorMatrix in="SourceAlpha" type="matrix" values="0 0 0 0 0 0 0 0 0 0 0 0 0 0 0 0 0 0 127 0"/>
<feOffset dy="4"/>
<feGaussianBlur stdDeviation="2"/>
<feColorMatrix type="matrix" values="0 0 0 0 0 0 0 0 0 0 0 0 0 0 0 0 0 0 0.25 0"/>
<feBlend mode="normal" in2="BackgroundImageFix" result="effect1_dropShadow"/>
<feBlend mode="normal" in="SourceGraphic" in2="effect1_dropShadow" result="shape"/>
</filter>
<filter id="filter6_d" x="1515.6" y="85.4888" width="543.314" height="158.127" filterUnits="userSpaceOnUse" color-interpolation-filters="sRGB">
<feFlood flood-opacity="0" result="BackgroundImageFix"/>
<feColorMatrix in="SourceAlpha" type="matrix" values="0 0 0 0 0 0 0 0 0 0 0 0 0 0 0 0 0 0 127 0"/>
<feOffset dy="4"/>
<feGaussianBlur stdDeviation="2"/>
<feColorMatrix type="matrix" values="0 0 0 0 0 0 0 0 0 0 0 0 0 0 0 0 0 0 0.25 0"/>
<feBlend mode="normal" in2="BackgroundImageFix" result="effect1_dropShadow"/>
<feBlend mode="normal" in="SourceGraphic" in2="effect1_dropShadow" result="shape"/>
</filter>
<linearGradient id="paint0_linear" x1="985.883" y1="-26.3695" x2="887.518" y2="277.732" gradientUnits="userSpaceOnUse">
<stop stop-color="#8FE3F0"/>
<stop offset="0.901042" stop-color="white" stop-opacity="0"/>
</linearGradient>
<linearGradient id="paint1_linear" x1="1932.16" y1="-44.9404" x2="1781.2" y2="288.829" gradientUnits="userSpaceOnUse">
<stop stop-color="#8FE3F0"/>
<stop offset="0.901042" stop-color="white" stop-opacity="0"/>
</linearGradient>
<linearGradient id="paint2_linear" x1="1532.9" y1="10.8799" x2="1405.91" y2="349.943" gradientUnits="userSpaceOnUse">
<stop stop-color="#C1F7FF"/>
<stop offset="0.901042" stop-color="white" stop-opacity="0"/>
</linearGradient>
<linearGradient id="paint3_linear" x1="665.882" y1="-27.0888" x2="567.517" y2="277.013" gradientUnits="userSpaceOnUse">
<stop stop-color="#C1F7FF"/>
<stop offset="0.901042" stop-color="white" stop-opacity="0"/>
</linearGradient>
<linearGradient id="paint4_linear" x1="1080.58" y1="45.8163" x2="1007.44" y2="282.336" gradientUnits="userSpaceOnUse">
<stop stop-color="#8FE3F0"/>
<stop offset="0.901042" stop-color="white" stop-opacity="0"/>
</linearGradient>
<linearGradient id="paint5_linear" x1="293.983" y1="53.4102" x2="252.46" y2="240.169" gradientUnits="userSpaceOnUse">
<stop stop-color="#8FE3F0"/>
<stop offset="0.901042" stop-color="white" stop-opacity="0"/>
</linearGradient>
<linearGradient id="paint6_linear" x1="1979.21" y1="39.6779" x2="1856.61" y2="373.252" gradientUnits="userSpaceOnUse">
<stop stop-color="#8FE3F0"/>
<stop offset="0.901042" stop-color="white" stop-opacity="0"/>
</linearGradient>
</defs>
</svg>
