<svg width="2053" height="272" viewBox="0 0 2053 272" fill="none" xmlns="http://www.w3.org/2000/svg">
<path d="M619.514 246.386V23.4927C650.614 50.5378 655.944 94.3523 654.721 112.879V178.2V246.386H619.514Z" fill="#003C58"/>
<mask id="mask0" mask-type="alpha" maskUnits="userSpaceOnUse" x="618" y="0" width="64" height="272">
<path d="M654.01 114.521C655.259 96.0081 650.562 51.6521 618.78 24.6267C618.78 24.6267 629.098 23.1841 633.022 19.4725C634.257 15.4645 636.335 0.281938 639.018 0.00508206C642.096 -0.312326 634.197 14.3193 640.518 21.1913C715.474 67.5687 663.004 194.68 675.747 247.93C688.489 301.18 654.01 247.93 654.01 247.93V179.794V114.521Z" fill="#264E7A"/>
<path d="M654.01 114.521C655.259 96.0081 650.562 51.6521 618.78 24.6267C618.78 24.6267 629.098 23.1841 633.022 19.4725C634.257 15.4645 636.335 0.281938 639.018 0.00508206C642.096 -0.312326 634.197 14.3193 640.518 21.1913C715.474 67.5687 663.004 194.68 675.747 247.93C688.489 301.18 654.01 247.93 654.01 247.93V179.794V114.521Z" fill="url(#paint0_radial)"/>
</mask>
<g mask="url(#mask0)">
<path d="M699.255 30.116L614.379 -9.16797L634.812 251.955L702.399 271.597L699.255 30.116Z" fill="url(#paint1_linear)"/>
<rect x="634.917" y="84.8022" width="57.2125" height="191.378" fill="#101D35" fill-opacity="0.5"/>
</g>
<rect x="786.017" y="63.0283" width="46.9436" height="186.795" fill="#174461"/>
<path d="M901.909 65.3203L832.96 63.0283V249.823L901.909 243.52V65.3203Z" fill="#9AA7E5"/>
<path d="M901.909 65.3203L832.96 63.0283V249.823L901.909 243.52V65.3203Z" fill="url(#paint2_linear)"/>
<path d="M800.687 42.5357L830.027 41.2549V63.0285H800.687V42.5357Z" fill="#152E48"/>
<path d="M885.772 43.5468L830.026 41.2549V63.0285L885.772 64.7474V43.5468Z" fill="#3D4660"/>
<rect x="786.017" y="81.3774" width="46.9436" height="4.58391" fill="#101D35" fill-opacity="0.5"/>
<rect x="784.55" y="90.5454" width="48.4106" height="2.29196" fill="#101D35" fill-opacity="0.5"/>
<rect x="784.55" y="98.5669" width="48.4106" height="2.29196" fill="#101D35" fill-opacity="0.5"/>
<rect x="784.55" y="105.443" width="48.4106" height="2.29196" fill="#101D35" fill-opacity="0.5"/>
<rect x="784.55" y="112.319" width="48.4106" height="2.29196" fill="#101D35" fill-opacity="0.5"/>
<rect x="784.55" y="120.341" width="48.4106" height="2.29196" fill="#101D35" fill-opacity="0.5"/>
<rect x="784.55" y="127.217" width="48.4106" height="2.29196" fill="#101D35" fill-opacity="0.5"/>
<rect x="784.55" y="135.238" width="48.4106" height="2.29196" fill="#101D35" fill-opacity="0.5"/>
<rect x="784.55" y="143.26" width="48.4106" height="2.29196" fill="#101D35" fill-opacity="0.5"/>
<rect x="784.55" y="150.136" width="48.4106" height="2.29196" fill="#101D35" fill-opacity="0.5"/>
<rect x="784.55" y="158.158" width="48.4106" height="2.29196" fill="#101D35" fill-opacity="0.5"/>
<rect x="784.55" y="166.18" width="48.4106" height="2.29196" fill="#101D35" fill-opacity="0.5"/>
<rect x="784.55" y="173.056" width="48.4106" height="2.29196" fill="#101D35" fill-opacity="0.5"/>
<rect x="784.55" y="179.932" width="48.4106" height="2.29196" fill="#101D35" fill-opacity="0.5"/>
<rect x="784.55" y="187.954" width="48.4106" height="2.29196" fill="#101D35" fill-opacity="0.5"/>
<rect x="784.55" y="194.83" width="48.4106" height="2.29196" fill="#101D35" fill-opacity="0.5"/>
<path d="M903.921 83.5396L832.227 81.3643L832.227 85.9482L903.687 88.1337L903.921 83.5396Z" fill="#101D35" fill-opacity="0.5"/>
<rect width="70.9806" height="2.29312" transform="matrix(-0.999524 -0.0308577 -0.0508894 0.998704 904.024 92.7222)" fill="#101D35" fill-opacity="0.5"/>
<rect width="70.9806" height="2.29312" transform="matrix(-0.999524 -0.0308577 -0.0508894 0.998704 904.024 100.744)" fill="#101D35" fill-opacity="0.5"/>
<rect width="70.9806" height="2.29312" transform="matrix(-0.999524 -0.0308577 -0.0508894 0.998704 904.024 107.62)" fill="#101D35" fill-opacity="0.5"/>
<rect width="70.9806" height="2.29312" transform="matrix(-0.999524 -0.0308577 -0.0508894 0.998704 903.824 114.502)" fill="#101D35" fill-opacity="0.5"/>
<rect width="70.9806" height="2.29312" transform="matrix(-0.999524 -0.0308577 -0.0508894 0.998704 903.415 122.518)" fill="#101D35" fill-opacity="0.5"/>
<rect width="70.9806" height="2.29312" transform="matrix(-0.999524 -0.0308577 -0.0508894 0.998704 904.024 129.394)" fill="#101D35" fill-opacity="0.5"/>
<path d="M902.657 137.404L832.96 135.225L832.96 137.517L902.54 139.694L902.657 137.404Z" fill="#101D35" fill-opacity="0.5"/>
<rect width="70.9806" height="2.29312" transform="matrix(-0.999524 -0.0308577 -0.0508894 0.998704 904.024 145.438)" fill="#101D35" fill-opacity="0.5"/>
<rect width="70.9806" height="2.29312" transform="matrix(-0.999524 -0.0308577 -0.0508894 0.998704 904.024 152.313)" fill="#101D35" fill-opacity="0.5"/>
<rect width="70.9806" height="2.29312" transform="matrix(-0.999524 -0.0308577 -0.0508894 0.998704 904.024 160.335)" fill="#101D35" fill-opacity="0.5"/>
<rect width="70.9806" height="2.29312" transform="matrix(-0.999524 -0.0308577 -0.0508894 0.998704 904.024 168.357)" fill="#101D35" fill-opacity="0.5"/>
<rect width="70.9806" height="2.29312" transform="matrix(-0.999524 -0.0308577 -0.0508894 0.998704 904.024 175.233)" fill="#101D35" fill-opacity="0.5"/>
<rect width="70.9806" height="2.29312" transform="matrix(-0.999524 -0.0308577 -0.0508894 0.998704 904.024 182.109)" fill="#101D35" fill-opacity="0.5"/>
<rect width="70.9806" height="2.29312" transform="matrix(-0.999524 -0.0308577 -0.0508894 0.998704 904.024 190.13)" fill="#101D35" fill-opacity="0.5"/>
<rect width="70.9806" height="2.29312" transform="matrix(-0.999524 -0.0308577 -0.0508894 0.998704 904.024 197.006)" fill="#101D35" fill-opacity="0.5"/>
<rect x="1047.14" y="37.8169" width="63.0804" height="199.4" fill="#6081AE"/>
<rect x="1058.88" y="56.1523" width="30.8067" height="140.955" fill="#1B3A5D"/>
<path d="M1113.16 59.5904L1108.02 57.2984L1089.68 56.1523V197.108H1113.16V59.5904Z" fill="url(#paint3_linear)"/>
<path d="M1853.61 83.5488H1916.71V170.549H1845V108.31H1853.61V83.5488Z" fill="#065589"/>
<path d="M1949.41 83.5488H1915.75V170.549H1954V108.31H1949.41V83.5488Z" fill="#174461"/>
<path d="M1461.56 154.707H1453.5L1447.63 161.583H1470.37L1461.56 154.707Z" fill="#816E85" stroke="#816E85"/>
<path d="M1452.76 154.707H1438.09L1430.76 162.156H1446.16L1452.76 154.707Z" fill="#264E7A" stroke="#264E7A"/>
<rect x="1406.55" y="162.156" width="49.8776" height="58.4449" fill="#1E324F"/>
<path d="M1454.23 162.156H1497.51V220.601L1456.43 221.747V175.335H1454.23V162.156Z" fill="#AE82A7"/>
<path d="M1454.23 162.156H1497.51V220.601L1456.43 221.747V175.335H1454.23V162.156Z" fill="url(#paint4_linear)"/>
<defs>
<radialGradient id="paint0_radial" cx="0" cy="0" r="1" gradientUnits="userSpaceOnUse" gradientTransform="translate(650.32 135.798) rotate(90) scale(135.798 31.5402)">
<stop stop-color="white"/>
<stop offset="1" stop-color="white" stop-opacity="0"/>
</radialGradient>
<linearGradient id="paint1_linear" x1="667.82" y1="265.82" x2="647.484" y2="-37.3217" gradientUnits="userSpaceOnUse">
<stop stop-color="#89A7B8"/>
<stop offset="1" stop-color="#174461"/>
</linearGradient>
<linearGradient id="paint2_linear" x1="775.748" y1="52.7145" x2="917.445" y2="171.011" gradientUnits="userSpaceOnUse">
<stop stop-color="#8FE3F0"/>
<stop offset="1" stop-color="white" stop-opacity="0"/>
</linearGradient>
<linearGradient id="paint3_linear" x1="1101.42" y1="56.1523" x2="1101.42" y2="197.108" gradientUnits="userSpaceOnUse">
<stop stop-color="#FEBE12"/>
<stop offset="0.0001" stop-color="#8FE3F0"/>
<stop offset="0.90625" stop-color="#1A4FCB"/>
</linearGradient>
<linearGradient id="paint4_linear" x1="1562.79" y1="192.524" x2="1450.61" y2="188.77" gradientUnits="userSpaceOnUse">
<stop stop-color="white"/>
<stop offset="1" stop-color="white" stop-opacity="0"/>
</linearGradient>
</defs>
</svg>
