<svg width="2053" height="245" viewBox="0 0 2053 245" fill="none" xmlns="http://www.w3.org/2000/svg">
<g clip-path="url(#clip0)">
<path d="M1449.09 16.0441L1413.15 12.0332L1348.61 13.7522L1345.67 208.569L1449.09 207.423V16.0441Z" fill="#8FE3F0"/>
<path d="M1449.09 16.0441L1413.15 12.0332L1348.61 13.7522L1345.67 208.569L1449.09 207.423V16.0441Z" fill="url(#paint0_linear)"/>
<path fill-rule="evenodd" clip-rule="evenodd" d="M1413.89 11.46H1344.94V198.254H1413.89V11.46ZM1397.02 32.6606V28.6496H1412.42V32.6606H1397.02ZM1372.81 53.8612V57.2991H1409.49V53.8612H1372.81ZM1362.54 57.2991V53.8612H1371.34V57.2991H1362.54ZM1347.87 53.8612V57.2991H1359.61V53.8612H1347.87ZM1362.54 71.0508V68.1859H1377.21V71.0508H1362.54ZM1372.81 63.029V65.321H1385.28V63.029H1372.81ZM1380.15 95.1164V91.6785H1400.68V95.1164H1380.15ZM1397.75 106.003V109.441H1385.28V106.003H1397.75ZM1401.42 109.441V106.003H1410.95V109.441H1401.42ZM1396.28 116.317V119.182H1402.88V116.317H1396.28ZM1377.21 119.182V116.317H1389.68V119.182H1377.21ZM1350.07 117.463V119.182H1375.01V116.317H1350.07V117.463ZM1347.87 128.923V125.485H1375.01V128.923H1347.87ZM1356.67 130.642V133.507H1371.34V130.642H1356.67ZM1385.28 143.247V140.383H1392.62V143.247H1385.28Z" fill="#517C9E"/>
<path fill-rule="evenodd" clip-rule="evenodd" d="M1413.89 11.46H1344.94V198.254H1413.89V11.46ZM1397.02 32.6606V28.6496H1412.42V32.6606H1397.02ZM1372.81 53.8612V57.2991H1409.49V53.8612H1372.81ZM1362.54 57.2991V53.8612H1371.34V57.2991H1362.54ZM1347.87 53.8612V57.2991H1359.61V53.8612H1347.87ZM1362.54 71.0508V68.1859H1377.21V71.0508H1362.54ZM1372.81 63.029V65.321H1385.28V63.029H1372.81ZM1380.15 95.1164V91.6785H1400.68V95.1164H1380.15ZM1397.75 106.003V109.441H1385.28V106.003H1397.75ZM1401.42 109.441V106.003H1410.95V109.441H1401.42ZM1396.28 116.317V119.182H1402.88V116.317H1396.28ZM1377.21 119.182V116.317H1389.68V119.182H1377.21ZM1350.07 117.463V119.182H1375.01V116.317H1350.07V117.463ZM1347.87 128.923V125.485H1375.01V128.923H1347.87ZM1356.67 130.642V133.507H1371.34V130.642H1356.67ZM1385.28 143.247V140.383H1392.62V143.247H1385.28Z" fill="url(#paint1_linear)"/>
<path d="M942.984 40.1091V19.4814H986.26V32.3737L990.661 32.6602V45.266H1008.27V216.59H935.649V40.1091H942.984Z" fill="#4E588B"/>
<path d="M912.911 38.3903V17.7627H956.187V46.4122H965.723V214.871H905.576V38.3903H912.911Z" fill="#2D4966"/>
<rect x="684.795" y="79.0732" width="14.6699" height="119.182" fill="#15304E"/>
<rect x="699.465" y="67.6133" width="11.7359" height="119.182" fill="#223B66"/>
<path d="M735.406 198.255V65.3211L725.137 67.0401V53.8613H718.535V68.7591H716.335V193.098L735.406 198.255Z" fill="#003C58"/>
<rect x="734.672" y="65.3213" width="16.1369" height="129.496" fill="#AE82A7"/>
<path d="M750.809 65.3213L764.012 67.6132V197.109H750.809V65.3213Z" fill="#8FE3F0"/>
<path d="M750.809 65.3213L764.012 67.6132V197.109H750.809V65.3213Z" fill="url(#paint2_linear)"/>
<rect x="516.091" y="24.0654" width="41.0756" height="100.846" fill="#223B66"/>
<rect x="568.902" y="28.6494" width="41.0756" height="100.846" fill="#223B66"/>
<rect x="514.624" y="69.9048" width="45.4766" height="100.846" fill="#264E7A"/>
<rect x="565.969" y="69.9048" width="45.4766" height="100.846" fill="#264E7A"/>
<path d="M425.138 27.5034L475.015 29.7954V207.422H425.138V27.5034Z" fill="#8FE3F0"/>
<path d="M425.138 27.5034L475.015 29.7954V207.422H425.138V27.5034Z" fill="url(#paint3_linear)"/>
<path d="M429.254 27.5034H415.526L410.468 183.357H429.254V27.5034Z" fill="#003C58"/>
<path d="M458.879 27.5034H439.37H436.48V178.161H455.989L458.879 27.5034Z" fill="#003C58"/>
<rect width="65.1781" height="2.38684" transform="matrix(-0.999388 -0.0349884 -0.0448883 0.998992 480.49 103.127)" fill="#101D35"/>
<rect width="65.1781" height="2.38684" transform="matrix(-0.999388 -0.0349884 -0.0448883 0.998992 480.114 111.473)" fill="#101D35"/>
<rect width="65.1781" height="2.38684" transform="matrix(-0.999388 -0.0349884 -0.0448883 0.998992 480.673 118.631)" fill="#101D35"/>
<path d="M479.418 126.971L415.428 124.703L415.428 127.089L479.311 129.356L479.418 126.971Z" fill="#101D35"/>
<rect width="65.1781" height="2.38684" transform="matrix(-0.999388 -0.0349884 -0.0448883 0.998992 480.673 135.335)" fill="#101D35"/>
<rect width="65.1781" height="2.38684" transform="matrix(-0.999388 -0.0349884 -0.0448883 0.998992 480.673 142.495)" fill="#101D35"/>
<rect width="65.1781" height="2.38684" transform="matrix(-0.999388 -0.0349884 -0.0448883 0.998992 480.673 150.847)" fill="#101D35"/>
<rect width="65.1781" height="2.38684" transform="matrix(-0.999388 -0.0349884 -0.0448883 0.998992 480.673 159.199)" fill="#101D35"/>
<rect width="65.1781" height="2.38684" transform="matrix(-0.999388 -0.0349884 -0.0448883 0.998992 480.114 167.302)" fill="#101D35"/>
<rect width="65.1781" height="2.38684" transform="matrix(-0.999388 -0.0349884 -0.0448883 0.998992 478.647 175.323)" fill="#101D35"/>
<rect width="65.1781" height="2.38684" transform="matrix(-0.999388 -0.0349884 -0.0448883 0.998992 480.114 183.345)" fill="#101D35"/>
<rect width="65.1781" height="2.38684" transform="matrix(-0.999388 -0.0349884 -0.0448883 0.998992 480.114 28.6382)" fill="#101D35"/>
<rect width="153.449" height="3.05419" transform="matrix(0.0236385 -0.999721 -0.999977 -0.00685017 463.4 183.222)" fill="#101D35"/>
<rect width="65.1781" height="2.38684" transform="matrix(-0.999388 -0.0349884 -0.0448883 0.998992 480.49 37.8052)" fill="#101D35"/>
<rect width="65.1781" height="2.38684" transform="matrix(-0.999388 -0.0349884 -0.0448883 0.998992 480.115 46.1509)" fill="#101D35"/>
<rect width="65.1781" height="2.38684" transform="matrix(-0.999388 -0.0349884 -0.0448883 0.998992 480.674 53.3096)" fill="#101D35"/>
<path d="M479.419 61.6499L415.428 59.3817L415.428 61.768L479.312 64.0343L479.419 61.6499Z" fill="#101D35"/>
<rect width="65.1781" height="2.38684" transform="matrix(-0.999388 -0.0349884 -0.0448883 0.998992 480.674 70.0142)" fill="#101D35"/>
<rect width="65.1781" height="2.38684" transform="matrix(-0.999388 -0.0349884 -0.0448883 0.998992 480.674 77.1729)" fill="#101D35"/>
<rect width="65.1781" height="2.38684" transform="matrix(-0.999388 -0.0349884 -0.0448883 0.998992 480.674 85.5254)" fill="#101D35"/>
<rect width="65.1781" height="2.38684" transform="matrix(-0.999388 -0.0349884 -0.0448883 0.998992 480.674 93.8774)" fill="#101D35"/>
<path d="M475.016 24.0654L492.619 26.3574V203.984H475.016V24.0654Z" fill="#8FE3F0"/>
<path d="M510.223 26.3574L532.961 28.0764L530.761 206.276H510.223V26.3574Z" fill="url(#paint4_linear)"/>
<rect x="366.458" y="27.5034" width="48.4106" height="217.736" fill="#174461"/>
<path d="M1677.94 57.2993L1707.28 58.4454V228.05H1677.94V57.2993Z" fill="#264E7A"/>
<path d="M1757.16 58.4453H1765.96V59.5913H1771.83V193.671H1757.16V58.4453Z" fill="#9AA7E5"/>
<path d="M1707.28 58.4452H1721.95V55.0073H1713.15V52.7153L1732.22 52.1423L1757.16 51.5693V206.276H1707.28V58.4452Z" fill="#816E85"/>
<path d="M1815.84 0H1834.18L1835.65 2.29196H1846.65V210.86H1815.84V0Z" fill="#8FE3F0"/>
<path d="M1815.84 0H1834.18L1835.65 2.29196H1846.65V210.86H1815.84V0Z" fill="url(#paint5_linear)"/>
<path d="M1862.79 228.05V19.4814L1831.98 17.1895V228.05H1862.79Z" fill="#8FE3F0"/>
<path d="M1862.79 228.05V19.4814L1831.98 17.1895V228.05H1862.79Z" fill="url(#paint6_linear)"/>
<rect x="1798.24" width="17.6038" height="194.816" fill="#174461"/>
<rect x="1798.24" width="17.6038" height="194.816" fill="url(#paint7_linear)"/>
<rect x="1788" y="19.2354" width="11" height="195" fill="#174461"/>
<rect x="1788" y="19.2354" width="11" height="195" fill="url(#paint8_linear)"/>
<path fill-rule="evenodd" clip-rule="evenodd" d="M1831.98 17.1895H1811.44V201.692H1831.98V17.1895ZM1821.71 178.772L1820.24 21.7734H1817.31L1818.78 178.772H1821.71Z" fill="#101D35"/>
</g>
<defs>
<linearGradient id="paint0_linear" x1="1431.49" y1="13.7522" x2="1431.49" y2="207.423" gradientUnits="userSpaceOnUse">
<stop stop-color="#007A9A"/>
<stop offset="1" stop-color="white" stop-opacity="0"/>
</linearGradient>
<linearGradient id="paint1_linear" x1="1366.21" y1="114.025" x2="1597.74" y2="101.832" gradientUnits="userSpaceOnUse">
<stop stop-color="#1B3A5D"/>
<stop offset="1" stop-color="white" stop-opacity="0"/>
</linearGradient>
<linearGradient id="paint2_linear" x1="757.411" y1="67.6132" x2="757.411" y2="197.109" gradientUnits="userSpaceOnUse">
<stop stop-color="#8FE3F0"/>
<stop offset="1" stop-color="white" stop-opacity="0"/>
</linearGradient>
<linearGradient id="paint3_linear" x1="466.213" y1="135.798" x2="443.628" y2="59.3021" gradientUnits="userSpaceOnUse">
<stop stop-color="#9AA7E5"/>
<stop offset="1" stop-color="white" stop-opacity="0"/>
</linearGradient>
<linearGradient id="paint4_linear" x1="510.223" y1="103.138" x2="532.228" y2="103.138" gradientUnits="userSpaceOnUse">
<stop offset="0.151042" stop-color="#8FE3F0"/>
<stop offset="0.5" stop-color="#1AA9CB"/>
<stop offset="0.901042" stop-color="#8FE3F0"/>
</linearGradient>
<linearGradient id="paint5_linear" x1="1831.98" y1="4.01092" x2="1831.98" y2="105.43" gradientUnits="userSpaceOnUse">
<stop stop-color="#8FE3F0"/>
<stop offset="1" stop-color="white" stop-opacity="0"/>
</linearGradient>
<linearGradient id="paint6_linear" x1="1847.38" y1="17.1895" x2="1847.38" y2="228.05" gradientUnits="userSpaceOnUse">
<stop/>
<stop offset="1" stop-color="white" stop-opacity="0"/>
</linearGradient>
<linearGradient id="paint7_linear" x1="1807.04" y1="0" x2="1807.04" y2="194.816" gradientUnits="userSpaceOnUse">
<stop stop-color="#101D35"/>
<stop offset="1" stop-color="white" stop-opacity="0"/>
</linearGradient>
<linearGradient id="paint8_linear" x1="1793.5" y1="19.2354" x2="1793.5" y2="214.235" gradientUnits="userSpaceOnUse">
<stop stop-color="#101D35"/>
<stop offset="1" stop-color="white" stop-opacity="0"/>
</linearGradient>
<clipPath id="clip0">
<rect width="2053" height="245" fill="white"/>
</clipPath>
</defs>
</svg>
