<svg width="2053" height="167" viewBox="0 0 2053 167" fill="none" xmlns="http://www.w3.org/2000/svg">
<g clip-path="url(#clip0)">
<path d="M734.672 1.14598L759.611 0V122.62H734.672V1.14598Z" fill="#174461"/>
<path d="M734.672 1.14598L759.611 0V122.62H734.672V1.14598Z" fill="#174461"/>
<path d="M783.083 1.14598L759.611 0V122.62H783.083V1.14598Z" fill="#8FE3F0"/>
<path d="M783.083 1.14598L759.611 0V122.62H783.083V1.14598Z" fill="url(#paint0_linear)"/>
<path d="M783.083 1.14598L759.611 0V122.62H783.083V1.14598Z" fill="url(#paint1_linear)" fill-opacity="0.5"/>
<path d="M783.083 1.14598L759.611 0V122.62H783.083V1.14598Z" fill="#8FE3F0"/>
<path d="M783.083 1.14598L759.611 0V122.62H783.083V1.14598Z" fill="url(#paint2_linear)"/>
<path d="M783.083 1.14598L759.611 0V122.62H783.083V1.14598Z" fill="url(#paint3_linear)" fill-opacity="0.5"/>
<rect width="12.8105" height="0.359182" transform="matrix(0.994202 0.107527 -0.174512 0.984655 751.067 87.3877)" fill="#101D35" fill-opacity="0.5"/>
<rect width="12.8105" height="0.359182" transform="matrix(0.994202 0.107527 -0.174512 0.984655 751.042 82.4502)" fill="#101D35" fill-opacity="0.5"/>
<rect width="12.8105" height="0.359182" transform="matrix(0.994202 0.107527 -0.174512 0.984655 751.019 77.5117)" fill="#101D35" fill-opacity="0.5"/>
<rect width="12.8105" height="0.359182" transform="matrix(0.994202 0.107527 -0.174512 0.984655 750.995 72.5737)" fill="#101D35" fill-opacity="0.5"/>
<rect width="12.8105" height="0.359182" transform="matrix(0.994202 0.107527 -0.174512 0.984655 750.971 67.5352)" fill="#101D35" fill-opacity="0.5"/>
<rect width="12.8105" height="0.359182" transform="matrix(0.994202 0.107527 -0.174512 0.984655 750.948 62.9868)" fill="#101D35" fill-opacity="0.5"/>
<rect width="12.8105" height="0.359182" transform="matrix(0.994202 0.107527 -0.174512 0.984655 750.92 57.3022)" fill="#101D35" fill-opacity="0.5"/>
<rect width="12.8105" height="0.359182" transform="matrix(0.994202 0.107527 -0.174512 0.984655 750.899 52.8389)" fill="#101D35" fill-opacity="0.5"/>
<rect width="12.8105" height="0.359182" transform="matrix(0.994202 0.107527 -0.174512 0.984655 751.187 112.077)" fill="#101D35" fill-opacity="0.5"/>
<rect width="12.8105" height="0.359182" transform="matrix(0.994202 0.107527 -0.174512 0.984655 751.163 107.139)" fill="#101D35" fill-opacity="0.5"/>
<rect width="12.8105" height="0.359182" transform="matrix(0.994202 0.107527 -0.174512 0.984655 751.138 102.201)" fill="#101D35" fill-opacity="0.5"/>
<rect width="12.8105" height="0.359182" transform="matrix(0.994202 0.107527 -0.174512 0.984655 751.115 97.2632)" fill="#101D35" fill-opacity="0.5"/>
<rect width="12.8105" height="0.359182" transform="matrix(0.994202 0.107527 -0.174512 0.984655 751.09 92.3252)" fill="#101D35" fill-opacity="0.5"/>
<path d="M1614.86 111.16L1616.33 159.291L1575.26 161.583V100.846H1578.92H1598.73V106.576H1602.39V111.16H1614.86Z" fill="#F3AE83"/>
<path d="M1614.86 111.16L1616.33 159.291L1575.26 161.583V100.846H1578.92H1598.73V106.576H1602.39V111.16H1614.86Z" fill="url(#paint4_linear)"/>
<path d="M1615.6 110.587V114.025L1610.46 113.452V115.171L1606.8 112.306L1603.86 115.744V119.755H1610.46V123.193H1604.6V125.485H1610.46V128.923H1604.6V130.642H1610.46V134.079H1604.6V137.517H1610.46V151.842H1606.8H1600.19V125.485H1598.73V122.047H1600.19V117.463H1598.73V112.306H1601.66V110.587H1615.6Z" fill="#6081AE"/>
<path d="M1528.31 100.846H1581.12V105.43H1578.19V107.722H1581.12V110.014H1578.19V111.16H1581.12V113.452H1578.19V115.744H1581.12V118.036H1578.19V119.182H1581.12V121.474H1578.19V122.62H1581.12V124.912H1578.19V127.204H1581.12V129.496H1578.19V130.642H1581.12V132.934H1578.19V134.08H1581.12V137.518V167.313H1528.31V100.846Z" fill="#1E324F"/>
<rect x="1538.58" y="95.1162" width="39.6086" height="5.72989" fill="#537DBF"/>
<rect x="1578.19" y="95.1162" width="14.6699" height="5.72989" fill="#AE82A7"/>
<rect x="1589.93" y="124.912" width="4.40096" height="1.14598" fill="#101D35"/>
<rect x="1589.93" y="123.766" width="4.40096" height="1.14598" fill="#101D35" fill-opacity="0.5"/>
<rect x="1589.93" y="121.474" width="4.40096" height="1.14598" fill="#101D35"/>
<rect x="1589.93" y="120.328" width="4.40096" height="1.14598" fill="#101D35" fill-opacity="0.5"/>
<rect x="1589.93" y="118.036" width="4.40096" height="1.14598" fill="#101D35"/>
<rect x="1589.93" y="116.89" width="4.40096" height="1.14598" fill="#101D35" fill-opacity="0.5"/>
<rect x="1589.93" y="114.598" width="4.40096" height="1.14598" fill="#101D35"/>
<rect x="1589.93" y="113.452" width="4.40096" height="1.14598" fill="#101D35" fill-opacity="0.5"/>
<rect x="1589.93" y="111.16" width="4.40096" height="1.14598" fill="#101D35"/>
<rect x="1589.93" y="110.014" width="4.40096" height="1.14598" fill="#101D35" fill-opacity="0.5"/>
<rect x="1589.93" y="107.722" width="4.40096" height="1.14598" fill="#101D35"/>
<rect x="1589.93" y="106.576" width="4.40096" height="1.14598" fill="#101D35" fill-opacity="0.5"/>
<path d="M1610.46 113.452V152.988V156.999H1651.54V113.452H1644.2V106.576H1615.6V113.452H1610.46Z" fill="#2D3F61"/>
<rect x="734.672" y="87.3506" width="16.1368" height="0.357044" fill="#101D35" fill-opacity="0.5"/>
<rect x="734.672" y="82.4512" width="16.1368" height="0.357044" fill="#101D35" fill-opacity="0.5"/>
<rect x="734.672" y="77.5518" width="16.1368" height="0.357044" fill="#101D35" fill-opacity="0.5"/>
<rect x="734.672" y="72.6523" width="16.1368" height="0.357044" fill="#101D35" fill-opacity="0.5"/>
<rect x="734.672" y="67.6533" width="16.1368" height="0.357044" fill="#101D35" fill-opacity="0.5"/>
<rect x="734.672" y="63.1406" width="16.1368" height="0.357044" fill="#101D35" fill-opacity="0.5"/>
<rect x="734.672" y="57.5" width="16.1368" height="0.357044" fill="#101D35" fill-opacity="0.5"/>
<rect x="734.672" y="53.0718" width="16.1368" height="0.357044" fill="#101D35" fill-opacity="0.5"/>
<rect x="734.672" y="111.847" width="16.1368" height="0.357044" fill="#101D35" fill-opacity="0.5"/>
<rect x="734.672" y="106.948" width="16.1368" height="0.357044" fill="#101D35" fill-opacity="0.5"/>
<rect x="734.672" y="102.048" width="16.1368" height="0.357044" fill="#101D35" fill-opacity="0.5"/>
<rect x="734.672" y="97.1494" width="16.1368" height="0.357044" fill="#101D35" fill-opacity="0.5"/>
<rect x="734.672" y="92.25" width="16.1368" height="0.357044" fill="#101D35" fill-opacity="0.5"/>
<rect width="18.0268" height="0.360578" transform="matrix(-0.990331 0.138722 0.223725 0.974652 734.75 87.0312)" fill="#101D35" fill-opacity="0.5"/>
<rect width="18.0268" height="0.360578" transform="matrix(-0.990331 0.138722 0.223725 0.974652 734.75 82.1772)" fill="#101D35" fill-opacity="0.5"/>
<rect width="18.0268" height="0.360578" transform="matrix(-0.990331 0.138722 0.223725 0.974652 734.75 77.3228)" fill="#101D35" fill-opacity="0.5"/>
<rect width="18.0268" height="0.360578" transform="matrix(-0.990331 0.138722 0.223725 0.974652 734.75 72.4683)" fill="#101D35" fill-opacity="0.5"/>
<rect width="18.0268" height="0.360578" transform="matrix(-0.990331 0.138722 0.223725 0.974652 734.75 67.5151)" fill="#101D35" fill-opacity="0.5"/>
<rect width="18.0268" height="0.360578" transform="matrix(-0.990331 0.138722 0.223725 0.974652 734.75 63.0439)" fill="#101D35" fill-opacity="0.5"/>
<rect width="18.0268" height="0.360578" transform="matrix(-0.990331 0.138722 0.223725 0.974652 734.75 57.4546)" fill="#101D35" fill-opacity="0.5"/>
<rect width="18.0268" height="0.360578" transform="matrix(-0.990331 0.138722 0.223725 0.974652 734.75 53.0674)" fill="#101D35" fill-opacity="0.5"/>
<rect width="18.0268" height="0.360578" transform="matrix(-0.990331 0.138722 0.223725 0.974652 734.75 111.304)" fill="#101D35" fill-opacity="0.5"/>
<rect width="18.0268" height="0.360578" transform="matrix(-0.990331 0.138722 0.223725 0.974652 734.75 106.449)" fill="#101D35" fill-opacity="0.5"/>
<rect width="18.0268" height="0.360578" transform="matrix(-0.990331 0.138722 0.223725 0.974652 734.75 101.595)" fill="#101D35" fill-opacity="0.5"/>
<rect width="18.0268" height="0.360578" transform="matrix(-0.990331 0.138722 0.223725 0.974652 734.75 96.7402)" fill="#101D35" fill-opacity="0.5"/>
<rect width="18.0268" height="0.360578" transform="matrix(-0.990331 0.138722 0.223725 0.974652 734.75 91.8857)" fill="#101D35" fill-opacity="0.5"/>
<path d="M1172.57 76.7803H1220.98V151.269H1165.97V97.9809H1172.57V76.7803Z" fill="#065589"/>
<path d="M1246.06 76.7803H1220.25V151.269H1249.58V97.9809H1246.06V76.7803Z" fill="#174461"/>
</g>
<defs>
<linearGradient id="paint0_linear" x1="771.347" y1="0" x2="771.347" y2="122.62" gradientUnits="userSpaceOnUse">
<stop stop-color="#9AA7E5"/>
<stop offset="1" stop-color="white" stop-opacity="0"/>
</linearGradient>
<linearGradient id="paint1_linear" x1="750.076" y1="71.0507" x2="789.262" y2="56.7182" gradientUnits="userSpaceOnUse">
<stop stop-color="#4E588B"/>
<stop offset="1" stop-color="white" stop-opacity="0"/>
</linearGradient>
<linearGradient id="paint2_linear" x1="771.347" y1="0" x2="771.347" y2="122.62" gradientUnits="userSpaceOnUse">
<stop stop-color="#9AA7E5"/>
<stop offset="1" stop-color="white" stop-opacity="0"/>
</linearGradient>
<linearGradient id="paint3_linear" x1="750.076" y1="71.0507" x2="789.262" y2="56.7182" gradientUnits="userSpaceOnUse">
<stop stop-color="#4E588B"/>
<stop offset="1" stop-color="white" stop-opacity="0"/>
</linearGradient>
<linearGradient id="paint4_linear" x1="1595.79" y1="100.846" x2="1595.79" y2="161.583" gradientUnits="userSpaceOnUse">
<stop stop-color="#F3AE83"/>
<stop offset="0.0001" stop-color="#8FE3F0"/>
<stop offset="0.953125" stop-color="#9AA7E5"/>
</linearGradient>
<clipPath id="clip0">
<rect width="2053" height="167" fill="white"/>
</clipPath>
</defs>
</svg>
