<svg width="2053" height="301" viewBox="0 0 2053 301" fill="none" xmlns="http://www.w3.org/2000/svg">
<path d="M868.168 109.441V241.229V296.809H920.246V97.4083H909.977V83.0835V69.9048H890.906V83.0835H882.838V97.4083H877.703V109.441H868.168Z" fill="#1B3653"/>
<path d="M1165.97 48.7041L1193.84 49.9223V203.411H1165.97V48.7041Z" fill="#4E588B"/>
<path d="M1165.97 48.7041L1193.84 49.9223V203.411H1165.97V48.7041Z" fill="url(#paint0_radial)"/>
<path d="M1166.7 53.861L1193.11 56.726H1193.84V49.8501H1189.44V48.7041H1176.24V50.4231H1173.3V52.142H1168.9V49.8501H1167.43V52.142H1166.7V53.861Z" fill="#8189AF"/>
<path d="M1082.35 49.2771L1176.24 46.4121V50.423H1171.1V48.1311H1167.43V281.338H1082.35V49.2771Z" fill="#1B3A5D"/>
<rect x="1165.97" y="52.1421" width="1.46699" height="191.378" fill="#8189AF"/>
<rect width="2.93397" height="191.378" transform="matrix(-1 0 0 1 1182.1 52.1421)" fill="#8189AF"/>
<rect x="1192.37" y="54.4341" width="1.46699" height="191.378" fill="#8189AF"/>
<path d="M1166.7 58.4448L1193.11 60.7368V61.8828L1166.7 59.5908V58.4448Z" fill="#8189AF"/>
<path d="M1167.43 81.9375L1193.84 84.2295V85.3754L1167.43 83.0835V81.9375Z" fill="#8189AF"/>
<path d="M1167.43 77.3535L1193.84 79.6455V80.7915L1167.43 78.4995V77.3535Z" fill="#8189AF"/>
<path d="M1167.43 72.7695L1193.84 75.0615V76.2075L1167.43 73.9155V72.7695Z" fill="#8189AF"/>
<path d="M1167.43 68.186L1193.84 70.478V71.624L1167.43 69.332V68.186Z" fill="#8189AF"/>
<path d="M1165.97 116.317L1192.37 118.609V119.755L1165.97 117.463V116.317Z" fill="#8189AF"/>
<path d="M1165.97 111.733L1192.37 114.025V115.171L1165.97 112.879V111.733Z" fill="#8189AF"/>
<path d="M1165.97 107.149L1192.37 109.441V110.587L1165.97 108.295V107.149Z" fill="#8189AF"/>
<path d="M1165.97 102.565L1192.37 104.857V106.003L1165.97 103.711V102.565Z" fill="#8189AF"/>
<path d="M1167.43 99.1274L1193.84 101.419V102.565L1167.43 100.273V99.1274Z" fill="#8189AF"/>
<path d="M1167.43 94.5435L1193.84 96.8354V97.9814L1167.43 95.6894V94.5435Z" fill="#8189AF"/>
<path d="M1167.43 89.9595L1193.84 92.2514V93.3974L1167.43 91.1055V89.9595Z" fill="#8189AF"/>
<path d="M1167.43 85.3755L1193.84 87.6674V88.8134L1167.43 86.5215V85.3755Z" fill="#8189AF"/>
<path d="M1167.43 134.652L1193.84 136.944V138.09L1167.43 135.798V134.652Z" fill="#8189AF"/>
<path d="M1167.43 130.069L1193.84 132.361V133.507L1167.43 131.215V130.069Z" fill="#8189AF"/>
<path d="M1167.43 125.485L1193.84 127.777V128.923L1167.43 126.631V125.485Z" fill="#8189AF"/>
<path d="M1167.43 120.901L1193.84 123.193V124.339L1167.43 122.047V120.901Z" fill="#8189AF"/>
<path d="M1165.97 169.032L1192.37 171.324V172.47L1165.97 170.178V169.032Z" fill="#8189AF"/>
<path d="M1167.43 179.346L1193.84 181.638V182.784L1167.43 180.492V179.346Z" fill="#8189AF"/>
<path d="M1167.43 183.93L1193.84 186.222V187.368L1167.43 185.076V183.93Z" fill="#8189AF"/>
<path d="M1165.97 188.514L1192.37 190.806V191.952L1165.97 189.66V188.514Z" fill="#8189AF"/>
<path d="M1165.97 174.762L1192.37 177.054V178.2L1165.97 175.908V174.762Z" fill="#8189AF"/>
<path d="M1165.97 164.448L1192.37 166.74V167.886L1165.97 165.594V164.448Z" fill="#8189AF"/>
<path d="M1165.97 159.864L1192.37 162.156V163.302L1165.97 161.01V159.864Z" fill="#8189AF"/>
<path d="M1165.97 155.28L1192.37 157.572V158.718L1165.97 156.426V155.28Z" fill="#8189AF"/>
<path d="M1167.43 151.842L1193.84 154.134V155.28L1167.43 152.988V151.842Z" fill="#8189AF"/>
<path d="M1167.43 147.258L1193.84 149.55V150.696L1167.43 148.404V147.258Z" fill="#8189AF"/>
<path d="M1167.43 142.674L1193.84 144.966V146.112L1167.43 143.82V142.674Z" fill="#8189AF"/>
<path d="M1167.43 138.09L1193.84 140.382V141.528L1167.43 139.236V138.09Z" fill="#8189AF"/>
<path d="M1167.43 63.6021L1193.84 65.894V67.04L1167.43 64.748V63.6021Z" fill="#8189AF"/>
<path d="M1356.67 88.8133V43.5472H1381.61L1395.55 50.996V41.2552H1400.68C1412.24 37.2443 1412.42 30.3684 1410.95 0H1413.15C1415.35 33.127 1413.17 35.5103 1405.89 43.4703L1405.82 43.5472V88.8133H1356.67Z" fill="#101D35"/>
<path d="M1377.95 56.726V58.445V76.2076L1388.95 75.6347V239.51H1409.49V69.3318H1394.82V59.018H1393.35V57.872H1388.95V52.1421H1383.08V54.434H1380.15V56.726H1377.95Z" fill="#8FE3F0"/>
<path d="M1377.95 56.726V58.445V76.2076L1388.95 75.6347V239.51H1409.49V69.3318H1394.82V59.018H1393.35V57.872H1388.95V52.1421H1383.08V54.434H1380.15V56.726H1377.95Z" fill="url(#paint1_linear)"/>
<path d="M1377.95 58.4448H1350.81V274.462H1391.15V73.9155H1387.48V70.4776H1377.95V58.4448Z" fill="#101D35"/>
<path d="M1474.03 65.894L1504.84 67.04L1506.31 300.82H1474.03V183.357L1412.42 95.6895L1474.03 65.894Z" fill="#8FE3F0"/>
<path d="M1474.03 65.894L1504.84 67.04L1506.31 300.82H1474.03V183.357L1412.42 95.6895L1474.03 65.894Z" fill="url(#paint2_linear)"/>
<path fill-rule="evenodd" clip-rule="evenodd" d="M1408.02 67.0398V296.808H1474.77V68.7587H1470.37V67.0398H1468.17V65.3208H1431.49V69.9047L1408.02 67.0398ZM1430.02 89.9593V86.5214H1457.9V89.9593H1430.02ZM1459.36 86.5214V89.9593H1469.63V86.5214H1459.36ZM1454.96 110.587V107.149H1463.76V110.587H1454.96Z" fill="#174461"/>
<path d="M1522 133.111L1538.5 121.611H1590V213.611H1522V133.111Z" fill="#3D4660"/>
<path d="M1522 133.111L1538.5 121.611H1590V213.611H1522V133.111Z" fill="url(#paint3_linear)"/>
<rect width="35.6024" height="0.357753" transform="matrix(0.994242 0.107531 -0.174523 0.984718 1414.06 133.156)" fill="#101D35" fill-opacity="0.5"/>
<rect width="35.6024" height="0.357753" transform="matrix(0.994242 0.107531 -0.174523 0.984718 1414.06 128.179)" fill="#101D35" fill-opacity="0.5"/>
<rect width="35.6024" height="0.357753" transform="matrix(0.994242 0.107531 -0.174523 0.984718 1414.06 123.202)" fill="#101D35" fill-opacity="0.5"/>
<rect width="35.6024" height="0.357753" transform="matrix(0.994242 0.107531 -0.174523 0.984718 1414.06 118.226)" fill="#101D35" fill-opacity="0.5"/>
<rect width="35.6024" height="0.357753" transform="matrix(0.994242 0.107531 -0.174523 0.984718 1414.06 113.147)" fill="#101D35" fill-opacity="0.5"/>
<rect width="35.6024" height="0.357753" transform="matrix(0.994242 0.107531 -0.174523 0.984718 1414.06 108.563)" fill="#101D35" fill-opacity="0.5"/>
<rect width="35.6024" height="0.357753" transform="matrix(0.994242 0.107531 -0.174523 0.984718 1414.06 102.833)" fill="#101D35" fill-opacity="0.5"/>
<rect width="35.6024" height="0.357753" transform="matrix(0.994242 0.107531 -0.174523 0.984718 1414.06 98.3345)" fill="#101D35" fill-opacity="0.5"/>
<rect width="35.6024" height="0.357753" transform="matrix(0.994242 0.107531 -0.174523 0.984718 1414.06 158.041)" fill="#101D35" fill-opacity="0.5"/>
<rect width="35.6024" height="0.357753" transform="matrix(0.994242 0.107531 -0.174523 0.984718 1414.06 153.064)" fill="#101D35" fill-opacity="0.5"/>
<rect width="35.6024" height="0.357753" transform="matrix(0.994242 0.107531 -0.174523 0.984718 1414.06 148.087)" fill="#101D35" fill-opacity="0.5"/>
<rect width="35.6024" height="0.357753" transform="matrix(0.994242 0.107531 -0.174523 0.984718 1414.06 143.11)" fill="#101D35" fill-opacity="0.5"/>
<rect width="35.6024" height="0.357753" transform="matrix(0.994242 0.107531 -0.174523 0.984718 1414.06 138.133)" fill="#101D35" fill-opacity="0.5"/>
<rect width="35.6038" height="0.357776" transform="matrix(0.994202 0.107527 -0.174512 0.984655 1414.06 198.477)" fill="#101D35" fill-opacity="0.5"/>
<rect width="35.6038" height="0.357776" transform="matrix(0.994202 0.107527 -0.174512 0.984655 1414.06 193.5)" fill="#101D35" fill-opacity="0.5"/>
<rect width="35.6038" height="0.357776" transform="matrix(0.994202 0.107527 -0.174512 0.984655 1414.06 188.523)" fill="#101D35" fill-opacity="0.5"/>
<rect width="35.6038" height="0.357776" transform="matrix(0.994202 0.107527 -0.174512 0.984655 1414.06 183.546)" fill="#101D35" fill-opacity="0.5"/>
<rect width="35.6038" height="0.357776" transform="matrix(0.994202 0.107527 -0.174512 0.984655 1414.06 178.468)" fill="#101D35" fill-opacity="0.5"/>
<rect width="35.6038" height="0.357776" transform="matrix(0.994202 0.107527 -0.174512 0.984655 1414.06 173.883)" fill="#101D35" fill-opacity="0.5"/>
<rect width="35.6038" height="0.357776" transform="matrix(0.994202 0.107527 -0.174512 0.984655 1414.06 168.154)" fill="#101D35" fill-opacity="0.5"/>
<rect width="35.6038" height="0.357776" transform="matrix(0.994202 0.107527 -0.174512 0.984655 1414.06 163.655)" fill="#101D35" fill-opacity="0.5"/>
<rect width="35.6038" height="0.357776" transform="matrix(0.994202 0.107527 -0.174512 0.984655 1414.06 223.362)" fill="#101D35" fill-opacity="0.5"/>
<rect width="35.6038" height="0.357776" transform="matrix(0.994202 0.107527 -0.174512 0.984655 1414.06 218.384)" fill="#101D35" fill-opacity="0.5"/>
<rect width="35.6038" height="0.357776" transform="matrix(0.994202 0.107527 -0.174512 0.984655 1414.06 213.408)" fill="#101D35" fill-opacity="0.5"/>
<rect width="35.6038" height="0.357776" transform="matrix(0.994202 0.107527 -0.174512 0.984655 1414.06 208.431)" fill="#101D35" fill-opacity="0.5"/>
<rect width="35.6038" height="0.357776" transform="matrix(0.994202 0.107527 -0.174512 0.984655 1414.06 203.454)" fill="#101D35" fill-opacity="0.5"/>
<rect width="35.6038" height="0.357776" transform="matrix(0.994202 0.107527 -0.174512 0.984655 1414.06 263.798)" fill="#101D35" fill-opacity="0.5"/>
<rect width="35.6038" height="0.357776" transform="matrix(0.994202 0.107527 -0.174512 0.984655 1414.06 258.82)" fill="#101D35" fill-opacity="0.5"/>
<rect width="35.6038" height="0.357776" transform="matrix(0.994202 0.107527 -0.174512 0.984655 1414.06 253.844)" fill="#101D35" fill-opacity="0.5"/>
<rect width="35.6038" height="0.357776" transform="matrix(0.994202 0.107527 -0.174512 0.984655 1414.06 248.867)" fill="#101D35" fill-opacity="0.5"/>
<rect width="35.6038" height="0.357776" transform="matrix(0.994202 0.107527 -0.174512 0.984655 1414.06 243.788)" fill="#101D35" fill-opacity="0.5"/>
<rect width="35.6038" height="0.357776" transform="matrix(0.994202 0.107527 -0.174512 0.984655 1414.06 239.204)" fill="#101D35" fill-opacity="0.5"/>
<rect width="35.6038" height="0.357776" transform="matrix(0.994202 0.107527 -0.174512 0.984655 1414.06 233.475)" fill="#101D35" fill-opacity="0.5"/>
<rect width="35.6038" height="0.357776" transform="matrix(0.994202 0.107527 -0.174512 0.984655 1414.06 228.976)" fill="#101D35" fill-opacity="0.5"/>
<rect width="35.6038" height="0.357776" transform="matrix(0.994202 0.107527 -0.174512 0.984655 1414.06 288.683)" fill="#101D35" fill-opacity="0.5"/>
<rect width="35.6038" height="0.357776" transform="matrix(0.994202 0.107527 -0.174512 0.984655 1414.06 283.705)" fill="#101D35" fill-opacity="0.5"/>
<rect width="35.6038" height="0.357776" transform="matrix(0.994202 0.107527 -0.174512 0.984655 1414.06 278.729)" fill="#101D35" fill-opacity="0.5"/>
<rect width="35.6038" height="0.357776" transform="matrix(0.994202 0.107527 -0.174512 0.984655 1414.06 273.751)" fill="#101D35" fill-opacity="0.5"/>
<rect width="35.6038" height="0.357776" transform="matrix(0.994202 0.107527 -0.174512 0.984655 1414.06 268.775)" fill="#101D35" fill-opacity="0.5"/>
<rect width="30.7401" height="0.357123" transform="matrix(0.993421 0.114515 -0.164033 0.986455 1474.57 103.308)" fill="#101D35" fill-opacity="0.5"/>
<rect width="30.7401" height="0.357123" transform="matrix(0.993421 0.114515 -0.164033 0.986455 1474.64 98.3389)" fill="#101D35" fill-opacity="0.5"/>
<rect width="30.7401" height="0.357123" transform="matrix(0.993421 0.114515 -0.164033 0.986455 1474.71 93.3691)" fill="#101D35" fill-opacity="0.5"/>
<rect width="30.7401" height="0.357123" transform="matrix(0.993421 0.114515 -0.164033 0.986455 1474.77 88.3999)" fill="#101D35" fill-opacity="0.5"/>
<rect width="30.7401" height="0.357123" transform="matrix(0.993421 0.114515 -0.164033 0.986455 1474.84 83.3286)" fill="#101D35" fill-opacity="0.5"/>
<rect width="30.7401" height="0.357123" transform="matrix(0.993421 0.114515 -0.164033 0.986455 1474.9 78.752)" fill="#101D35" fill-opacity="0.5"/>
<rect width="30.7401" height="0.357123" transform="matrix(0.993421 0.114515 -0.164033 0.986455 1474.97 73.0308)" fill="#101D35" fill-opacity="0.5"/>
<rect width="30.7401" height="0.357123" transform="matrix(0.993421 0.114515 -0.164033 0.986455 1475.03 68.5391)" fill="#101D35" fill-opacity="0.5"/>
<rect width="30.7401" height="0.357123" transform="matrix(0.993421 0.114515 -0.164033 0.986455 1474.25 128.155)" fill="#101D35" fill-opacity="0.5"/>
<rect width="30.7401" height="0.357123" transform="matrix(0.993421 0.114515 -0.164033 0.986455 1474.31 123.186)" fill="#101D35" fill-opacity="0.5"/>
<rect width="30.7401" height="0.357123" transform="matrix(0.993421 0.114515 -0.164033 0.986455 1474.38 118.216)" fill="#101D35" fill-opacity="0.5"/>
<rect width="30.7401" height="0.357123" transform="matrix(0.993421 0.114515 -0.164033 0.986455 1474.44 113.247)" fill="#101D35" fill-opacity="0.5"/>
<rect width="30.7401" height="0.357123" transform="matrix(0.993421 0.114515 -0.164033 0.986455 1474.51 108.277)" fill="#101D35" fill-opacity="0.5"/>
<rect width="33.4311" height="0.357123" transform="matrix(0.993421 0.114515 -0.164033 0.986455 1472.1 168.682)" fill="#101D35" fill-opacity="0.5"/>
<rect width="33.4311" height="0.357123" transform="matrix(0.993421 0.114515 -0.164033 0.986455 1472.1 163.705)" fill="#101D35" fill-opacity="0.5"/>
<rect width="33.4311" height="0.357123" transform="matrix(0.993421 0.114515 -0.164033 0.986455 1472.1 158.728)" fill="#101D35" fill-opacity="0.5"/>
<rect width="33.4311" height="0.357123" transform="matrix(0.993421 0.114515 -0.164033 0.986455 1472.1 153.751)" fill="#101D35" fill-opacity="0.5"/>
<rect width="33.4311" height="0.357123" transform="matrix(0.993421 0.114515 -0.164033 0.986455 1472.1 148.672)" fill="#101D35" fill-opacity="0.5"/>
<rect width="33.4311" height="0.357123" transform="matrix(0.993421 0.114515 -0.164033 0.986455 1472.1 144.088)" fill="#101D35" fill-opacity="0.5"/>
<rect width="33.4311" height="0.357123" transform="matrix(0.993421 0.114515 -0.164033 0.986455 1472.1 138.358)" fill="#101D35" fill-opacity="0.5"/>
<rect width="33.4311" height="0.357123" transform="matrix(0.993421 0.114515 -0.164033 0.986455 1472.1 133.86)" fill="#101D35" fill-opacity="0.5"/>
<rect width="33.4311" height="0.357123" transform="matrix(0.993421 0.114515 -0.164033 0.986455 1472.1 193.566)" fill="#101D35" fill-opacity="0.5"/>
<rect width="33.4311" height="0.357123" transform="matrix(0.993421 0.114515 -0.164033 0.986455 1472.1 188.59)" fill="#101D35" fill-opacity="0.5"/>
<rect width="33.4311" height="0.357123" transform="matrix(0.993421 0.114515 -0.164033 0.986455 1472.1 183.612)" fill="#101D35" fill-opacity="0.5"/>
<rect width="33.4311" height="0.357123" transform="matrix(0.993421 0.114515 -0.164033 0.986455 1472.1 178.636)" fill="#101D35" fill-opacity="0.5"/>
<rect width="33.4311" height="0.357123" transform="matrix(0.993421 0.114515 -0.164033 0.986455 1472.1 173.659)" fill="#101D35" fill-opacity="0.5"/>
<rect width="33.4311" height="0.357123" transform="matrix(0.993421 0.114515 -0.164033 0.986455 1472.1 234.002)" fill="#101D35" fill-opacity="0.5"/>
<rect width="33.4311" height="0.357123" transform="matrix(0.993421 0.114515 -0.164033 0.986455 1472.1 229.026)" fill="#101D35" fill-opacity="0.5"/>
<rect width="33.4311" height="0.357123" transform="matrix(0.993421 0.114515 -0.164033 0.986455 1472.1 224.048)" fill="#101D35" fill-opacity="0.5"/>
<rect width="33.4311" height="0.357123" transform="matrix(0.993421 0.114515 -0.164033 0.986455 1472.1 219.072)" fill="#101D35" fill-opacity="0.5"/>
<rect width="33.4311" height="0.357123" transform="matrix(0.993421 0.114515 -0.164033 0.986455 1472.1 213.993)" fill="#101D35" fill-opacity="0.5"/>
<rect width="33.4311" height="0.357123" transform="matrix(0.993421 0.114515 -0.164033 0.986455 1472.1 209.409)" fill="#101D35" fill-opacity="0.5"/>
<rect width="33.4311" height="0.357123" transform="matrix(0.993421 0.114515 -0.164033 0.986455 1472.1 203.679)" fill="#101D35" fill-opacity="0.5"/>
<rect width="33.4311" height="0.357123" transform="matrix(0.993421 0.114515 -0.164033 0.986455 1472.1 199.181)" fill="#101D35" fill-opacity="0.5"/>
<rect width="33.4311" height="0.357123" transform="matrix(0.993421 0.114515 -0.164033 0.986455 1472.1 258.887)" fill="#101D35" fill-opacity="0.5"/>
<rect width="33.4311" height="0.357123" transform="matrix(0.993421 0.114515 -0.164033 0.986455 1472.1 253.91)" fill="#101D35" fill-opacity="0.5"/>
<rect width="33.4311" height="0.357123" transform="matrix(0.993421 0.114515 -0.164033 0.986455 1472.1 248.933)" fill="#101D35" fill-opacity="0.5"/>
<rect width="33.4311" height="0.357123" transform="matrix(0.993421 0.114515 -0.164033 0.986455 1472.1 243.957)" fill="#101D35" fill-opacity="0.5"/>
<rect width="33.4311" height="0.357123" transform="matrix(0.993421 0.114515 -0.164033 0.986455 1472.1 238.98)" fill="#101D35" fill-opacity="0.5"/>
<rect x="1644" y="147.611" width="34" height="11" fill="#3D4660"/>
<rect x="1644" y="158.611" width="34" height="74" fill="#3D4660"/>
<rect x="1644" y="158.611" width="34" height="74" fill="url(#paint4_linear)"/>
<defs>
<radialGradient id="paint0_radial" cx="0" cy="0" r="1" gradientUnits="userSpaceOnUse" gradientTransform="translate(1132.96 154.685) rotate(73.5133) scale(74.9535 128.277)">
<stop stop-color="#8FE3F0"/>
<stop offset="1" stop-color="white" stop-opacity="0"/>
</radialGradient>
<linearGradient id="paint1_linear" x1="1393.72" y1="52.1421" x2="1393.72" y2="239.51" gradientUnits="userSpaceOnUse">
<stop/>
<stop offset="1" stop-color="white" stop-opacity="0"/>
</linearGradient>
<linearGradient id="paint2_linear" x1="1490.17" y1="65.894" x2="1490.17" y2="300.82" gradientUnits="userSpaceOnUse">
<stop stop-color="#8FE3F0"/>
<stop offset="1" stop-color="white" stop-opacity="0"/>
</linearGradient>
<linearGradient id="paint3_linear" x1="1556" y1="121.611" x2="1556" y2="231.5" gradientUnits="userSpaceOnUse">
<stop stop-color="#101D35"/>
<stop offset="1" stop-color="white" stop-opacity="0"/>
</linearGradient>
<linearGradient id="paint4_linear" x1="1661" y1="158.611" x2="1661" y2="247" gradientUnits="userSpaceOnUse">
<stop stop-color="#101D35"/>
<stop offset="1" stop-color="white" stop-opacity="0"/>
</linearGradient>
</defs>
</svg>
