<svg width="2053" height="299" viewBox="0 0 2053 299" fill="none" xmlns="http://www.w3.org/2000/svg">
<path d="M1365.48 126.058H1300.2L1295.06 264.148L1365.48 266.44V126.058Z" fill="#003C58"/>
<path d="M1320 0L1250.32 2.86495V279.619L1320 267.586V0Z" fill="#101D35"/>
<path d="M1320 0L1250.32 2.86495V279.619L1320 267.586V0Z" fill="url(#paint0_linear)"/>
<path d="M1320 0.573242L1327.33 1.43259V244.38H1320V0.573242Z" fill="#1AA9CB"/>
<path d="M1320 0.573242L1327.33 1.43259V244.38H1320V0.573242Z" fill="url(#paint1_linear)"/>
<path d="M1237.85 6.30268L1249.58 2.86475V272.17H1237.85V6.30268Z" fill="url(#paint2_linear)"/>
<path d="M1400.68 7.44873L1434.43 10.3137V197.681H1400.68V7.44873Z" fill="#8FE3F0"/>
<path d="M1400.68 7.44873L1434.43 10.3137V197.681H1400.68V7.44873Z" fill="url(#paint3_linear)"/>
<path d="M1348.44 12.6266H1336.14V294.509L1391.88 298.527V5.73743H1386.09V1.71875L1360.75 2.86695V7.45973H1355.68V5.73743H1352.79V7.45973H1348.44V12.6266Z" fill="#2D4966"/>
<rect x="1391.88" y="7.44873" width="8.80192" height="161.583" fill="#101D35"/>
<rect x="1333.2" y="10.8867" width="2.93397" height="261.283" fill="#101D35"/>
<rect x="1771.83" y="109.441" width="16.1369" height="100.846" fill="#8FE3F0"/>
<rect x="1771.83" y="109.441" width="16.1369" height="100.846" fill="url(#paint4_linear)"/>
<rect x="1774.77" y="146.112" width="2.93397" height="1.14598" fill="#101D35"/>
<rect x="1774.77" y="144.966" width="2.93397" height="1.14598" fill="#101D35" fill-opacity="0.5"/>
<rect width="2.93397" height="1.14598" transform="matrix(1 0 0 -1 1774.77 150.696)" fill="#101D35"/>
<rect width="2.93397" height="1.14598" transform="matrix(1 0 0 -1 1774.77 151.842)" fill="#101D35" fill-opacity="0.5"/>
<rect width="2.93397" height="1.14598" transform="matrix(1 0 0 -1 1774.77 154.134)" fill="#101D35"/>
<rect width="2.93397" height="1.14598" transform="matrix(1 0 0 -1 1774.77 155.28)" fill="#101D35" fill-opacity="0.5"/>
<rect width="2.93397" height="1.14598" transform="matrix(1 0 0 -1 1774.77 157.572)" fill="#101D35"/>
<rect width="2.93397" height="1.14598" transform="matrix(1 0 0 -1 1774.77 158.718)" fill="#101D35" fill-opacity="0.5"/>
<rect width="2.93397" height="1.14598" transform="matrix(1 0 0 -1 1774.77 161.01)" fill="#101D35"/>
<rect width="2.93397" height="1.14598" transform="matrix(1 0 0 -1 1774.77 162.156)" fill="#101D35" fill-opacity="0.5"/>
<rect width="2.93397" height="1.14598" transform="matrix(1 0 0 -1 1774.77 164.448)" fill="#101D35"/>
<rect width="2.93397" height="1.14598" transform="matrix(1 0 0 -1 1774.77 165.594)" fill="#101D35" fill-opacity="0.5"/>
<rect width="2.93397" height="1.14598" transform="matrix(1 0 0 -1 1774.77 167.886)" fill="#101D35"/>
<rect width="2.93397" height="1.14598" transform="matrix(1 0 0 -1 1774.77 169.032)" fill="#101D35" fill-opacity="0.5"/>
<rect width="2.93397" height="1.14598" transform="matrix(1 0 0 -1 1774.77 171.324)" fill="#101D35"/>
<rect width="2.93397" height="1.14598" transform="matrix(1 0 0 -1 1774.77 172.47)" fill="#101D35" fill-opacity="0.5"/>
<rect width="2.93397" height="1.14598" transform="matrix(1 0 0 -1 1774.77 174.762)" fill="#101D35"/>
<rect width="2.93397" height="1.14598" transform="matrix(1 0 0 -1 1774.77 175.908)" fill="#101D35" fill-opacity="0.5"/>
<rect width="2.93397" height="1.14598" transform="matrix(1 0 0 -1 1774.77 177.054)" fill="#101D35"/>
<rect width="2.93397" height="1.14598" transform="matrix(1 0 0 -1 1774.77 178.2)" fill="#101D35" fill-opacity="0.5"/>
<rect width="2.93397" height="1.14598" transform="matrix(1 0 0 -1 1774.77 180.492)" fill="#101D35"/>
<rect width="2.93397" height="1.14598" transform="matrix(1 0 0 -1 1774.77 181.638)" fill="#101D35" fill-opacity="0.5"/>
<rect width="2.93397" height="1.14598" transform="matrix(1 0 0 -1 1774.77 183.93)" fill="#101D35"/>
<rect width="2.93397" height="1.14598" transform="matrix(1 0 0 -1 1774.77 185.076)" fill="#101D35" fill-opacity="0.5"/>
<rect width="2.93397" height="1.14598" transform="matrix(1 0 0 -1 1774.77 187.368)" fill="#101D35"/>
<rect width="2.93397" height="1.14598" transform="matrix(1 0 0 -1 1774.77 188.514)" fill="#101D35" fill-opacity="0.5"/>
<rect width="2.93397" height="1.14598" transform="matrix(1 0 0 -1 1774.77 199.973)" fill="#101D35"/>
<rect width="2.93397" height="1.14598" transform="matrix(1 0 0 -1 1774.77 201.119)" fill="#101D35" fill-opacity="0.5"/>
<rect width="2.93397" height="1.14598" transform="matrix(1 0 0 -1 1774.77 205.703)" fill="#101D35"/>
<rect width="2.93397" height="1.14598" transform="matrix(1 0 0 -1 1774.77 206.849)" fill="#101D35" fill-opacity="0.5"/>
<rect width="2.93397" height="1.14598" transform="matrix(1 0 0 -1 1774.77 209.141)" fill="#101D35"/>
<rect width="2.93397" height="1.14598" transform="matrix(1 0 0 -1 1774.77 210.287)" fill="#101D35" fill-opacity="0.5"/>
<rect width="2.93397" height="1.14598" transform="matrix(1 0 0 -1 1774.77 193.098)" fill="#101D35"/>
<rect width="2.93397" height="1.14598" transform="matrix(1 0 0 -1 1774.77 194.244)" fill="#101D35" fill-opacity="0.5"/>
<rect width="2.93397" height="1.14598" transform="matrix(1 0 0 -1 1774.77 196.536)" fill="#101D35"/>
<rect width="2.93397" height="1.14598" transform="matrix(1 0 0 -1 1774.77 197.682)" fill="#101D35" fill-opacity="0.5"/>
<rect x="1774.77" y="142.674" width="2.93397" height="1.14598" fill="#101D35"/>
<rect x="1774.77" y="141.528" width="2.93397" height="1.14598" fill="#101D35" fill-opacity="0.5"/>
<rect x="1774.77" y="139.236" width="2.93397" height="1.14598" fill="#101D35"/>
<rect x="1774.77" y="138.09" width="2.93397" height="1.14598" fill="#101D35" fill-opacity="0.5"/>
<rect x="1774.77" y="135.799" width="2.93397" height="1.14598" fill="#101D35"/>
<rect x="1774.77" y="134.653" width="2.93397" height="1.14598" fill="#101D35" fill-opacity="0.5"/>
<rect x="1774.77" y="132.361" width="2.93397" height="1.14598" fill="#101D35"/>
<rect x="1774.77" y="131.215" width="2.93397" height="1.14598" fill="#101D35" fill-opacity="0.5"/>
<rect x="1774.77" y="128.923" width="2.93397" height="1.14598" fill="#101D35"/>
<rect x="1774.77" y="127.777" width="2.93397" height="1.14598" fill="#101D35" fill-opacity="0.5"/>
<rect x="1774.77" y="125.485" width="2.93397" height="1.14598" fill="#101D35"/>
<rect x="1774.77" y="124.339" width="2.93397" height="1.14598" fill="#101D35" fill-opacity="0.5"/>
<rect x="1774.77" y="122.047" width="2.93397" height="1.14598" fill="#101D35"/>
<rect x="1774.77" y="120.901" width="2.93397" height="1.14598" fill="#101D35" fill-opacity="0.5"/>
<rect x="1774.77" y="118.609" width="2.93397" height="1.14598" fill="#101D35"/>
<rect x="1774.77" y="117.463" width="2.93397" height="1.14598" fill="#101D35" fill-opacity="0.5"/>
<path d="M1771.83 109.441H1777.7V116.317H1774.77V211.433H1771.83V109.441Z" fill="#101D35"/>
<path d="M1033.94 183.929H1069.15V185.075H1079.41L1078.68 186.794L1062.54 191.951H1045.67L1033.94 183.929Z" fill="#CDB9D8"/>
<path d="M1001.66 182.783H1034.67L1045.67 186.794V191.951H997.263L997.263 186.221H1003.13V185.075H1001.66V182.783Z" fill="#6081AE"/>
<path d="M1598.2 139.064L1625.1 134.955L1652 133.194V214.194H1596L1598.2 139.064Z" fill="url(#paint5_linear)"/>
<path d="M1537.98 129.636L1548.55 126.73L1559.12 125.484V182.783H1537.11L1537.98 129.636Z" fill="url(#paint6_linear)"/>
<rect x="1617.8" y="158.718" width="2.93397" height="1.14598" fill="#101D35"/>
<rect x="1617.8" y="157.572" width="2.93397" height="1.14598" fill="#101D35" fill-opacity="0.5"/>
<rect x="1617.8" y="155.28" width="2.93397" height="1.14598" fill="#101D35"/>
<rect x="1617.8" y="154.134" width="2.93397" height="1.14598" fill="#101D35" fill-opacity="0.5"/>
<rect x="1617.8" y="151.842" width="2.93397" height="1.14598" fill="#101D35"/>
<rect x="1617.8" y="150.696" width="2.93397" height="1.14598" fill="#101D35" fill-opacity="0.5"/>
<rect x="1617.8" y="148.404" width="2.93397" height="1.14598" fill="#101D35"/>
<rect x="1617.8" y="147.258" width="2.93397" height="1.14598" fill="#101D35" fill-opacity="0.5"/>
<rect x="1617.8" y="144.966" width="2.93397" height="1.14598" fill="#101D35"/>
<rect x="1617.8" y="143.82" width="2.93397" height="1.14598" fill="#101D35" fill-opacity="0.5"/>
<rect x="1617.8" y="141.528" width="2.93397" height="1.14598" fill="#101D35"/>
<rect x="1617.8" y="140.382" width="2.93397" height="1.14598" fill="#101D35" fill-opacity="0.5"/>
<rect x="1617.8" y="138.09" width="2.93397" height="1.14598" fill="#101D35"/>
<rect x="1617.8" y="136.944" width="2.93397" height="1.14598" fill="#101D35" fill-opacity="0.5"/>
<rect x="1617.8" y="134.652" width="2.93397" height="1.14598" fill="#101D35"/>
<rect x="1617.8" y="133.506" width="2.93397" height="1.14598" fill="#101D35" fill-opacity="0.5"/>
<rect x="1617.8" y="186.222" width="2.93397" height="1.14598" fill="#101D35"/>
<rect x="1617.8" y="185.076" width="2.93397" height="1.14598" fill="#101D35" fill-opacity="0.5"/>
<rect x="1617.8" y="189.659" width="2.93397" height="1.14598" fill="#101D35"/>
<rect x="1617.8" y="188.513" width="2.93397" height="1.14598" fill="#101D35" fill-opacity="0.5"/>
<rect x="1617.8" y="192.524" width="2.93397" height="0.572989" fill="#101D35"/>
<rect x="1617.8" y="191.951" width="2.93397" height="0.572989" fill="#101D35" fill-opacity="0.5"/>
<rect x="1617.8" y="195.962" width="2.93397" height="0.572989" fill="#101D35"/>
<rect x="1617.8" y="195.389" width="2.93397" height="0.572989" fill="#101D35" fill-opacity="0.5"/>
<rect x="1617.8" y="199.4" width="2.93397" height="0.572989" fill="#101D35"/>
<rect x="1617.8" y="198.827" width="2.93397" height="0.572989" fill="#101D35" fill-opacity="0.5"/>
<rect x="1617.8" y="182.784" width="2.93397" height="1.14598" fill="#101D35"/>
<rect x="1617.8" y="181.638" width="2.93397" height="1.14598" fill="#101D35" fill-opacity="0.5"/>
<rect x="1617.8" y="179.346" width="2.93397" height="1.14598" fill="#101D35"/>
<rect x="1617.8" y="178.2" width="2.93397" height="1.14598" fill="#101D35" fill-opacity="0.5"/>
<rect x="1617.8" y="175.908" width="2.93397" height="1.14598" fill="#101D35"/>
<rect x="1617.8" y="174.762" width="2.93397" height="1.14598" fill="#101D35" fill-opacity="0.5"/>
<rect x="1617.8" y="172.47" width="2.93397" height="1.14598" fill="#101D35"/>
<rect x="1617.8" y="171.324" width="2.93397" height="1.14598" fill="#101D35" fill-opacity="0.5"/>
<rect x="1617.8" y="169.032" width="2.93397" height="1.14598" fill="#101D35"/>
<rect x="1617.8" y="167.886" width="2.93397" height="1.14598" fill="#101D35" fill-opacity="0.5"/>
<rect x="1617.8" y="165.594" width="2.93397" height="1.14598" fill="#101D35"/>
<rect x="1617.8" y="164.448" width="2.93397" height="1.14598" fill="#101D35" fill-opacity="0.5"/>
<rect x="1617.8" y="162.156" width="2.93397" height="1.14598" fill="#101D35"/>
<rect x="1617.8" y="161.01" width="2.93397" height="1.14598" fill="#101D35" fill-opacity="0.5"/>
<rect x="1537.11" y="157.374" width="22.0048" height="1.50163" fill="#101D35"/>
<rect x="1537.11" y="152.87" width="22.0048" height="1.50163" fill="#101D35"/>
<rect x="1537.11" y="148.365" width="22.0048" height="1.50163" fill="#101D35"/>
<rect x="1537.11" y="143.859" width="22.0048" height="1.50163" fill="#101D35"/>
<rect x="1537.11" y="139.354" width="22.0048" height="1.50163" fill="#101D35"/>
<rect x="1537.11" y="134.85" width="22.0048" height="1.50163" fill="#101D35"/>
<rect x="1537.11" y="130.345" width="22.0048" height="1.50163" fill="#101D35"/>
<rect x="1537.11" y="125.84" width="22.0048" height="1.50163" fill="#101D35"/>
<rect x="1537.11" y="179.898" width="22.0048" height="1.50163" fill="#101D35"/>
<rect x="1537.11" y="175.394" width="22.0048" height="1.50163" fill="#101D35"/>
<rect x="1537.11" y="170.889" width="22.0048" height="1.50163" fill="#101D35"/>
<rect x="1537.11" y="166.384" width="22.0048" height="1.50163" fill="#101D35"/>
<rect x="1537.11" y="161.879" width="22.0048" height="1.50163" fill="#101D35"/>
<g opacity="0.5">
<rect width="25.55" height="1.14613" transform="matrix(0.999463 -0.0327602 0.0536356 0.998561 1626.49 161.844)" fill="#351020"/>
<rect width="25.55" height="1.14613" transform="matrix(0.999463 -0.0327602 0.0536356 0.998561 1626.43 160.698)" fill="#101D35" fill-opacity="0.5"/>
<rect width="26.4184" height="1.14613" transform="matrix(0.999463 -0.0327602 0.0536356 0.998561 1626.3 158.41)" fill="#351020"/>
<rect width="26.4184" height="1.14613" transform="matrix(0.999463 -0.0327602 0.0536356 0.998561 1626.24 157.264)" fill="#101D35" fill-opacity="0.5"/>
<rect width="26.4184" height="1.14613" transform="matrix(0.999463 -0.0327602 0.0536356 0.998561 1626.12 154.977)" fill="#351020"/>
<rect width="26.4184" height="1.14613" transform="matrix(0.999463 -0.0327602 0.0536356 0.998561 1626.06 153.831)" fill="#101D35" fill-opacity="0.5"/>
<rect width="26.4184" height="1.14613" transform="matrix(0.999463 -0.0327602 0.0536356 0.998561 1625.93 151.543)" fill="#351020"/>
<rect width="26.4184" height="1.14613" transform="matrix(0.999463 -0.0327602 0.0536356 0.998561 1625.87 150.397)" fill="#101D35" fill-opacity="0.5"/>
<rect width="26.4184" height="1.14613" transform="matrix(0.999463 -0.0327602 0.0536356 0.998561 1625.75 148.111)" fill="#351020"/>
<rect width="26.4184" height="1.14613" transform="matrix(0.999463 -0.0327602 0.0536356 0.998561 1625.69 146.964)" fill="#101D35" fill-opacity="0.5"/>
<rect width="26.4184" height="1.14613" transform="matrix(0.999463 -0.0327602 0.0536356 0.998561 1625.57 144.676)" fill="#351020"/>
<rect width="26.4184" height="1.14613" transform="matrix(0.999463 -0.0327602 0.0536356 0.998561 1625.5 143.531)" fill="#101D35" fill-opacity="0.5"/>
<rect width="26.4184" height="1.14613" transform="matrix(0.999463 -0.0327602 0.0536356 0.998561 1625.38 141.242)" fill="#351020"/>
<rect width="26.4184" height="1.14613" transform="matrix(0.999463 -0.0327602 0.0536356 0.998561 1625.32 140.098)" fill="#101D35" fill-opacity="0.5"/>
<rect width="26.4184" height="1.14613" transform="matrix(0.999463 -0.0327602 0.0536356 0.998561 1625.2 137.81)" fill="#351020"/>
<rect width="26.4184" height="1.14613" transform="matrix(0.999463 -0.0327602 0.0536356 0.998561 1625.14 136.664)" fill="#101D35" fill-opacity="0.5"/>
<rect width="23.982" height="1.14613" transform="matrix(0.999463 -0.0327602 0.0536356 0.998561 1627.96 189.311)" fill="#351020"/>
<rect width="23.982" height="1.14613" transform="matrix(0.999463 -0.0327602 0.0536356 0.998561 1627.9 188.166)" fill="#101D35" fill-opacity="0.5"/>
<rect width="23.3445" height="1.13279" transform="matrix(0.999463 -0.0327602 0.0536356 0.998561 1628.15 192.731)" fill="#351020"/>
<rect width="23.3445" height="1.13279" transform="matrix(0.999463 -0.0327602 0.0536356 0.998561 1628.09 191.598)" fill="#101D35" fill-opacity="0.5"/>
<rect width="23.7608" height="0.573066" transform="matrix(0.999463 -0.0327602 0.0536356 0.998561 1628.3 195.605)" fill="#351020"/>
<rect width="23.7608" height="0.573066" transform="matrix(0.999463 -0.0327602 0.0536356 0.998561 1628.27 195.032)" fill="#101D35" fill-opacity="0.5"/>
<rect width="23.4859" height="0.573066" transform="matrix(0.999463 -0.0327602 0.0536356 0.998561 1628.48 199.039)" fill="#351020"/>
<rect width="23.4859" height="0.573066" transform="matrix(0.999463 -0.0327602 0.0536356 0.998561 1628.45 198.465)" fill="#101D35" fill-opacity="0.5"/>
<rect width="23.8363" height="1.15705" transform="matrix(0.999463 -0.0327602 0.0536356 0.998561 1627.78 185.867)" fill="#351020"/>
<rect width="23.8363" height="1.15705" transform="matrix(0.999463 -0.0327602 0.0536356 0.998561 1627.72 184.71)" fill="#101D35" fill-opacity="0.5"/>
<rect width="24.5783" height="1.14613" transform="matrix(0.999463 -0.0327602 0.0536356 0.998561 1627.59 182.444)" fill="#351020"/>
<rect width="24.5783" height="1.14613" transform="matrix(0.999463 -0.0327602 0.0536356 0.998561 1627.53 181.298)" fill="#101D35" fill-opacity="0.5"/>
<rect width="24.6427" height="1.14613" transform="matrix(0.999463 -0.0327602 0.0536356 0.998561 1627.41 179.011)" fill="#351020"/>
<rect width="24.6427" height="1.14613" transform="matrix(0.999463 -0.0327602 0.0536356 0.998561 1627.35 177.865)" fill="#101D35" fill-opacity="0.5"/>
<rect width="24.7409" height="1.14613" transform="matrix(0.999463 -0.0327602 0.0536356 0.998561 1627.23 175.577)" fill="#351020"/>
<rect width="24.7409" height="1.14613" transform="matrix(0.999463 -0.0327602 0.0536356 0.998561 1627.16 174.432)" fill="#101D35" fill-opacity="0.5"/>
<rect width="24.8349" height="1.14613" transform="matrix(0.999463 -0.0327602 0.0536356 0.998561 1627.04 172.144)" fill="#351020"/>
<rect width="24.8349" height="1.14613" transform="matrix(0.999463 -0.0327602 0.0536356 0.998561 1626.98 170.998)" fill="#101D35" fill-opacity="0.5"/>
<rect width="25.0045" height="1.14613" transform="matrix(0.999463 -0.0327602 0.0536356 0.998561 1626.86 168.711)" fill="#351020"/>
<rect width="25.0045" height="1.14613" transform="matrix(0.999463 -0.0327602 0.0536356 0.998561 1626.79 167.564)" fill="#101D35" fill-opacity="0.5"/>
<rect width="25.2794" height="1.14613" transform="matrix(0.999463 -0.0327602 0.0536356 0.998561 1626.67 165.277)" fill="#351020"/>
<rect width="25.2794" height="1.14613" transform="matrix(0.999463 -0.0327602 0.0536356 0.998561 1626.61 164.131)" fill="#101D35" fill-opacity="0.5"/>
</g>
<path d="M1621 133.194L1630 133.194L1630 214.194L1621 214.194L1621 133.194Z" fill="#101D35"/>
<path d="M1621 133.194L1630 133.194L1630 214.194L1621 214.194L1621 133.194Z" fill="url(#paint7_linear)"/>
<path d="M1590 130.194L1618.05 130.194L1621 130.194L1621 132.902L1618.05 132.902L1618.05 218.194L1590 218.194L1590 130.194Z" fill="#101D35"/>
<rect x="992.862" y="135.798" width="5.86795" height="68.7587" fill="#8189AF"/>
<rect x="998.729" y="190.805" width="64.5474" height="80.2185" fill="#2D3F61"/>
<rect x="1198.24" y="85.3755" width="39.6086" height="105.43" fill="#8FE3F0"/>
<rect x="1198.24" y="85.3755" width="39.6086" height="105.43" fill="url(#paint8_linear)"/>
<rect x="1198.24" y="85.3755" width="39.6086" height="105.43" fill="url(#paint9_linear)" fill-opacity="0.5"/>
<path d="M1198.24 79.6455L1237.85 81.9375V91.6783L1198.24 88.2403V79.6455Z" fill="#174461"/>
<rect x="1193.84" y="79.6455" width="5.86795" height="123.766" fill="#101D35"/>
<defs>
<linearGradient id="paint0_linear" x1="1259.12" y1="251.542" x2="1253.29" y2="127.602" gradientUnits="userSpaceOnUse">
<stop stop-color="#564759"/>
<stop offset="1" stop-color="#101D35"/>
</linearGradient>
<linearGradient id="paint1_linear" x1="1323.67" y1="0.573242" x2="1323.22" y2="171.898" gradientUnits="userSpaceOnUse">
<stop offset="0.0520833" stop-color="#AE82A7"/>
<stop offset="0.233678" stop-color="#C1F7FF"/>
<stop offset="0.452334" stop-color="#007A9A"/>
<stop offset="0.596312" stop-color="#C1F7FF"/>
<stop offset="0.727097" stop-color="#1AA9CB"/>
<stop offset="0.973958" stop-color="#AE82A7"/>
</linearGradient>
<linearGradient id="paint2_linear" x1="1243.72" y1="2.86475" x2="1243.72" y2="272.17" gradientUnits="userSpaceOnUse">
<stop stop-color="#101D35"/>
<stop offset="1" stop-color="#816E85"/>
</linearGradient>
<linearGradient id="paint3_linear" x1="1420.49" y1="-17.1898" x2="1418.25" y2="60.7778" gradientUnits="userSpaceOnUse">
<stop offset="0.0520833" stop-color="#1A4FCB"/>
<stop offset="0.454374" stop-color="#1AA9CB"/>
<stop offset="1" stop-color="white" stop-opacity="0"/>
</linearGradient>
<linearGradient id="paint4_linear" x1="1779.9" y1="109.441" x2="1779.9" y2="210.287" gradientUnits="userSpaceOnUse">
<stop/>
<stop offset="1" stop-color="white" stop-opacity="0"/>
</linearGradient>
<linearGradient id="paint5_linear" x1="1584.55" y1="107.955" x2="1584.55" y2="204.216" gradientUnits="userSpaceOnUse">
<stop stop-color="#8EA0F9"/>
<stop offset="1" stop-color="#8FE3F0"/>
</linearGradient>
<linearGradient id="paint6_linear" x1="1532.61" y1="107.63" x2="1532.61" y2="175.725" gradientUnits="userSpaceOnUse">
<stop stop-color="#8EA0F9"/>
<stop offset="1" stop-color="#8FE3F0"/>
</linearGradient>
<linearGradient id="paint7_linear" x1="1648" y1="172.467" x2="1625.5" y2="172.467" gradientUnits="userSpaceOnUse">
<stop stop-color="#174461"/>
<stop offset="1" stop-color="white" stop-opacity="0"/>
</linearGradient>
<linearGradient id="paint8_linear" x1="1218.04" y1="85.3755" x2="1218.04" y2="190.806" gradientUnits="userSpaceOnUse">
<stop stop-color="#007A9A"/>
<stop offset="1" stop-color="white" stop-opacity="0"/>
</linearGradient>
<linearGradient id="paint9_linear" x1="1217.31" y1="193.67" x2="1217.31" y2="111.733" gradientUnits="userSpaceOnUse">
<stop/>
<stop offset="1" stop-color="white" stop-opacity="0"/>
</linearGradient>
</defs>
</svg>
