<svg width="2053" height="565" viewBox="0 0 2053 565" fill="none" xmlns="http://www.w3.org/2000/svg">
<g clip-path="url(#clip0)">
<g filter="url(#filter0_d)">
<path d="M1024.27 254.613C977.587 244.424 955.998 268.288 956.209 288.796C956.209 288.796 837.311 287.249 849.17 355.044C861.029 422.838 972.908 402.45 988.563 391.285C1000.74 419.637 1061.67 445.928 1100.57 406.968C1115.4 409.439 1143.96 426.608 1191.22 398.233C1260.82 446.913 1321.48 411.579 1347.58 386.014C1357.3 384.52 1380.18 377.841 1386.83 373.884C1428.32 349.224 1417.31 284.765 1346.64 294.565C1332.06 273.273 1298.19 270.508 1282.34 270.125C1282.34 194.824 1057.82 166.976 1024.27 254.613Z" fill="#191D4F"/>
<path d="M1024.27 254.613C977.587 244.424 955.998 268.288 956.209 288.796C956.209 288.796 837.311 287.249 849.17 355.044C861.029 422.838 972.908 402.45 988.563 391.285C1000.74 419.637 1061.67 445.928 1100.57 406.968C1115.4 409.439 1143.96 426.608 1191.22 398.233C1260.82 446.913 1321.48 411.579 1347.58 386.014C1357.3 384.52 1380.18 377.841 1386.83 373.884C1428.32 349.224 1417.31 284.765 1346.64 294.565C1332.06 273.273 1298.19 270.508 1282.34 270.125C1282.34 194.824 1057.82 166.976 1024.27 254.613Z" fill="url(#paint0_linear)"/>
</g>
<g filter="url(#filter1_d)">
<path d="M1817.4 260.454C1770.72 250.265 1749.13 274.129 1749.34 294.637C1749.34 294.637 1630.44 293.09 1642.3 360.885C1654.16 428.679 1766.04 408.291 1781.69 397.126C1793.87 425.479 1854.8 451.769 1893.7 412.809C1908.53 415.28 1937.09 432.45 1984.35 404.075C2053.95 452.755 2114.61 417.42 2140.71 391.855C2150.43 390.362 2212.84 379.431 2219.5 375.474C2260.98 350.815 2210.44 290.606 2139.77 300.406C2125.19 279.114 2091.32 276.349 2075.47 275.966C2075.47 200.665 1850.95 172.817 1817.4 260.454Z" fill="#191D4F"/>
<path d="M1817.4 260.454C1770.72 250.265 1749.13 274.129 1749.34 294.637C1749.34 294.637 1630.44 293.09 1642.3 360.885C1654.16 428.679 1766.04 408.291 1781.69 397.126C1793.87 425.479 1854.8 451.769 1893.7 412.809C1908.53 415.28 1937.09 432.45 1984.35 404.075C2053.95 452.755 2114.61 417.42 2140.71 391.855C2150.43 390.362 2212.84 379.431 2219.5 375.474C2260.98 350.815 2210.44 290.606 2139.77 300.406C2125.19 279.114 2091.32 276.349 2075.47 275.966C2075.47 200.665 1850.95 172.817 1817.4 260.454Z" fill="url(#paint1_linear)"/>
</g>
<g filter="url(#filter2_d)">
<path d="M2176.68 386.896C2127.36 378.317 2104.49 399.023 2104.68 416.729C2104.68 416.729 1979.02 415.95 1991.41 474.431C2003.81 532.911 2122.1 514.784 2138.67 505.07C2151.48 529.494 2215.82 551.909 2257.02 518.087C2272.68 520.152 2302.83 534.843 2352.84 510.122C2426.3 551.828 2490.49 521.035 2518.12 498.84C2528.4 497.505 2552.59 491.63 2559.63 488.183C2603.52 466.697 2592.02 411.092 2517.31 419.884C2501.94 401.568 2466.15 399.339 2449.4 399.082C2449.55 334.065 2212.31 311.071 2176.68 386.896Z" fill="#191D4F"/>
<path d="M2176.68 386.896C2127.36 378.317 2104.49 399.023 2104.68 416.729C2104.68 416.729 1979.02 415.95 1991.41 474.431C2003.81 532.911 2122.1 514.784 2138.67 505.07C2151.48 529.494 2215.82 551.909 2257.02 518.087C2272.68 520.152 2302.83 534.843 2352.84 510.122C2426.3 551.828 2490.49 521.035 2518.12 498.84C2528.4 497.505 2552.59 491.63 2559.63 488.183C2603.52 466.697 2592.02 411.092 2517.31 419.884C2501.94 401.568 2466.15 399.339 2449.4 399.082C2449.55 334.065 2212.31 311.071 2176.68 386.896Z" fill="url(#paint2_linear)"/>
</g>
<g filter="url(#filter3_d)">
<path d="M1538.56 287.606C1490.68 277.446 1468.53 301.324 1468.74 321.831C1468.74 321.831 1346.8 320.358 1358.95 388.146C1371.09 455.934 1485.84 435.476 1501.9 424.301C1514.39 452.647 1576.86 478.899 1616.77 439.915C1631.98 442.377 1661.27 459.529 1709.74 431.125C1781.11 479.762 1843.34 444.389 1870.11 418.808C1880.08 417.309 1929.67 435.085 1936.5 431.125C1979.05 406.439 1936.5 334.475 1869.17 327.359C1854.22 306.076 1819.49 303.332 1803.23 302.959C1803.25 227.657 1572.99 199.948 1538.56 287.606Z" fill="#191D4F"/>
<path d="M1538.56 287.606C1490.68 277.446 1468.53 301.324 1468.74 321.831C1468.74 321.831 1346.8 320.358 1358.95 388.146C1371.09 455.934 1485.84 435.476 1501.9 424.301C1514.39 452.647 1576.86 478.899 1616.77 439.915C1631.98 442.377 1661.27 459.529 1709.74 431.125C1781.11 479.762 1843.34 444.389 1870.11 418.808C1880.08 417.309 1929.67 435.085 1936.5 431.125C1979.05 406.439 1936.5 334.475 1869.17 327.359C1854.22 306.076 1819.49 303.332 1803.23 302.959C1803.25 227.657 1572.99 199.948 1538.56 287.606Z" fill="url(#paint3_linear)"/>
</g>
<g filter="url(#filter4_d)">
<path d="M297.391 287.884C250.698 277.651 229.118 301.493 229.338 322.001C229.338 322.001 110.437 320.341 122.325 388.145C134.214 455.949 246.086 435.668 261.736 424.518C273.929 452.882 334.867 479.229 373.753 440.308C388.579 442.793 417.15 459.989 464.4 431.66C534.021 480.405 594.669 445.129 620.759 419.59C630.474 418.106 653.352 411.448 660.006 407.498C701.478 382.878 690.444 318.41 619.778 328.142C605.186 306.837 571.318 304.04 555.463 303.641C555.431 228.343 330.902 200.281 297.391 287.884Z" fill="#191D4F"/>
<path d="M297.391 287.884C250.698 277.651 229.118 301.493 229.338 322.001C229.338 322.001 110.437 320.341 122.325 388.145C134.214 455.949 246.086 435.668 261.736 424.518C273.929 452.882 334.867 479.229 373.753 440.308C388.579 442.793 417.15 459.989 464.4 431.66C534.021 480.405 594.669 445.129 620.759 419.59C630.474 418.106 653.352 411.448 660.006 407.498C701.478 382.878 690.444 318.41 619.778 328.142C605.186 306.837 571.318 304.04 555.463 303.641C555.431 228.343 330.902 200.281 297.391 287.884Z" fill="url(#paint4_linear)"/>
</g>
<g filter="url(#filter5_d)">
<path d="M609.999 326.66C563.311 316.471 541.722 340.335 541.933 360.843C541.933 360.843 423.035 359.296 434.894 427.091C446.753 494.885 558.632 474.497 574.287 463.332C586.468 491.685 647.393 517.975 686.296 479.015C701.121 481.486 729.684 498.656 776.944 470.281C846.543 518.961 900.636 448.045 932.364 479.015C942.079 477.521 1056.63 431.047 1063.28 427.091C1104.77 402.431 1003.03 356.812 932.364 366.612C917.781 345.32 883.915 342.555 868.061 342.172C868.06 266.871 643.547 239.023 609.999 326.66Z" fill="#191D4F"/>
<path d="M609.999 326.66C563.311 316.471 541.722 340.335 541.933 360.843C541.933 360.843 423.035 359.296 434.894 427.091C446.753 494.885 558.632 474.497 574.287 463.332C586.468 491.685 647.393 517.975 686.296 479.015C701.121 481.486 729.684 498.656 776.944 470.281C846.543 518.961 900.636 448.045 932.364 479.015C942.079 477.521 1056.63 431.047 1063.28 427.091C1104.77 402.431 1003.03 356.812 932.364 366.612C917.781 345.32 883.915 342.555 868.061 342.172C868.06 266.871 643.547 239.023 609.999 326.66Z" fill="url(#paint5_linear)"/>
</g>
<g filter="url(#filter6_d)">
<path d="M1233.18 364.383C1190.54 351.116 1105.55 376.475 1104.87 396.967C1104.87 396.967 908.17 403.646 916.209 472.125C924.248 540.605 1168.49 517.606 1183.41 507.495C1193.43 536.612 1259.49 557.891 1297.05 521.566C1310.62 525.015 1336.24 544.051 1381.06 518.849C1443.19 572.067 1500.67 540.804 1525.85 517.006C1534.87 516.158 1556.27 511.004 1562.58 507.495C1601.91 485.619 1594.51 420.527 1528.89 425.63C1516.35 403.404 1485.22 398.399 1470.61 396.967C1440.56 261.848 1267.88 279.098 1233.18 364.383Z" fill="#191D4F"/>
<path d="M1233.18 364.383C1190.54 351.116 1105.55 376.475 1104.87 396.967C1104.87 396.967 908.17 403.646 916.209 472.125C924.248 540.605 1168.49 517.606 1183.41 507.495C1193.43 536.612 1259.49 557.891 1297.05 521.566C1310.62 525.015 1336.24 544.051 1381.06 518.849C1443.19 572.067 1500.67 540.804 1525.85 517.006C1534.87 516.158 1556.27 511.004 1562.58 507.495C1601.91 485.619 1594.51 420.527 1528.89 425.63C1516.35 403.404 1485.22 398.399 1470.61 396.967C1440.56 261.848 1267.88 279.098 1233.18 364.383Z" fill="url(#paint6_linear)"/>
</g>
<g filter="url(#filter7_d)">
<path d="M425.114 412.958C386.824 402.244 368.119 419.889 367.578 436.12C367.578 436.12 269.212 428.133 276.662 482.424C284.112 536.715 377.433 526.955 390.782 519.016C399.874 542.132 449.388 566.39 482.951 537.791C495.136 540.589 518.18 555.793 558.292 536.041C614.204 578.5 665.652 554.006 688.15 535.272C696.244 534.644 715.416 530.663 721.064 527.912C756.262 510.77 749.402 459.165 690.562 462.895C679.235 445.226 651.298 441.112 638.188 439.907C610.762 332.716 455.944 345.558 425.114 412.958Z" fill="#191D4F"/>
<path d="M425.114 412.958C386.824 402.244 368.119 419.889 367.578 436.12C367.578 436.12 269.212 428.133 276.662 482.424C284.112 536.715 377.433 526.955 390.782 519.016C399.874 542.132 449.388 566.39 482.951 537.791C495.136 540.589 518.18 555.793 558.292 536.041C614.204 578.5 665.652 554.006 688.15 535.272C696.244 534.644 715.416 530.663 721.064 527.912C756.262 510.77 749.402 459.165 690.562 462.895C679.235 445.226 651.298 441.112 638.188 439.907C610.762 332.716 455.944 345.558 425.114 412.958Z" fill="url(#paint7_linear)"/>
</g>
<rect x="1195.31" y="146.685" width="20.5378" height="14.8977" rx="4" fill="#101D35"/>
<rect x="1186.5" y="165.021" width="38.1417" height="3.43794" rx="1.71897" fill="#101D35"/>
<rect x="1186.5" y="165.021" width="38.1417" height="3.43794" rx="1.71897" fill="url(#paint8_radial)"/>
<rect x="1186.5" y="159.291" width="38.1417" height="5.72989" rx="2.86495" fill="#101D35"/>
<rect x="1186.5" y="159.291" width="38.1417" height="5.72989" rx="2.86495" fill="url(#paint9_radial)"/>
<path d="M1226.11 183.357C1218.48 182.44 1196.04 182.211 1186.5 183.357C1179.9 186.795 1182.84 190.042 1186.5 190.806H1226.11C1229.05 189.66 1231.98 186.795 1226.11 183.357Z" fill="#712D63"/>
<path d="M1226.11 183.357C1218.48 182.44 1196.04 182.211 1186.5 183.357C1179.9 186.795 1182.84 190.042 1186.5 190.806H1226.11C1229.05 189.66 1231.98 186.795 1226.11 183.357Z" fill="url(#paint10_radial)"/>
<rect x="1180.64" y="168.459" width="49.8776" height="11.4598" rx="4" fill="#101D35"/>
<rect x="1180.64" y="168.459" width="49.8776" height="11.4598" rx="4" fill="url(#paint11_radial)"/>
<rect x="1196.77" y="191.378" width="14.6699" height="176.481" fill="#1E324F"/>
<rect x="1205.57" width="1.46699" height="35.5253" fill="#1E324F"/>
<path d="M1204.11 39.0742V53.2696V53.861H1208.51V39.0742H1207.41V35.5254H1205.21V39.0742H1204.11Z" fill="url(#paint12_linear)"/>
<rect x="1199.71" y="95.1162" width="13.2029" height="53.861" fill="#1E233E"/>
<path d="M1202.64 52.7148H1209.98V87.0942L1214.38 89.3862V95.1161H1198.24V89.3862L1202.64 87.0942V52.7148Z" fill="#203A5F"/>
<rect x="1211.44" y="191.378" width="2.93397" height="100" fill="#8FE3F0"/>
<rect x="1211.44" y="191.378" width="2.93397" height="100" fill="url(#paint13_linear)"/>
<path d="M1186.5 183.357L1182.84 181.065C1184.6 179.231 1218.04 177.627 1229.05 181.065L1225.38 183.357C1222.45 180.492 1190.17 180.492 1186.5 183.357Z" fill="url(#paint14_radial)"/>
<rect x="1193.84" y="328.896" width="29.3397" height="10.3138" fill="#324F7B"/>
<rect x="1193.84" y="328.896" width="29.3397" height="10.3138" fill="url(#paint15_linear)"/>
<rect x="1226.11" y="328.896" width="19.0708" height="10.3138" fill="#0E213E"/>
<rect x="1223.18" y="328.896" width="2.93397" height="10.3138" fill="#8189AF"/>
</g>
<defs>
<filter id="filter0_d" x="844.338" y="200.205" width="570.657" height="234.419" filterUnits="userSpaceOnUse" color-interpolation-filters="sRGB">
<feFlood flood-opacity="0" result="BackgroundImageFix"/>
<feColorMatrix in="SourceAlpha" type="matrix" values="0 0 0 0 0 0 0 0 0 0 0 0 0 0 0 0 0 0 127 0"/>
<feOffset dy="4"/>
<feGaussianBlur stdDeviation="2"/>
<feColorMatrix type="matrix" values="0 0 0 0 0 0 0 0 0 0 0 0 0 0 0 0 0 0 0.25 0"/>
<feBlend mode="normal" in2="BackgroundImageFix" result="effect1_dropShadow"/>
<feBlend mode="normal" in="SourceGraphic" in2="effect1_dropShadow" result="shape"/>
</filter>
<filter id="filter1_d" x="1637.47" y="206.046" width="601.012" height="234.419" filterUnits="userSpaceOnUse" color-interpolation-filters="sRGB">
<feFlood flood-opacity="0" result="BackgroundImageFix"/>
<feColorMatrix in="SourceAlpha" type="matrix" values="0 0 0 0 0 0 0 0 0 0 0 0 0 0 0 0 0 0 127 0"/>
<feOffset dy="4"/>
<feGaussianBlur stdDeviation="2"/>
<feColorMatrix type="matrix" values="0 0 0 0 0 0 0 0 0 0 0 0 0 0 0 0 0 0 0.25 0"/>
<feBlend mode="normal" in2="BackgroundImageFix" result="effect1_dropShadow"/>
<feBlend mode="normal" in="SourceGraphic" in2="effect1_dropShadow" result="shape"/>
</filter>
<filter id="filter2_d" x="1986.55" y="339.362" width="602.695" height="203.92" filterUnits="userSpaceOnUse" color-interpolation-filters="sRGB">
<feFlood flood-opacity="0" result="BackgroundImageFix"/>
<feColorMatrix in="SourceAlpha" type="matrix" values="0 0 0 0 0 0 0 0 0 0 0 0 0 0 0 0 0 0 127 0"/>
<feOffset dy="4"/>
<feGaussianBlur stdDeviation="2"/>
<feColorMatrix type="matrix" values="0 0 0 0 0 0 0 0 0 0 0 0 0 0 0 0 0 0 0.25 0"/>
<feBlend mode="normal" in2="BackgroundImageFix" result="effect1_dropShadow"/>
<feBlend mode="normal" in="SourceGraphic" in2="effect1_dropShadow" result="shape"/>
</filter>
<filter id="filter3_d" x="1354.1" y="233.125" width="603.455" height="234.476" filterUnits="userSpaceOnUse" color-interpolation-filters="sRGB">
<feFlood flood-opacity="0" result="BackgroundImageFix"/>
<feColorMatrix in="SourceAlpha" type="matrix" values="0 0 0 0 0 0 0 0 0 0 0 0 0 0 0 0 0 0 127 0"/>
<feOffset dy="4"/>
<feGaussianBlur stdDeviation="2"/>
<feColorMatrix type="matrix" values="0 0 0 0 0 0 0 0 0 0 0 0 0 0 0 0 0 0 0.25 0"/>
<feBlend mode="normal" in2="BackgroundImageFix" result="effect1_dropShadow"/>
<feBlend mode="normal" in="SourceGraphic" in2="effect1_dropShadow" result="shape"/>
</filter>
<filter id="filter4_d" x="117.49" y="233.589" width="570.661" height="234.328" filterUnits="userSpaceOnUse" color-interpolation-filters="sRGB">
<feFlood flood-opacity="0" result="BackgroundImageFix"/>
<feColorMatrix in="SourceAlpha" type="matrix" values="0 0 0 0 0 0 0 0 0 0 0 0 0 0 0 0 0 0 127 0"/>
<feOffset dy="4"/>
<feGaussianBlur stdDeviation="2"/>
<feColorMatrix type="matrix" values="0 0 0 0 0 0 0 0 0 0 0 0 0 0 0 0 0 0 0.25 0"/>
<feBlend mode="normal" in2="BackgroundImageFix" result="effect1_dropShadow"/>
<feBlend mode="normal" in="SourceGraphic" in2="effect1_dropShadow" result="shape"/>
</filter>
<filter id="filter5_d" x="430.062" y="272.252" width="646.849" height="234.419" filterUnits="userSpaceOnUse" color-interpolation-filters="sRGB">
<feFlood flood-opacity="0" result="BackgroundImageFix"/>
<feColorMatrix in="SourceAlpha" type="matrix" values="0 0 0 0 0 0 0 0 0 0 0 0 0 0 0 0 0 0 127 0"/>
<feOffset dy="4"/>
<feGaussianBlur stdDeviation="2"/>
<feColorMatrix type="matrix" values="0 0 0 0 0 0 0 0 0 0 0 0 0 0 0 0 0 0 0.25 0"/>
<feBlend mode="normal" in2="BackgroundImageFix" result="effect1_dropShadow"/>
<feBlend mode="normal" in="SourceGraphic" in2="effect1_dropShadow" result="shape"/>
</filter>
<filter id="filter6_d" x="911.969" y="297.923" width="678.643" height="258.123" filterUnits="userSpaceOnUse" color-interpolation-filters="sRGB">
<feFlood flood-opacity="0" result="BackgroundImageFix"/>
<feColorMatrix in="SourceAlpha" type="matrix" values="0 0 0 0 0 0 0 0 0 0 0 0 0 0 0 0 0 0 127 0"/>
<feOffset dy="4"/>
<feGaussianBlur stdDeviation="2"/>
<feColorMatrix type="matrix" values="0 0 0 0 0 0 0 0 0 0 0 0 0 0 0 0 0 0 0.25 0"/>
<feBlend mode="normal" in2="BackgroundImageFix" result="effect1_dropShadow"/>
<feBlend mode="normal" in="SourceGraphic" in2="effect1_dropShadow" result="shape"/>
</filter>
<filter id="filter7_d" x="272.259" y="360.854" width="474.219" height="206.66" filterUnits="userSpaceOnUse" color-interpolation-filters="sRGB">
<feFlood flood-opacity="0" result="BackgroundImageFix"/>
<feColorMatrix in="SourceAlpha" type="matrix" values="0 0 0 0 0 0 0 0 0 0 0 0 0 0 0 0 0 0 127 0"/>
<feOffset dy="4"/>
<feGaussianBlur stdDeviation="2"/>
<feColorMatrix type="matrix" values="0 0 0 0 0 0 0 0 0 0 0 0 0 0 0 0 0 0 0.25 0"/>
<feBlend mode="normal" in2="BackgroundImageFix" result="effect1_dropShadow"/>
<feBlend mode="normal" in="SourceGraphic" in2="effect1_dropShadow" result="shape"/>
</filter>
<linearGradient id="paint0_linear" x1="1331.8" y1="130.524" x2="1097.25" y2="578.519" gradientUnits="userSpaceOnUse">
<stop stop-color="#8FE3F0"/>
<stop offset="0.901042" stop-color="white" stop-opacity="0"/>
</linearGradient>
<linearGradient id="paint1_linear" x1="2124.93" y1="136.365" x2="1890.38" y2="584.36" gradientUnits="userSpaceOnUse">
<stop stop-color="#8FE3F0"/>
<stop offset="0.901042" stop-color="white" stop-opacity="0"/>
</linearGradient>
<linearGradient id="paint2_linear" x1="2501.95" y1="278.315" x2="2324.74" y2="696.553" gradientUnits="userSpaceOnUse">
<stop stop-color="#8FE3F0"/>
<stop offset="0.901042" stop-color="white" stop-opacity="0"/>
</linearGradient>
<linearGradient id="paint3_linear" x1="1853.99" y1="163.326" x2="1622.96" y2="616.383" gradientUnits="userSpaceOnUse">
<stop stop-color="#C1F7FF"/>
<stop offset="0.901042" stop-color="white" stop-opacity="0"/>
</linearGradient>
<linearGradient id="paint4_linear" x1="604.865" y1="164.091" x2="370.169" y2="611.675" gradientUnits="userSpaceOnUse">
<stop stop-color="#8FE3F0"/>
<stop offset="0.901042" stop-color="white" stop-opacity="0"/>
</linearGradient>
<linearGradient id="paint5_linear" x1="917.52" y1="202.571" x2="682.974" y2="650.566" gradientUnits="userSpaceOnUse">
<stop stop-color="#C1F7FF"/>
<stop offset="0.901042" stop-color="white" stop-opacity="0"/>
</linearGradient>
<linearGradient id="paint6_linear" x1="1429.05" y1="285.191" x2="1252.81" y2="637.306" gradientUnits="userSpaceOnUse">
<stop stop-color="#8FE3F0"/>
<stop offset="0.901042" stop-color="white" stop-opacity="0"/>
</linearGradient>
<linearGradient id="paint7_linear" x1="579.799" y1="351.044" x2="473.694" y2="645.886" gradientUnits="userSpaceOnUse">
<stop stop-color="#8FE3F0"/>
<stop offset="0.901042" stop-color="white" stop-opacity="0"/>
</linearGradient>
<radialGradient id="paint8_radial" cx="0" cy="0" r="1" gradientUnits="userSpaceOnUse" gradientTransform="translate(1207.04 166.167) rotate(-94.3063) scale(19.5368 14.4473)">
<stop offset="0.0343862" stop-color="#9AA7E5"/>
<stop offset="0.380208" stop-color="#AE82A7"/>
<stop offset="0.916667" stop-color="#AE82A7" stop-opacity="0"/>
</radialGradient>
<radialGradient id="paint9_radial" cx="0" cy="0" r="1" gradientUnits="userSpaceOnUse" gradientTransform="translate(1221.84 162.156) rotate(171.202) scale(18.7303 11.6493)">
<stop stop-color="#EE8771"/>
<stop offset="0.380208" stop-color="#AE82A7"/>
<stop offset="0.916667" stop-color="#AE82A7" stop-opacity="0"/>
</radialGradient>
<radialGradient id="paint10_radial" cx="0" cy="0" r="1" gradientUnits="userSpaceOnUse" gradientTransform="translate(1217.31 184.503) rotate(139.043) scale(17.4826 77.5697)">
<stop offset="0.0812256" stop-color="#8FE3F0"/>
<stop offset="1" stop-color="white" stop-opacity="0"/>
</radialGradient>
<radialGradient id="paint11_radial" cx="0" cy="0" r="1" gradientUnits="userSpaceOnUse" gradientTransform="translate(1226.85 174.189) rotate(166.682) scale(24.8742 22.9421)">
<stop stop-color="#8FE3F0"/>
<stop offset="0.380208" stop-color="#AE82A7"/>
<stop offset="0.916667" stop-color="#AE82A7" stop-opacity="0"/>
</radialGradient>
<linearGradient id="paint12_linear" x1="1206.31" y1="35.5254" x2="1206.31" y2="53.861" gradientUnits="userSpaceOnUse">
<stop stop-color="#101D35"/>
<stop offset="1" stop-color="#E27694"/>
</linearGradient>
<linearGradient id="paint13_linear" x1="1211.44" y1="288.187" x2="1211.44" y2="198.825" gradientUnits="userSpaceOnUse">
<stop stop-color="#1A4FCB"/>
<stop offset="1" stop-color="white" stop-opacity="0"/>
</linearGradient>
<radialGradient id="paint14_radial" cx="0" cy="0" r="1" gradientUnits="userSpaceOnUse" gradientTransform="translate(1205.94 181.2) rotate(90) scale(2.15633 23.105)">
<stop stop-color="#1AA9CB"/>
<stop offset="1" stop-color="#8FE3F0"/>
</radialGradient>
<linearGradient id="paint15_linear" x1="1226.85" y1="338.637" x2="1205.58" y2="338.637" gradientUnits="userSpaceOnUse">
<stop stop-color="#556B94"/>
<stop offset="1" stop-color="white" stop-opacity="0"/>
</linearGradient>
<clipPath id="clip0">
<rect width="2053" height="565" fill="white"/>
</clipPath>
</defs>
</svg>
