<svg width="1400" height="300" viewBox="0 0 1400 300" fill="none" xmlns="http://www.w3.org/2000/svg">
<path d="M89.0692 238.408L68.3064 244.291L68.2853 236.89L46.1214 223.567L50.5375 219.866L45.0526 207.448L56.8651 206.633L58.8305 201.967L71.8528 209.77L65.4881 186.998L72.7861 188.714L78.4519 173.664L78.4161 173.444L78.4971 173.543L78.5423 173.423L78.5781 173.643L88.7293 186.116L95.1052 182.172L96.2997 205.786L106.17 194.251L109.515 198.051L120.975 195.074L119.717 208.591L125.08 210.698L108.294 230.368L110.624 237.394L89.0692 238.408Z" fill="#1AA9CB"/>
<path d="M1083.08 102.974L1061.52 101.929L1063.86 94.907L1047.11 75.2123L1052.47 73.1131L1051.23 59.594L1062.69 62.5879L1066.04 58.7926L1075.89 70.3405L1077.12 46.7282L1083.49 50.6814L1093.66 38.2233L1093.7 38.0036L1093.74 38.1236L1093.82 38.0244L1093.79 38.2441L1099.43 53.3031L1106.73 51.5977L1100.33 74.36L1113.37 66.5746L1115.33 71.243L1127.14 72.0755L1121.64 84.4859L1126.05 88.1928L1103.86 101.484L1103.83 108.885L1083.08 102.974Z" fill="#1AA9CB"/>
<path fill-rule="evenodd" clip-rule="evenodd" d="M1306.01 175.58C1302.91 174.791 1299.18 177.009 1298.39 180.103L1284.58 234.274C1283.79 237.369 1286.01 241.104 1289.1 241.893L1343.27 255.704C1346.37 256.493 1350.1 254.275 1350.89 251.181L1364.7 197.01C1365.49 193.915 1363.28 190.18 1360.18 189.391L1306.01 175.58ZM1292.79 178.675C1294.37 172.485 1301.25 168.398 1307.44 169.976L1361.61 183.787C1367.8 185.365 1371.89 192.249 1370.31 198.438L1356.5 252.609C1354.92 258.799 1348.04 262.886 1341.85 261.307L1287.67 247.497C1281.48 245.919 1277.4 239.035 1278.98 232.846L1292.79 178.675Z" fill="#1AA9CB"/>
<path fill-rule="evenodd" clip-rule="evenodd" d="M303.834 49.8626C300.684 50.387 298.159 53.9207 298.683 57.0713L307.862 112.216C308.387 115.367 311.921 117.892 315.071 117.367L370.216 108.188C373.367 107.664 375.892 104.13 375.367 100.979L366.188 45.8345C365.663 42.6839 362.13 40.1587 358.979 40.6832L303.834 49.8626ZM292.978 58.0209C291.929 51.7197 296.583 45.2068 302.885 44.1579L358.03 34.9785C364.331 33.9296 370.844 38.5837 371.892 44.8849L381.072 100.03C382.121 106.331 377.467 112.844 371.166 113.893L316.021 123.072C309.72 124.121 303.207 119.467 302.158 113.166L292.978 58.0209Z" fill="#1AA9CB"/>
</svg>
