<svg width="1698" height="595" viewBox="0 0 1698 595" fill="none" xmlns="http://www.w3.org/2000/svg">
<g clip-path="url(#clip0)">
<g filter="url(#filter0_d)">
<path d="M335.253 402.658C290.781 396.662 270.216 410.706 270.417 422.775C270.417 422.775 157.16 421.865 168.457 461.763C179.753 501.661 286.324 489.663 301.236 483.092C312.839 499.778 370.873 515.25 407.93 492.321C422.052 493.776 449.26 503.88 494.278 487.181C560.575 515.83 618.358 495.035 643.221 479.99C652.475 479.111 674.27 475.18 680.609 472.851C720.123 458.339 709.639 420.403 642.323 426.171C628.432 413.64 596.173 412.013 581.071 411.787C581.07 367.472 367.21 351.083 335.253 402.658Z" fill="#8189AF"/>
<path d="M335.253 402.658C290.781 396.662 270.216 410.706 270.417 422.775C270.417 422.775 157.16 421.865 168.457 461.763C179.753 501.661 286.324 489.663 301.236 483.092C312.839 499.778 370.873 515.25 407.93 492.321C422.052 493.776 449.26 503.88 494.278 487.181C560.575 515.83 618.358 495.035 643.221 479.99C652.475 479.111 674.27 475.18 680.609 472.851C720.123 458.339 709.639 420.403 642.323 426.171C628.432 413.64 596.173 412.013 581.071 411.787C581.07 367.472 367.21 351.083 335.253 402.658Z" fill="url(#paint0_linear)"/>
</g>
<g filter="url(#filter1_d)">
<path d="M1320.92 397.193C1282.34 389.78 1264.59 406.523 1264.83 420.999C1264.83 420.999 1166.64 419.345 1176.65 467.254C1186.67 515.163 1287.91 507.165 1300.8 499.358C1310.95 519.429 1352.43 532.41 1384.43 505.094C1396.68 506.909 1420.32 519.163 1459.25 499.358C1516.89 534.048 1566.86 509.394 1588.33 491.473C1596.35 490.464 1615.22 485.858 1620.71 483.097C1654.88 465.887 1645.58 420.336 1587.26 426.918C1575.15 411.82 1547.17 409.708 1534.08 409.363C1533.83 356.212 1348.34 335.493 1320.92 397.193Z" fill="#8189AF"/>
<path d="M1320.92 397.193C1282.34 389.78 1264.59 406.523 1264.83 420.999C1264.83 420.999 1166.64 419.345 1176.65 467.254C1186.67 515.163 1287.91 507.165 1300.8 499.358C1310.95 519.429 1352.43 532.41 1384.43 505.094C1396.68 506.909 1420.32 519.163 1459.25 499.358C1516.89 534.048 1566.86 509.394 1588.33 491.473C1596.35 490.464 1615.22 485.858 1620.71 483.097C1654.88 465.887 1645.58 420.336 1587.26 426.918C1575.15 411.82 1547.17 409.708 1534.08 409.363C1533.83 356.212 1348.34 335.493 1320.92 397.193Z" fill="url(#paint1_linear)"/>
</g>
<g filter="url(#filter2_d)">
<path d="M876.418 441.356C831.928 434.348 814.185 447.508 814.417 461.411C814.417 461.411 704.395 472.058 715.794 518.042C727.192 564.027 833.736 550.447 848.632 542.912C860.278 562.159 918.353 580.113 955.353 553.786C969.479 555.493 996.714 567.194 1041.69 548.061C1108.06 581.212 1165.8 557.389 1190.62 540.115C1199.87 539.123 1239.58 542.783 1245.92 540.115C1285.4 523.487 1256.89 471.627 1189.59 478.118C1175.66 463.652 1143.4 461.705 1128.3 461.411C1128.18 410.363 908.244 382.019 876.418 441.356Z" fill="#8189AF"/>
<path d="M876.418 441.356C831.928 434.348 814.185 447.508 814.417 461.411C814.417 461.411 704.395 472.058 715.794 518.042C727.192 564.027 833.736 550.447 848.632 542.912C860.278 562.159 918.353 580.113 955.353 553.786C969.479 555.493 996.714 567.194 1041.69 548.061C1108.06 581.212 1165.8 557.389 1190.62 540.115C1199.87 539.123 1239.58 542.783 1245.92 540.115C1285.4 523.487 1256.89 471.627 1189.59 478.118C1175.66 463.652 1143.4 461.705 1128.3 461.411C1128.18 410.363 908.244 382.019 876.418 441.356Z" fill="url(#paint2_linear)"/>
</g>
<g filter="url(#filter3_d)">
<path d="M15.2532 401.939C-29.2191 395.943 -49.7843 409.988 -49.5829 422.057C-49.5829 422.057 -162.84 421.146 -151.543 461.045C-140.247 500.943 -33.676 488.944 -18.7638 482.373C-7.16121 499.059 50.8733 532.102 87.9299 509.173C102.052 510.627 129.26 520.732 174.278 504.033C240.575 532.682 292.101 506.446 322.323 524.673C331.577 523.794 455.164 480.502 461.503 478.173C501.017 463.66 389.639 419.685 322.323 425.452C308.432 412.921 276.173 411.294 261.071 411.069C261.07 366.753 47.2096 350.364 15.2532 401.939Z" fill="#8189AF"/>
<path d="M15.2532 401.939C-29.2191 395.943 -49.7843 409.988 -49.5829 422.057C-49.5829 422.057 -162.84 421.146 -151.543 461.045C-140.247 500.943 -33.676 488.944 -18.7638 482.373C-7.16121 499.059 50.8733 532.102 87.9299 509.173C102.052 510.627 129.26 520.732 174.278 504.033C240.575 532.682 292.101 506.446 322.323 524.673C331.577 523.794 455.164 480.502 461.503 478.173C501.017 463.66 389.639 419.685 322.323 425.452C308.432 412.921 276.173 411.294 261.071 411.069C261.07 366.753 47.2096 350.364 15.2532 401.939Z" fill="url(#paint3_linear)"/>
</g>
<g filter="url(#filter4_d)">
<path d="M536.304 448.421C495.687 440.614 414.732 455.538 414.081 467.598C414.081 467.598 226.718 471.528 234.376 511.83C242.033 552.131 474.684 538.596 488.898 532.645C498.446 549.781 561.365 562.304 597.144 540.926C610.073 542.956 634.476 554.159 677.169 539.327C736.351 570.647 791.106 552.248 815.088 538.243C823.687 537.744 844.068 534.711 850.079 532.645C887.542 519.771 880.498 481.463 817.989 484.467C806.042 471.386 776.391 468.441 762.472 467.598C733.847 388.078 569.362 398.23 536.304 448.421Z" fill="#8189AF"/>
<path d="M536.304 448.421C495.687 440.614 414.732 455.538 414.081 467.598C414.081 467.598 226.718 471.528 234.376 511.83C242.033 552.131 474.684 538.596 488.898 532.645C498.446 549.781 561.365 562.304 597.144 540.926C610.073 542.956 634.476 554.159 677.169 539.327C736.351 570.647 791.106 552.248 815.088 538.243C823.687 537.744 844.068 534.711 850.079 532.645C887.542 519.771 880.498 481.463 817.989 484.467C806.042 471.386 776.391 468.441 762.472 467.598C733.847 388.078 569.362 398.23 536.304 448.421Z" fill="url(#paint4_linear)"/>
</g>
<g filter="url(#filter5_d)">
<path d="M-211.061 445.848C-247.535 439.542 -265.352 449.927 -265.867 459.479C-265.867 459.479 -359.566 454.778 -352.47 486.729C-345.374 518.68 -256.48 512.937 -243.765 508.264C-235.103 521.868 -187.939 536.145 -155.969 519.314C-144.362 520.96 -122.411 529.908 -84.2026 518.284C-30.9432 543.271 18.0635 528.856 39.494 517.831C47.2042 517.461 65.467 515.119 70.8464 513.5C104.375 503.411 97.8401 473.041 41.792 475.236C31.002 464.838 4.39125 462.417 -8.09751 461.708C-34.222 398.624 -181.694 406.181 -211.061 445.848Z" fill="#8189AF"/>
<path d="M-211.061 445.848C-247.535 439.542 -265.352 449.927 -265.867 459.479C-265.867 459.479 -359.566 454.778 -352.47 486.729C-345.374 518.68 -256.48 512.937 -243.765 508.264C-235.103 521.868 -187.939 536.145 -155.969 519.314C-144.362 520.96 -122.411 529.908 -84.2026 518.284C-30.9432 543.271 18.0635 528.856 39.494 517.831C47.2042 517.461 65.467 515.119 70.8464 513.5C104.375 503.411 97.8401 473.041 41.792 475.236C31.002 464.838 4.39125 462.417 -8.09751 461.708C-34.222 398.624 -181.694 406.181 -211.061 445.848Z" fill="url(#paint5_linear)"/>
</g>
<g filter="url(#filter6_d)">
<path d="M1329.14 477.332C1284.7 470.455 1264.2 486.248 1264.44 499.866C1264.44 499.866 1151.31 498.553 1162.71 543.596C1174.11 588.64 1280.52 575.371 1295.4 567.995C1307.03 586.85 1365.05 604.453 1401.99 578.678C1416.1 580.354 1443.31 591.823 1488.22 573.096C1554.53 605.586 1612.18 582.27 1636.97 565.358C1646.21 564.39 1667.97 560.01 1674.3 557.399C1713.72 541.124 1703.14 498.298 1635.92 504.635C1622.01 490.462 1589.78 488.545 1574.69 488.252C1574.56 438.253 1360.91 419.223 1329.14 477.332Z" fill="#8189AF"/>
<path d="M1329.14 477.332C1284.7 470.455 1264.2 486.248 1264.44 499.866C1264.44 499.866 1151.31 498.553 1162.71 543.596C1174.11 588.64 1280.52 575.371 1295.4 567.995C1307.03 586.85 1365.05 604.453 1401.99 578.678C1416.1 580.354 1443.31 591.823 1488.22 573.096C1554.53 605.586 1612.18 582.27 1636.97 565.358C1646.21 564.39 1667.97 560.01 1674.3 557.399C1713.72 541.124 1703.14 498.298 1635.92 504.635C1622.01 490.462 1589.78 488.545 1574.69 488.252C1574.56 438.253 1360.91 419.223 1329.14 477.332Z" fill="url(#paint6_linear)"/>
</g>
<g filter="url(#filter7_d)">
<path d="M1576.84 412.539C1532.4 405.662 1511.9 421.455 1512.13 435.073C1512.13 435.073 1399.01 433.76 1410.41 478.804C1421.81 523.847 1528.22 510.578 1543.09 503.202C1554.73 522.057 1612.75 539.66 1649.69 513.885C1663.8 515.561 1691.01 527.03 1735.92 508.303C1802.23 540.793 1859.88 517.477 1884.67 500.565C1893.91 499.597 1915.67 495.217 1921.99 492.606C1961.42 476.331 1950.84 433.505 1883.62 439.842C1869.7 425.669 1837.48 423.752 1822.39 423.459C1822.26 373.46 1608.6 354.43 1576.84 412.539Z" fill="#8189AF"/>
<path d="M1576.84 412.539C1532.4 405.662 1511.9 421.455 1512.13 435.073C1512.13 435.073 1399.01 433.76 1410.41 478.804C1421.81 523.847 1528.22 510.578 1543.09 503.202C1554.73 522.057 1612.75 539.66 1649.69 513.885C1663.8 515.561 1691.01 527.03 1735.92 508.303C1802.23 540.793 1859.88 517.477 1884.67 500.565C1893.91 499.597 1915.67 495.217 1921.99 492.606C1961.42 476.331 1950.84 433.505 1883.62 439.842C1869.7 425.669 1837.48 423.752 1822.39 423.459C1822.26 373.46 1608.6 354.43 1576.84 412.539Z" fill="url(#paint7_linear)"/>
</g>
<g filter="url(#filter8_d)">
<path d="M11.8362 467.539C-32.6018 460.662 -53.1017 476.455 -52.8652 490.073C-52.8652 490.073 -165.992 488.76 -154.592 533.804C-143.191 578.847 -36.7806 565.578 -21.9051 558.202C-10.2671 577.057 47.745 594.66 84.691 568.885C98.8004 570.561 126.006 582.03 170.923 563.303C237.226 595.793 294.881 572.477 319.671 555.565C328.912 554.597 350.669 550.217 356.995 547.606C396.42 531.331 385.836 488.505 318.616 494.842C304.705 480.669 272.479 478.752 257.393 478.459C257.263 428.46 43.6039 409.43 11.8362 467.539Z" fill="#8189AF"/>
<path d="M11.8362 467.539C-32.6018 460.662 -53.1017 476.455 -52.8652 490.073C-52.8652 490.073 -165.992 488.76 -154.592 533.804C-143.191 578.847 -36.7806 565.578 -21.9051 558.202C-10.2671 577.057 47.745 594.66 84.691 568.885C98.8004 570.561 126.006 582.03 170.923 563.303C237.226 595.793 294.881 572.477 319.671 555.565C328.912 554.597 350.669 550.217 356.995 547.606C396.42 531.331 385.836 488.505 318.616 494.842C304.705 480.669 272.479 478.752 257.393 478.459C257.263 428.46 43.6039 409.43 11.8362 467.539Z" fill="url(#paint8_linear)"/>
</g>
</g>
<defs>
<filter id="filter0_d" x="163.665" y="370.639" width="543.961" height="141.251" filterUnits="userSpaceOnUse" color-interpolation-filters="sRGB">
<feFlood flood-opacity="0" result="BackgroundImageFix"/>
<feColorMatrix in="SourceAlpha" type="matrix" values="0 0 0 0 0 0 0 0 0 0 0 0 0 0 0 0 0 0 127 0"/>
<feOffset dy="4"/>
<feGaussianBlur stdDeviation="2"/>
<feColorMatrix type="matrix" values="0 0 0 0 0 0 0 0 0 0 0 0 0 0 0 0 0 0 0.25 0"/>
<feBlend mode="normal" in2="BackgroundImageFix" result="effect1_dropShadow"/>
<feBlend mode="normal" in="SourceGraphic" in2="effect1_dropShadow" result="shape"/>
</filter>
<filter id="filter1_d" x="1171.94" y="359.344" width="472.595" height="169.317" filterUnits="userSpaceOnUse" color-interpolation-filters="sRGB">
<feFlood flood-opacity="0" result="BackgroundImageFix"/>
<feColorMatrix in="SourceAlpha" type="matrix" values="0 0 0 0 0 0 0 0 0 0 0 0 0 0 0 0 0 0 127 0"/>
<feOffset dy="4"/>
<feGaussianBlur stdDeviation="2"/>
<feColorMatrix type="matrix" values="0 0 0 0 0 0 0 0 0 0 0 0 0 0 0 0 0 0 0.25 0"/>
<feBlend mode="normal" in2="BackgroundImageFix" result="effect1_dropShadow"/>
<feBlend mode="normal" in="SourceGraphic" in2="effect1_dropShadow" result="shape"/>
</filter>
<filter id="filter2_d" x="710.965" y="408.078" width="556.938" height="166.931" filterUnits="userSpaceOnUse" color-interpolation-filters="sRGB">
<feFlood flood-opacity="0" result="BackgroundImageFix"/>
<feColorMatrix in="SourceAlpha" type="matrix" values="0 0 0 0 0 0 0 0 0 0 0 0 0 0 0 0 0 0 127 0"/>
<feOffset dy="4"/>
<feGaussianBlur stdDeviation="2"/>
<feColorMatrix type="matrix" values="0 0 0 0 0 0 0 0 0 0 0 0 0 0 0 0 0 0 0.25 0"/>
<feBlend mode="normal" in2="BackgroundImageFix" result="effect1_dropShadow"/>
<feBlend mode="normal" in="SourceGraphic" in2="effect1_dropShadow" result="shape"/>
</filter>
<filter id="filter3_d" x="-156.335" y="369.92" width="630.104" height="162.754" filterUnits="userSpaceOnUse" color-interpolation-filters="sRGB">
<feFlood flood-opacity="0" result="BackgroundImageFix"/>
<feColorMatrix in="SourceAlpha" type="matrix" values="0 0 0 0 0 0 0 0 0 0 0 0 0 0 0 0 0 0 127 0"/>
<feOffset dy="4"/>
<feGaussianBlur stdDeviation="2"/>
<feColorMatrix type="matrix" values="0 0 0 0 0 0 0 0 0 0 0 0 0 0 0 0 0 0 0.25 0"/>
<feBlend mode="normal" in2="BackgroundImageFix" result="effect1_dropShadow"/>
<feBlend mode="normal" in="SourceGraphic" in2="effect1_dropShadow" result="shape"/>
</filter>
<filter id="filter4_d" x="230.147" y="409.309" width="646.823" height="155.201" filterUnits="userSpaceOnUse" color-interpolation-filters="sRGB">
<feFlood flood-opacity="0" result="BackgroundImageFix"/>
<feColorMatrix in="SourceAlpha" type="matrix" values="0 0 0 0 0 0 0 0 0 0 0 0 0 0 0 0 0 0 127 0"/>
<feOffset dy="4"/>
<feGaussianBlur stdDeviation="2"/>
<feColorMatrix type="matrix" values="0 0 0 0 0 0 0 0 0 0 0 0 0 0 0 0 0 0 0.25 0"/>
<feBlend mode="normal" in2="BackgroundImageFix" result="effect1_dropShadow"/>
<feBlend mode="normal" in="SourceGraphic" in2="effect1_dropShadow" result="shape"/>
</filter>
<filter id="filter5_d" x="-356.853" y="415.184" width="452.099" height="124.914" filterUnits="userSpaceOnUse" color-interpolation-filters="sRGB">
<feFlood flood-opacity="0" result="BackgroundImageFix"/>
<feColorMatrix in="SourceAlpha" type="matrix" values="0 0 0 0 0 0 0 0 0 0 0 0 0 0 0 0 0 0 127 0"/>
<feOffset dy="4"/>
<feGaussianBlur stdDeviation="2"/>
<feColorMatrix type="matrix" values="0 0 0 0 0 0 0 0 0 0 0 0 0 0 0 0 0 0 0.25 0"/>
<feBlend mode="normal" in2="BackgroundImageFix" result="effect1_dropShadow"/>
<feBlend mode="normal" in="SourceGraphic" in2="effect1_dropShadow" result="shape"/>
</filter>
<filter id="filter6_d" x="1157.9" y="441.488" width="543.314" height="158.127" filterUnits="userSpaceOnUse" color-interpolation-filters="sRGB">
<feFlood flood-opacity="0" result="BackgroundImageFix"/>
<feColorMatrix in="SourceAlpha" type="matrix" values="0 0 0 0 0 0 0 0 0 0 0 0 0 0 0 0 0 0 127 0"/>
<feOffset dy="4"/>
<feGaussianBlur stdDeviation="2"/>
<feColorMatrix type="matrix" values="0 0 0 0 0 0 0 0 0 0 0 0 0 0 0 0 0 0 0.25 0"/>
<feBlend mode="normal" in2="BackgroundImageFix" result="effect1_dropShadow"/>
<feBlend mode="normal" in="SourceGraphic" in2="effect1_dropShadow" result="shape"/>
</filter>
<filter id="filter7_d" x="1405.6" y="376.695" width="543.314" height="158.127" filterUnits="userSpaceOnUse" color-interpolation-filters="sRGB">
<feFlood flood-opacity="0" result="BackgroundImageFix"/>
<feColorMatrix in="SourceAlpha" type="matrix" values="0 0 0 0 0 0 0 0 0 0 0 0 0 0 0 0 0 0 127 0"/>
<feOffset dy="4"/>
<feGaussianBlur stdDeviation="2"/>
<feColorMatrix type="matrix" values="0 0 0 0 0 0 0 0 0 0 0 0 0 0 0 0 0 0 0.25 0"/>
<feBlend mode="normal" in2="BackgroundImageFix" result="effect1_dropShadow"/>
<feBlend mode="normal" in="SourceGraphic" in2="effect1_dropShadow" result="shape"/>
</filter>
<filter id="filter8_d" x="-159.399" y="431.695" width="543.314" height="158.127" filterUnits="userSpaceOnUse" color-interpolation-filters="sRGB">
<feFlood flood-opacity="0" result="BackgroundImageFix"/>
<feColorMatrix in="SourceAlpha" type="matrix" values="0 0 0 0 0 0 0 0 0 0 0 0 0 0 0 0 0 0 127 0"/>
<feOffset dy="4"/>
<feGaussianBlur stdDeviation="2"/>
<feColorMatrix type="matrix" values="0 0 0 0 0 0 0 0 0 0 0 0 0 0 0 0 0 0 0.25 0"/>
<feBlend mode="normal" in2="BackgroundImageFix" result="effect1_dropShadow"/>
<feBlend mode="normal" in="SourceGraphic" in2="effect1_dropShadow" result="shape"/>
</filter>
<linearGradient id="paint0_linear" x1="628.184" y1="329.63" x2="529.819" y2="633.731" gradientUnits="userSpaceOnUse">
<stop stop-color="#8FE3F0"/>
<stop offset="0.901042" stop-color="white" stop-opacity="0"/>
</linearGradient>
<linearGradient id="paint1_linear" x1="1574.46" y1="311.059" x2="1423.5" y2="644.829" gradientUnits="userSpaceOnUse">
<stop stop-color="#8FE3F0"/>
<stop offset="0.901042" stop-color="white" stop-opacity="0"/>
</linearGradient>
<linearGradient id="paint2_linear" x1="1175.2" y1="366.88" x2="1048.21" y2="705.943" gradientUnits="userSpaceOnUse">
<stop stop-color="#C1F7FF"/>
<stop offset="0.901042" stop-color="white" stop-opacity="0"/>
</linearGradient>
<linearGradient id="paint3_linear" x1="308.184" y1="328.911" x2="209.819" y2="633.013" gradientUnits="userSpaceOnUse">
<stop stop-color="#C1F7FF"/>
<stop offset="0.901042" stop-color="white" stop-opacity="0"/>
</linearGradient>
<linearGradient id="paint4_linear" x1="722.882" y1="401.816" x2="649.745" y2="638.335" gradientUnits="userSpaceOnUse">
<stop stop-color="#8FE3F0"/>
<stop offset="0.901042" stop-color="white" stop-opacity="0"/>
</linearGradient>
<linearGradient id="paint5_linear" x1="-63.7154" y1="409.41" x2="-105.239" y2="596.169" gradientUnits="userSpaceOnUse">
<stop stop-color="#8FE3F0"/>
<stop offset="0.901042" stop-color="white" stop-opacity="0"/>
</linearGradient>
<linearGradient id="paint6_linear" x1="1621.51" y1="395.677" x2="1498.91" y2="729.251" gradientUnits="userSpaceOnUse">
<stop stop-color="#8FE3F0"/>
<stop offset="0.901042" stop-color="white" stop-opacity="0"/>
</linearGradient>
<linearGradient id="paint7_linear" x1="1869.21" y1="330.884" x2="1746.61" y2="664.458" gradientUnits="userSpaceOnUse">
<stop stop-color="#8FE3F0"/>
<stop offset="0.901042" stop-color="white" stop-opacity="0"/>
</linearGradient>
<linearGradient id="paint8_linear" x1="304.21" y1="385.884" x2="181.606" y2="719.458" gradientUnits="userSpaceOnUse">
<stop stop-color="#8FE3F0"/>
<stop offset="0.901042" stop-color="white" stop-opacity="0"/>
</linearGradient>
<clipPath id="clip0">
<rect width="1698" height="595" fill="white"/>
</clipPath>
</defs>
</svg>
