<svg width="774" height="671" viewBox="0 0 774 671" fill="none" xmlns="http://www.w3.org/2000/svg">
<mask id="mask0" mask-type="alpha" maskUnits="userSpaceOnUse" x="0" y="0" width="774" height="671">
<path d="M613.695 44.4098C469.175 -36.9742 372.052 121.186 286.265 195.758C171.718 229.544 -48.9916 418.725 89.9869 535.588C228.965 652.451 601.648 669.279 706.987 501.892C760.82 416.349 758.215 125.794 613.695 44.4098Z" fill="#174461"/>
<path d="M613.695 44.4098C469.175 -36.9742 372.052 121.186 286.265 195.758C171.718 229.544 -48.9916 418.725 89.9869 535.588C228.965 652.451 601.648 669.279 706.987 501.892C760.82 416.349 758.215 125.794 613.695 44.4098Z" fill="url(#paint0_radial)"/>
</mask>
<g mask="url(#mask0)">
<rect x="-9.8938" y="74.8682" width="722.135" height="736" transform="rotate(-7.05277 -9.8938 74.8682)" fill="url(#paint1_radial)"/>
<g filter="url(#filter0_d)">
<path d="M302.474 657.389L252.142 583.811L190.612 548.721L151.166 499.339L59.7547 503.91L23.7833 652.044L104.237 703.1L302.474 657.389Z" fill="#CCCCCC"/>
</g>
<g filter="url(#filter1_d)">
<path d="M70.1831 493.522C83.4495 501.957 78.6985 521.186 74.6647 529.746L86.4837 540.376C85.2149 530.12 85.9091 520.294 84.3743 507.889C84.1287 505.904 82.9262 490.803 89.5041 487.605C99.6656 484.837 85.7877 456.023 83.0433 489.412C80.3263 522.469 78.6467 492.337 78.0117 471.898C98.3158 465.746 97.4739 447.826 77.5819 468.424C77.7034 457.829 80.3981 448.679 79.9504 437.399C79.2738 420.353 68.1927 427.266 71.7104 436.403C75.6779 445.316 75.9786 463.31 67.2338 446.529C59.0945 430.91 58.5236 445.592 68.0933 453.476C75.0047 459.171 79.5882 492.359 73.6382 490.576C68.8781 489.15 61.3476 468.417 56.6045 472.531C55.603 476.014 56.9166 485.088 70.1831 493.522Z" fill="#9AA7E5"/>
<path d="M70.1831 493.522C83.4495 501.957 78.6985 521.186 74.6647 529.746L86.4837 540.376C85.2149 530.12 85.9091 520.294 84.3743 507.889C84.1287 505.904 82.9262 490.803 89.5041 487.605C99.6656 484.837 85.7877 456.023 83.0433 489.412C80.3263 522.469 78.6467 492.337 78.0117 471.898C98.3158 465.746 97.4739 447.826 77.5819 468.424C77.7034 457.829 80.3981 448.679 79.9504 437.399C79.2738 420.353 68.1927 427.266 71.7104 436.403C75.6779 445.316 75.9786 463.31 67.2338 446.529C59.0945 430.91 58.5236 445.592 68.0933 453.476C75.0047 459.171 79.5882 492.359 73.6382 490.576C68.8781 489.15 61.3476 468.417 56.6045 472.531C55.603 476.014 56.9166 485.088 70.1831 493.522Z" fill="url(#paint2_linear)"/>
<path d="M70.1831 493.522C83.4495 501.957 78.6985 521.186 74.6647 529.746L86.4837 540.376C85.2149 530.12 85.9091 520.294 84.3743 507.889C84.1287 505.904 82.9262 490.803 89.5041 487.605C99.6656 484.837 85.7877 456.023 83.0433 489.412C80.3263 522.469 78.6467 492.337 78.0117 471.898C98.3158 465.746 97.4739 447.826 77.5819 468.424C77.7034 457.829 80.3981 448.679 79.9504 437.399C79.2738 420.353 68.1927 427.266 71.7104 436.403C75.6779 445.316 75.9786 463.31 67.2338 446.529C59.0945 430.91 58.5236 445.592 68.0933 453.476C75.0047 459.171 79.5882 492.359 73.6382 490.576C68.8781 489.15 61.3476 468.417 56.6045 472.531C55.603 476.014 56.9166 485.088 70.1831 493.522Z" fill="url(#paint3_linear)"/>
</g>
<g filter="url(#filter2_d)">
<path d="M129.656 541.252C119.018 551.055 127.74 565.676 133.431 571.761L124.641 583.033C123.573 574.395 120.749 566.541 119.457 556.092C119.25 554.421 117.049 541.849 110.145 540.695C99.9595 540.682 106.674 514.137 116.632 540.742C126.49 567.081 121.42 542.154 117.506 525.357C97.0165 524.827 93.8535 510.037 117.144 522.432C114.69 513.824 110.131 506.962 108.062 497.671C104.937 483.63 116.904 486.817 115.606 495.04C113.836 503.18 117.525 517.91 122.06 502.304C126.281 487.779 130.06 499.617 122.784 508.155C117.529 514.322 120.538 542.38 125.75 539.613C129.92 537.4 132.439 518.842 137.816 521.147C139.528 523.764 140.294 531.449 129.656 541.252Z" fill="#9AA7E5"/>
<path d="M129.656 541.252C119.018 551.055 127.74 565.676 133.431 571.761L124.641 583.033C123.573 574.395 120.749 566.541 119.457 556.092C119.25 554.421 117.049 541.849 110.145 540.695C99.9595 540.682 106.674 514.137 116.632 540.742C126.49 567.081 121.42 542.154 117.506 525.357C97.0165 524.827 93.8535 510.037 117.144 522.432C114.69 513.824 110.131 506.962 108.062 497.671C104.937 483.63 116.904 486.817 115.606 495.04C113.836 503.18 117.525 517.91 122.06 502.304C126.281 487.779 130.06 499.617 122.784 508.155C117.529 514.322 120.538 542.38 125.75 539.613C129.92 537.4 132.439 518.842 137.816 521.147C139.528 523.764 140.294 531.449 129.656 541.252Z" fill="url(#paint4_linear)"/>
<path d="M129.656 541.252C119.018 551.055 127.74 565.676 133.431 571.761L124.641 583.033C123.573 574.395 120.749 566.541 119.457 556.092C119.25 554.421 117.049 541.849 110.145 540.695C99.9595 540.682 106.674 514.137 116.632 540.742C126.49 567.081 121.42 542.154 117.506 525.357C97.0165 524.827 93.8535 510.037 117.144 522.432C114.69 513.824 110.131 506.962 108.062 497.671C104.937 483.63 116.904 486.817 115.606 495.04C113.836 503.18 117.525 517.91 122.06 502.304C126.281 487.779 130.06 499.617 122.784 508.155C117.529 514.322 120.538 542.38 125.75 539.613C129.92 537.4 132.439 518.842 137.816 521.147C139.528 523.764 140.294 531.449 129.656 541.252Z" fill="url(#paint5_linear)"/>
</g>
<g filter="url(#filter3_d)">
<path d="M119.47 523.557C96.2065 526.093 101.716 549.106 107.379 560.295L86.2578 565.903C89.6811 555.503 89.7661 544.596 93.9071 532.015C94.5696 530.002 98.4966 514.358 87.8976 507.682C71.249 499.702 98.1206 475.556 98.4771 512.805C98.8301 549.683 105.461 518.115 109.116 496.453C75.9283 479.841 79.6096 460.989 110.276 492.93C111.416 481.479 108.069 470.314 110.248 458.407C113.542 440.414 131.203 453.302 124.16 461.394C116.392 469.023 113.606 488.221 130.365 474.485C145.962 461.701 145.055 477.766 128.046 481.531C115.761 484.25 103.884 517.675 114.064 518.688C122.208 519.498 137.436 500.916 144.849 507.674C146.083 511.911 142.734 521.02 119.47 523.557Z" fill="#9AA7E5"/>
<path d="M119.47 523.557C96.2065 526.093 101.716 549.106 107.379 560.295L86.2578 565.903C89.6811 555.503 89.7661 544.596 93.9071 532.015C94.5696 530.002 98.4966 514.358 87.8976 507.682C71.249 499.702 98.1206 475.556 98.4771 512.805C98.8301 549.683 105.461 518.115 109.116 496.453C75.9283 479.841 79.6096 460.989 110.276 492.93C111.416 481.479 108.069 470.314 110.248 458.407C113.542 440.414 131.203 453.302 124.16 461.394C116.392 469.023 113.606 488.221 130.365 474.485C145.962 461.701 145.055 477.766 128.046 481.531C115.761 484.25 103.884 517.675 114.064 518.688C122.208 519.498 137.436 500.916 144.849 507.674C146.083 511.911 142.734 521.02 119.47 523.557Z" fill="url(#paint6_linear)"/>
<path d="M119.47 523.557C96.2065 526.093 101.716 549.106 107.379 560.295L86.2578 565.903C89.6811 555.503 89.7661 544.596 93.9071 532.015C94.5696 530.002 98.4966 514.358 87.8976 507.682C71.249 499.702 98.1206 475.556 98.4771 512.805C98.8301 549.683 105.461 518.115 109.116 496.453C75.9283 479.841 79.6096 460.989 110.276 492.93C111.416 481.479 108.069 470.314 110.248 458.407C113.542 440.414 131.203 453.302 124.16 461.394C116.392 469.023 113.606 488.221 130.365 474.485C145.962 461.701 145.055 477.766 128.046 481.531C115.761 484.25 103.884 517.675 114.064 518.688C122.208 519.498 137.436 500.916 144.849 507.674C146.083 511.911 142.734 521.02 119.47 523.557Z" fill="url(#paint7_linear)"/>
</g>
<path d="M393.219 633.096L426.189 548.407L481.511 497.731L509.619 439.338L607.329 418.685L685.836 551.551L614.916 622.798L393.219 633.096Z" fill="#ADADAD"/>
<path d="M393.219 633.096L426.189 548.407L481.511 497.731L509.619 439.338L607.329 418.685L685.836 551.551L614.916 622.798L393.219 633.096Z" fill="url(#paint8_linear)"/>
<g filter="url(#filter4_d)">
<path d="M555.8 621.366L570.773 530.98L614.406 468.897L629.965 405.368L720.972 363.175L824.356 475.713L769.691 561.456L555.8 621.366Z" fill="#CCCCCC"/>
</g>
<g filter="url(#filter5_d)">
<path d="M712.088 347.524C709.2 366.552 728.742 385.609 738.875 392.758L738.893 413.332C731.309 400.526 722.617 389.582 713.443 374.091C711.976 371.613 700.312 353.218 692.741 354.072C682.851 357.914 669.243 314.766 699.067 351.683C728.594 388.231 704.783 352.028 688.254 327.82C667.978 334.779 653.699 313.357 685.686 323.483C676.781 311.248 667.158 302.481 658.109 289.054C644.434 268.763 658.458 269.1 663.432 282.169C667.885 295.291 682.629 316.422 675.198 290.833C668.283 267.015 680.922 283.689 680.336 299.508C679.912 310.932 704.098 352.708 707.057 346.499C709.425 341.533 697.801 312.193 704.764 313.679C708.409 317.033 714.976 328.497 712.088 347.524Z" fill="#9AA7E5"/>
<path d="M712.088 347.524C709.2 366.552 728.742 385.609 738.875 392.758L738.893 413.332C731.309 400.526 722.617 389.582 713.443 374.091C711.976 371.613 700.312 353.218 692.741 354.072C682.851 357.914 669.243 314.766 699.067 351.683C728.594 388.231 704.783 352.028 688.254 327.82C667.978 334.779 653.699 313.357 685.686 323.483C676.781 311.248 667.158 302.481 658.109 289.054C644.434 268.763 658.458 269.1 663.432 282.169C667.885 295.291 682.629 316.422 675.198 290.833C668.283 267.015 680.922 283.689 680.336 299.508C679.912 310.932 704.098 352.708 707.057 346.499C709.425 341.533 697.801 312.193 704.764 313.679C708.409 317.033 714.976 328.497 712.088 347.524Z" fill="url(#paint9_linear)"/>
<path d="M712.088 347.524C709.2 366.552 728.742 385.609 738.875 392.758L738.893 413.332C731.309 400.526 722.617 389.582 713.443 374.091C711.976 371.613 700.312 353.218 692.741 354.072C682.851 357.914 669.243 314.766 699.067 351.683C728.594 388.231 704.783 352.028 688.254 327.82C667.978 334.779 653.699 313.357 685.686 323.483C676.781 311.248 667.158 302.481 658.109 289.054C644.434 268.763 658.458 269.1 663.432 282.169C667.885 295.291 682.629 316.422 675.198 290.833C668.283 267.015 680.922 283.689 680.336 299.508C679.912 310.932 704.098 352.708 707.057 346.499C709.425 341.533 697.801 312.193 704.764 313.679C708.409 317.033 714.976 328.497 712.088 347.524Z" fill="url(#paint10_linear)"/>
</g>
<g filter="url(#filter6_d)">
<path d="M707.388 444.354C723.485 448.36 729.136 471.422 729.949 482.453L745.888 489.45C739.501 478.665 735.075 467.569 727.349 454.522C726.112 452.434 717.298 436.287 721.493 430.148C729.087 423.054 701.991 396.854 716.688 434.709C731.238 472.186 714.288 439.679 703.238 417.428C718.094 402.572 708.153 383.177 701.075 413.775C695.746 402.061 693.442 390.914 687.257 378.673C677.911 360.175 671.628 372.197 679.436 380.857C687.53 389.091 697.028 408.783 680.661 393.788C665.426 379.832 672.453 396.224 684.988 401.095C694.041 404.613 715.135 439.329 708.942 439.735C703.987 440.059 686.669 420.231 684.572 426.648C685.47 430.881 691.291 440.349 707.388 444.354Z" fill="#9AA7E5"/>
<path d="M707.388 444.354C723.485 448.36 729.136 471.422 729.949 482.453L745.888 489.45C739.501 478.665 735.075 467.569 727.349 454.522C726.112 452.434 717.298 436.287 721.493 430.148C729.087 423.054 701.991 396.854 716.688 434.709C731.238 472.186 714.288 439.679 703.238 417.428C718.094 402.572 708.153 383.177 701.075 413.775C695.746 402.061 693.442 390.914 687.257 378.673C677.911 360.175 671.628 372.197 679.436 380.857C687.53 389.091 697.028 408.783 680.661 393.788C665.426 379.832 672.453 396.224 684.988 401.095C694.041 404.613 715.135 439.329 708.942 439.735C703.987 440.059 686.669 420.231 684.572 426.648C685.47 430.881 691.291 440.349 707.388 444.354Z" fill="url(#paint11_linear)"/>
<path d="M707.388 444.354C723.485 448.36 729.136 471.422 729.949 482.453L745.888 489.45C739.501 478.665 735.075 467.569 727.349 454.522C726.112 452.434 717.298 436.287 721.493 430.148C729.087 423.054 701.991 396.854 716.688 434.709C731.238 472.186 714.288 439.679 703.238 417.428C718.094 402.572 708.153 383.177 701.075 413.775C695.746 402.061 693.442 390.914 687.257 378.673C677.911 360.175 671.628 372.197 679.436 380.857C687.53 389.091 697.028 408.783 680.661 393.788C665.426 379.832 672.453 396.224 684.988 401.095C694.041 404.613 715.135 439.329 708.942 439.735C703.987 440.059 686.669 420.231 684.572 426.648C685.47 430.881 691.291 440.349 707.388 444.354Z" fill="url(#paint12_linear)"/>
</g>
<g filter="url(#filter7_d)">
<path d="M700.273 416.7C719.752 403.482 734.782 434.069 739.862 451.015L760.297 442.857C749.089 433.143 739.953 420.521 726.395 408.769C724.226 406.889 708.281 391.429 710.64 376.299C716.432 355.45 676.284 346.05 707.004 389.609C737.417 432.735 706.206 400.637 685.457 377.989C696.418 335.609 677.987 316.247 681.661 374.698C671.284 362.176 664.496 346.868 652.964 334.538C635.537 315.905 633.072 343.165 645.062 347.679C657.208 351.152 675.257 371.538 651.319 367.213C629.039 363.187 643.08 381.237 658.912 373.794C670.346 368.418 707.018 399.028 700.259 407.281C694.853 413.883 668.026 402.86 668.113 415.87C670.717 421.655 680.794 429.919 700.273 416.7Z" fill="#9AA7E5"/>
<path d="M700.273 416.7C719.752 403.482 734.782 434.069 739.862 451.015L760.297 442.857C749.089 433.143 739.953 420.521 726.395 408.769C724.226 406.889 708.281 391.429 710.64 376.299C716.432 355.45 676.284 346.05 707.004 389.609C737.417 432.735 706.206 400.637 685.457 377.989C696.418 335.609 677.987 316.247 681.661 374.698C671.284 362.176 664.496 346.868 652.964 334.538C635.537 315.905 633.072 343.165 645.062 347.679C657.208 351.152 675.257 371.538 651.319 367.213C629.039 363.187 643.08 381.237 658.912 373.794C670.346 368.418 707.018 399.028 700.259 407.281C694.853 413.883 668.026 402.86 668.113 415.87C670.717 421.655 680.794 429.919 700.273 416.7Z" fill="url(#paint13_linear)"/>
<path d="M700.273 416.7C719.752 403.482 734.782 434.069 739.862 451.015L760.297 442.857C749.089 433.143 739.953 420.521 726.395 408.769C724.226 406.889 708.281 391.429 710.64 376.299C716.432 355.45 676.284 346.05 707.004 389.609C737.417 432.735 706.206 400.637 685.457 377.989C696.418 335.609 677.987 316.247 681.661 374.698C671.284 362.176 664.496 346.868 652.964 334.538C635.537 315.905 633.072 343.165 645.062 347.679C657.208 351.152 675.257 371.538 651.319 367.213C629.039 363.187 643.08 381.237 658.912 373.794C670.346 368.418 707.018 399.028 700.259 407.281C694.853 413.883 668.026 402.86 668.113 415.87C670.717 421.655 680.794 429.919 700.273 416.7Z" fill="url(#paint14_linear)"/>
</g>
<path d="M350.07 448.412L345.558 438L341.838 444.989C346.908 453.785 348.422 453.652 350.547 455.998C349.994 458.881 356.441 461.795 358.989 463.949L360.105 464.056C360.217 463.347 358.837 461.825 358.819 461.716C358.802 461.607 357.634 460.574 357.052 460.071C356.596 459.121 355.724 457.128 355.888 456.757C356.215 456.409 356.127 455.864 356.217 455.987C356.306 456.109 356.605 456.013 356.785 456.047C356.929 456.074 357.828 457.03 358.381 457.603C360.123 458.88 360.853 458.325 360.893 457.707C360.697 457.36 360.381 456.809 359.181 455.647C358.095 454.596 357.263 453.969 357.19 453.697C353.817 450.972 353.484 451.497 352.851 451.362C352.345 451.254 350.786 449.351 350.07 448.412Z" fill="#8FE3F0"/>
<path d="M350.07 448.412L345.558 438L341.838 444.989C346.908 453.785 348.422 453.652 350.547 455.998C349.994 458.881 356.441 461.795 358.989 463.949L360.105 464.056C360.217 463.347 358.837 461.825 358.819 461.716C358.802 461.607 357.634 460.574 357.052 460.071C356.596 459.121 355.724 457.128 355.888 456.757C356.215 456.409 356.127 455.864 356.217 455.987C356.306 456.109 356.605 456.013 356.785 456.047C356.929 456.074 357.828 457.03 358.381 457.603C360.123 458.88 360.853 458.325 360.893 457.707C360.697 457.36 360.381 456.809 359.181 455.647C358.095 454.596 357.263 453.969 357.19 453.697C353.817 450.972 353.484 451.497 352.851 451.362C352.345 451.254 350.786 449.351 350.07 448.412Z" fill="url(#paint15_radial)"/>
<path d="M350.07 448.412L345.558 438L341.838 444.989C346.908 453.785 348.422 453.652 350.547 455.998C349.994 458.881 356.441 461.795 358.989 463.949L360.105 464.056C360.217 463.347 358.837 461.825 358.819 461.716C358.802 461.607 357.634 460.574 357.052 460.071C356.596 459.121 355.724 457.128 355.888 456.757C356.215 456.409 356.127 455.864 356.217 455.987C356.306 456.109 356.605 456.013 356.785 456.047C356.929 456.074 357.828 457.03 358.381 457.603C360.123 458.88 360.853 458.325 360.893 457.707C360.697 457.36 360.381 456.809 359.181 455.647C358.095 454.596 357.263 453.969 357.19 453.697C353.817 450.972 353.484 451.497 352.851 451.362C352.345 451.254 350.786 449.351 350.07 448.412Z" fill="url(#paint16_radial)"/>
<path d="M361.177 463.134C361.951 463.862 361.533 464.286 361.226 464.407C360.038 463.858 359.324 463.757 358.646 463.772C358.103 463.784 356.854 463.521 356.297 463.389L354.726 462.091L355.148 461.355C356.802 461.651 360.322 462.422 361.177 463.134Z" fill="url(#paint17_linear)"/>
<path d="M359.407 461.033C360.853 461.259 360.693 461.902 360.432 462.196C360.241 462.305 358.834 462.24 357.2 462.713C356.924 462.734 356.253 462.596 355.771 462.722C355.289 462.848 354.781 462.572 354.587 462.418C353.933 461.936 352.495 460.899 351.974 460.612C351.448 460.466 351.034 460.053 350.893 459.865C351.541 459.516 352.893 459.669 353.64 459.798C354.387 459.927 356.111 460.438 356.815 461.086C357.076 460.974 357.96 460.807 359.407 461.033Z" fill="#8FE3F0"/>
<path d="M359.407 461.033C360.853 461.259 360.693 461.902 360.432 462.196C360.241 462.305 358.834 462.24 357.2 462.713C356.924 462.734 356.253 462.596 355.771 462.722C355.289 462.848 354.781 462.572 354.587 462.418C353.933 461.936 352.495 460.899 351.974 460.612C351.448 460.466 351.034 460.053 350.893 459.865C351.541 459.516 352.893 459.669 353.64 459.798C354.387 459.927 356.111 460.438 356.815 461.086C357.076 460.974 357.96 460.807 359.407 461.033Z" fill="url(#paint18_linear)"/>
<path d="M355.762 459.753C357.537 459.167 358.264 459.759 358.405 460.129C358.626 460.524 355.106 461.205 354.259 461.254C353.582 461.293 351.37 460.148 350.531 459.639C350.081 458.729 347.03 452.956 347.457 452.864C351.365 448.285 352.698 454.3 352.876 457.879C353.687 459.24 354.165 459.558 354.2 459.665C354.509 459.589 355.348 459.679 355.762 459.753Z" fill="#8FE3F0"/>
<path d="M355.762 459.753C357.537 459.167 358.264 459.759 358.405 460.129C358.626 460.524 355.106 461.205 354.259 461.254C353.582 461.293 351.37 460.148 350.531 459.639C350.081 458.729 347.03 452.956 347.457 452.864C351.365 448.285 352.698 454.3 352.876 457.879C353.687 459.24 354.165 459.558 354.2 459.665C354.509 459.589 355.348 459.679 355.762 459.753Z" fill="url(#paint19_radial)"/>
<g filter="url(#filter8_d)">
<path d="M385.857 540.583C377.405 568.518 393.21 614.528 402.168 634.041L396.427 666.77C391.809 640.311 385.471 615.924 379.885 583.918C378.991 578.797 371.524 540.172 363.095 535.444C351.321 533.606 348.682 454.057 370.608 536.731C392.315 618.58 376.694 541.873 365.592 490.096C341.71 484.863 332.263 439.323 364.028 481.134C357.822 454.522 349.866 432.846 343.837 404.222C334.726 360.967 349.802 372.774 351.524 397.554C352.666 421.998 362.698 467.449 361.826 420.786C361.014 377.355 370.017 414.027 364.954 438.71C361.297 456.536 375.763 542.404 380.702 534.91C384.654 528.915 380.295 472.918 387.411 480.879C390.415 489.141 394.31 512.648 385.857 540.583Z" fill="#9AA7E5"/>
<path d="M385.857 540.583C377.405 568.518 393.21 614.528 402.168 634.041L396.427 666.77C391.809 640.311 385.471 615.924 379.885 583.918C378.991 578.797 371.524 540.172 363.095 535.444C351.321 533.606 348.682 454.057 370.608 536.731C392.315 618.58 376.694 541.873 365.592 490.096C341.71 484.863 332.263 439.323 364.028 481.134C357.822 454.522 349.866 432.846 343.837 404.222C334.726 360.967 349.802 372.774 351.524 397.554C352.666 421.998 362.698 467.449 361.826 420.786C361.014 377.355 370.017 414.027 364.954 438.71C361.297 456.536 375.763 542.404 380.702 534.91C384.654 528.915 380.295 472.918 387.411 480.879C390.415 489.141 394.31 512.648 385.857 540.583Z" fill="url(#paint20_linear)"/>
<path d="M385.857 540.583C377.405 568.518 393.21 614.528 402.168 634.041L396.427 666.77C391.809 640.311 385.471 615.924 379.885 583.918C378.991 578.797 371.524 540.172 363.095 535.444C351.321 533.606 348.682 454.057 370.608 536.731C392.315 618.58 376.694 541.873 365.592 490.096C341.71 484.863 332.263 439.323 364.028 481.134C357.822 454.522 349.866 432.846 343.837 404.222C334.726 360.967 349.802 372.774 351.524 397.554C352.666 421.998 362.698 467.449 361.826 420.786C361.014 377.355 370.017 414.027 364.954 438.71C361.297 456.536 375.763 542.404 380.702 534.91C384.654 528.915 380.295 472.918 387.411 480.879C390.415 489.141 394.31 512.648 385.857 540.583Z" fill="url(#paint21_linear)"/>
</g>
<g filter="url(#filter9_d)">
<path d="M306.927 601.261C322.792 614.586 320.201 644.996 316.923 658.536L331.49 675.332C328.66 659.117 328.063 643.579 324.64 623.964C324.092 620.825 320.663 596.948 327.504 591.885C338.373 587.497 319 541.948 320.599 594.749C322.182 647.023 316.136 599.377 312.593 567.058C334.226 557.311 330.804 528.974 311.634 561.566C310.297 544.812 312.01 530.34 309.947 512.503C306.829 485.55 295.517 496.492 300.683 510.937C306.315 525.028 309.148 553.48 297.131 526.954C285.947 502.264 287.354 525.48 299.048 537.938C307.494 546.936 317.182 599.411 310.344 596.598C304.874 594.347 293.653 561.571 288.971 568.08C288.346 573.589 291.062 587.936 306.927 601.261Z" fill="#9AA7E5"/>
<path d="M306.927 601.261C322.792 614.586 320.201 644.996 316.923 658.536L331.49 675.332C328.66 659.117 328.063 643.579 324.64 623.964C324.092 620.825 320.663 596.948 327.504 591.885C338.373 587.497 319 541.948 320.599 594.749C322.182 647.023 316.136 599.377 312.593 567.058C334.226 557.311 330.804 528.974 311.634 561.566C310.297 544.812 312.01 530.34 309.947 512.503C306.829 485.55 295.517 496.492 300.683 510.937C306.315 525.028 309.148 553.48 297.131 526.954C285.947 502.264 287.354 525.48 299.048 537.938C307.494 546.936 317.182 599.411 310.344 596.598C304.874 594.347 293.653 561.571 288.971 568.08C288.346 573.589 291.062 587.936 306.927 601.261Z" fill="url(#paint22_linear)"/>
<path d="M306.927 601.261C322.792 614.586 320.201 644.996 316.923 658.536L331.49 675.332C328.66 659.117 328.063 643.579 324.64 623.964C324.092 620.825 320.663 596.948 327.504 591.885C338.373 587.497 319 541.948 320.599 594.749C322.182 647.023 316.136 599.377 312.593 567.058C334.226 557.311 330.804 528.974 311.634 561.566C310.297 544.812 312.01 530.34 309.947 512.503C306.829 485.55 295.517 496.492 300.683 510.937C306.315 525.028 309.148 553.48 297.131 526.954C285.947 502.264 287.354 525.48 299.048 537.938C307.494 546.936 317.182 599.411 310.344 596.598C304.874 594.347 293.653 561.571 288.971 568.08C288.346 573.589 291.062 587.936 306.927 601.261Z" fill="url(#paint23_linear)"/>
</g>
<g filter="url(#filter10_d)">
<path d="M309.667 564.615C335.673 559.274 340.37 603.616 339.468 626.455L364.598 627.636C356.161 610.129 351.056 590.269 340.851 569.091C339.218 565.702 327.833 538.847 336.08 522.125C350.188 500.434 310.395 467.9 327.14 536.006C343.717 603.433 322.123 548.684 308.262 510.733C336.061 466.208 323.463 433.394 305.404 504.803C298.922 484.402 297.363 462.6 289.562 441.812C277.773 410.398 264.84 441.479 276.081 453.222C287.883 463.812 299.683 497.64 275.475 479.763C252.943 463.124 261.297 492.043 281.19 491.623C295.557 491.319 323.606 547.206 313.201 553.416C304.878 558.384 280.076 531.01 275.267 546.516C275.898 554.775 283.661 569.957 309.667 564.615Z" fill="#9AA7E5"/>
<path d="M309.667 564.615C335.673 559.274 340.37 603.616 339.468 626.455L364.598 627.636C356.161 610.129 351.056 590.269 340.851 569.091C339.218 565.702 327.833 538.847 336.08 522.125C350.188 500.434 310.395 467.9 327.14 536.006C343.717 603.433 322.123 548.684 308.262 510.733C336.061 466.208 323.463 433.394 305.404 504.803C298.922 484.402 297.363 462.6 289.562 441.812C277.773 410.398 264.84 441.479 276.081 453.222C287.883 463.812 299.683 497.64 275.475 479.763C252.943 463.124 261.297 492.043 281.19 491.623C295.557 491.319 323.606 547.206 313.201 553.416C304.878 558.384 280.076 531.01 275.267 546.516C275.898 554.775 283.661 569.957 309.667 564.615Z" fill="url(#paint24_linear)"/>
<path d="M309.667 564.615C335.673 559.274 340.37 603.616 339.468 626.455L364.598 627.636C356.161 610.129 351.056 590.269 340.851 569.091C339.218 565.702 327.833 538.847 336.08 522.125C350.188 500.434 310.395 467.9 327.14 536.006C343.717 603.433 322.123 548.684 308.262 510.733C336.061 466.208 323.463 433.394 305.404 504.803C298.922 484.402 297.363 462.6 289.562 441.812C277.773 410.398 264.84 441.479 276.081 453.222C287.883 463.812 299.683 497.64 275.475 479.763C252.943 463.124 261.297 492.043 281.19 491.623C295.557 491.319 323.606 547.206 313.201 553.416C304.878 558.384 280.076 531.01 275.267 546.516C275.898 554.775 283.661 569.957 309.667 564.615Z" fill="url(#paint25_linear)"/>
</g>
<g filter="url(#filter11_d)">
<path d="M145.33 522.571C159.186 536.327 155.691 565.38 152.211 578.187L164.761 595.199C162.813 579.454 162.861 564.493 160.505 545.446C160.128 542.399 157.927 519.257 164.311 514.808C174.315 511.249 158.503 466.33 157.952 517.141C157.407 567.446 153.737 521.318 151.753 490.061C171.704 482.005 169.678 454.582 151.093 484.728C150.517 468.555 152.615 454.758 151.423 437.502C149.621 411.425 138.967 421.252 143.096 435.438C147.661 449.312 149.149 476.812 139.276 450.608C130.086 426.218 130.481 448.602 140.595 461.274C147.9 470.426 154.683 521.413 148.6 518.298C143.734 515.806 134.817 483.648 130.333 489.617C129.559 494.87 131.474 508.814 145.33 522.571Z" fill="#9AA7E5"/>
<path d="M145.33 522.571C159.186 536.327 155.691 565.38 152.211 578.187L164.761 595.199C162.813 579.454 162.861 564.493 160.505 545.446C160.128 542.399 157.927 519.257 164.311 514.808C174.315 511.249 158.503 466.33 157.952 517.141C157.407 567.446 153.737 521.318 151.753 490.061C171.704 482.005 169.678 454.582 151.093 484.728C150.517 468.555 152.615 454.758 151.423 437.502C149.621 411.425 138.967 421.252 143.096 435.438C147.661 449.312 149.149 476.812 139.276 450.608C130.086 426.218 130.481 448.602 140.595 461.274C147.9 470.426 154.683 521.413 148.6 518.298C143.734 515.806 134.817 483.648 130.333 489.617C129.559 494.87 131.474 508.814 145.33 522.571Z" fill="url(#paint26_linear)"/>
<path d="M145.33 522.571C159.186 536.327 155.691 565.38 152.211 578.187L164.761 595.199C162.813 579.454 162.861 564.493 160.505 545.446C160.128 542.399 157.927 519.257 164.311 514.808C174.315 511.249 158.503 466.33 157.952 517.141C157.407 567.446 153.737 521.318 151.753 490.061C171.704 482.005 169.678 454.582 151.093 484.728C150.517 468.555 152.615 454.758 151.423 437.502C149.621 411.425 138.967 421.252 143.096 435.438C147.661 449.312 149.149 476.812 139.276 450.608C130.086 426.218 130.481 448.602 140.595 461.274C147.9 470.426 154.683 521.413 148.6 518.298C143.734 515.806 134.817 483.648 130.333 489.617C129.559 494.87 131.474 508.814 145.33 522.571Z" fill="url(#paint27_linear)"/>
</g>
<ellipse rx="62.6472" ry="25.659" transform="matrix(0.997982 0.063504 -0.109182 0.994022 533.637 445.149)" fill="#C1F7FF"/>
<ellipse rx="58.6259" ry="22.5144" transform="matrix(0.724007 0.689793 -0.763573 0.645721 563.568 379.103)" fill="#C1F7FF"/>
<path d="M606.598 434.441L575.626 419.512L565.751 420.734L549.401 415.934C525.791 407.257 510.411 410.809 505.672 413.669C504.377 412.465 501.161 414.512 499.715 415.686C497.333 414.957 495.099 416.967 494.279 418.064C492.65 417.242 488.513 420.34 486.649 421.992C483.473 421.021 479.75 425.404 478.285 427.717C476.404 427.95 475.201 429.805 474.835 430.703C470.738 431.551 470.79 437.883 471.327 440.944C468.44 445.394 472.316 447.644 474.614 448.212C474.612 451.282 475.969 452.735 476.648 453.077C477.868 452.642 480.703 452.661 482.289 456.217C483.875 459.773 486.431 460.11 487.511 459.835C488.974 458.801 492.497 457.683 494.876 461.482C497.256 465.281 500.325 465.64 501.561 465.345C504.418 463.997 510.905 462.142 513.996 465.512C518.465 470.758 522.474 469.722 523.921 468.548C525.454 466.795 529.671 464.085 534.266 467.268C543.458 472.1 547.745 468.159 548.215 468.101C548.686 468.043 554.75 463.028 558.875 465.503C572.248 469.391 570.894 462.31 574.76 462.685C577.853 462.984 579.149 462.142 579.411 461.683C590.362 460.669 589.792 459.404 588.138 458.898C587.093 458.174 586.154 456.755 590.752 456.869C602.372 455.09 603.26 451.199 602.251 449.477C583.087 433.513 603.566 436.949 606.598 434.441Z" fill="#517C9E"/>
<path d="M606.598 434.441L575.626 419.512L565.751 420.734L549.401 415.934C525.791 407.257 510.411 410.809 505.672 413.669C504.377 412.465 501.161 414.512 499.715 415.686C497.333 414.957 495.099 416.967 494.279 418.064C492.65 417.242 488.513 420.34 486.649 421.992C483.473 421.021 479.75 425.404 478.285 427.717C476.404 427.95 475.201 429.805 474.835 430.703C470.738 431.551 470.79 437.883 471.327 440.944C468.44 445.394 472.316 447.644 474.614 448.212C474.612 451.282 475.969 452.735 476.648 453.077C477.868 452.642 480.703 452.661 482.289 456.217C483.875 459.773 486.431 460.11 487.511 459.835C488.974 458.801 492.497 457.683 494.876 461.482C497.256 465.281 500.325 465.64 501.561 465.345C504.418 463.997 510.905 462.142 513.996 465.512C518.465 470.758 522.474 469.722 523.921 468.548C525.454 466.795 529.671 464.085 534.266 467.268C543.458 472.1 547.745 468.159 548.215 468.101C548.686 468.043 554.75 463.028 558.875 465.503C572.248 469.391 570.894 462.31 574.76 462.685C577.853 462.984 579.149 462.142 579.411 461.683C590.362 460.669 589.792 459.404 588.138 458.898C587.093 458.174 586.154 456.755 590.752 456.869C602.372 455.09 603.26 451.199 602.251 449.477C583.087 433.513 603.566 436.949 606.598 434.441Z" fill="url(#paint28_linear)"/>
<path d="M604.328 433.056L575.376 420.647L569.684 413.566L556.224 405.405C535.754 394.534 527.866 382.643 526.481 378.057C524.927 377.841 524.049 374.674 523.805 373.117C521.826 371.943 521.565 369.436 521.682 368.328C520.137 367.694 519.284 363.377 519.051 361.297C516.413 359.733 516.589 355.014 517.007 352.85C515.923 351.501 516.239 349.747 516.533 349.039C514.374 345.923 518.155 342.648 520.316 341.4C521.075 337.192 524.923 338.545 526.752 339.748C528.568 338.142 530.309 338.269 530.953 338.534C531.488 339.556 533.34 341.396 536.475 340.573C539.61 339.751 541.47 341.242 542.008 342.091C542.347 343.586 543.973 346.468 547.767 346.036C551.561 345.604 553.767 347.418 554.395 348.38C555.453 350.948 558.569 356.149 562.571 356.405C568.578 356.58 570.57 359.738 570.814 361.295C570.773 363.211 571.907 367.378 576.776 368.714C585.607 372.187 586.058 377.043 586.329 377.38C586.6 377.717 587.571 384.293 591.716 385.692C602.703 392.386 597.633 395.202 600.365 397.529C602.551 399.39 602.895 400.676 602.793 401.086C609.306 408.762 608.187 409.05 606.813 408.236C605.706 407.932 604.256 408.06 607.31 411.001C613.805 419.512 612.079 422.124 610.404 422.365C588.508 418.202 603.843 429.768 604.328 433.056Z" fill="#517C9E"/>
<path d="M604.328 433.056L575.376 420.647L569.684 413.566L556.224 405.405C535.754 394.534 527.866 382.643 526.481 378.057C524.927 377.841 524.049 374.674 523.805 373.117C521.826 371.943 521.565 369.436 521.682 368.328C520.137 367.694 519.284 363.377 519.051 361.297C516.413 359.733 516.589 355.014 517.007 352.85C515.923 351.501 516.239 349.747 516.533 349.039C514.374 345.923 518.155 342.648 520.316 341.4C521.075 337.192 524.923 338.545 526.752 339.748C528.568 338.142 530.309 338.269 530.953 338.534C531.488 339.556 533.34 341.396 536.475 340.573C539.61 339.751 541.47 341.242 542.008 342.091C542.347 343.586 543.973 346.468 547.767 346.036C551.561 345.604 553.767 347.418 554.395 348.38C555.453 350.948 558.569 356.149 562.571 356.405C568.578 356.58 570.57 359.738 570.814 361.295C570.773 363.211 571.907 367.378 576.776 368.714C585.607 372.187 586.058 377.043 586.329 377.38C586.6 377.717 587.571 384.293 591.716 385.692C602.703 392.386 597.633 395.202 600.365 397.529C602.551 399.39 602.895 400.676 602.793 401.086C609.306 408.762 608.187 409.05 606.813 408.236C605.706 407.932 604.256 408.06 607.31 411.001C613.805 419.512 612.079 422.124 610.404 422.365C588.508 418.202 603.843 429.768 604.328 433.056Z" fill="url(#paint29_linear)"/>
<path d="M448.516 408.475C449.748 407.94 449.993 408.231 449.966 408.595C448.714 409.627 448.382 410.364 448.037 411.076C447.76 411.645 446.8 411.543 446.354 412.073L443.802 412.292L445.49 411.497C447.078 410.413 447.165 409.457 448.516 408.475Z" fill="url(#paint30_linear)"/>
<path d="M451.17 408.618C452.506 408.557 452.596 408.919 452.412 409.252C450.839 409.776 450.218 410.351 449.596 410.898C449.099 411.336 448.287 410.895 447.655 411.234L445.28 410.523L447.138 410.38C449.033 409.929 449.531 409.059 451.17 408.618Z" fill="url(#paint31_linear)"/>
<path d="M453.442 408.108C453.518 407.681 453.167 407.137 451.792 407.742C450.11 408.481 448.676 409.647 448.476 409.914C447.769 409.847 445.654 409.947 443.876 410.118L440.812 409.296C440.28 409.097 439.867 408.955 439.74 409.008C438.863 409.379 437.547 412.843 437.1 413.569C437.378 413.643 442.6 413.256 443.256 413.043C444.003 412.957 444.678 412.266 445.698 412.265C446.008 412.275 448.291 411.943 448.714 411.519C449.137 411.096 450.174 410.593 450.451 410.395C451.854 408.921 453.314 408.328 453.442 408.108Z" fill="#8FE3F0"/>
<path d="M453.442 408.108C453.518 407.681 453.167 407.137 451.792 407.742C450.11 408.481 448.676 409.647 448.476 409.914C447.769 409.847 445.654 409.947 443.876 410.118L440.812 409.296C440.28 409.097 439.867 408.955 439.74 409.008C438.863 409.379 437.547 412.843 437.1 413.569C437.378 413.643 442.6 413.256 443.256 413.043C444.003 412.957 444.678 412.266 445.698 412.265C446.008 412.275 448.291 411.943 448.714 411.519C449.137 411.096 450.174 410.593 450.451 410.395C451.854 408.921 453.314 408.328 453.442 408.108Z" fill="url(#paint32_linear)"/>
<path d="M432.992 412.376L419.421 413.031L419.463 420.082C424.965 418.125 431.417 416.385 434.88 416.36C437.522 414.427 439.392 414.888 442.044 413.022C444.695 411.156 445.834 411.847 448.133 411.271C448.752 410.893 450.624 410.191 451.459 409.09C451.781 408.819 452.696 408.447 452.361 408.2C451.835 407.812 451.305 407.91 450.323 408.483C448.907 409.308 448.465 409.59 447.478 409.783C446.166 409.904 444.65 409.889 443.073 409.563C441.976 409.413 439.065 410.66 438.893 410.598C438.832 410.576 438.739 410.503 440.104 409.085C440.765 408.399 441.128 408.239 442.069 407.59C444.435 406.251 443.865 404.7 443.264 404.751C442.769 404.826 443.011 404.421 440.961 406.059C439.519 407.211 438.231 408.054 437.93 408.079C437.436 408.579 436.076 409.232 435.167 409.999C433.88 411.083 434.283 412.265 432.992 412.376Z" fill="#8FE3F0"/>
<path d="M432.992 412.376L419.421 413.031L419.463 420.082C424.965 418.125 431.417 416.385 434.88 416.36C437.522 414.427 439.392 414.888 442.044 413.022C444.695 411.156 445.834 411.847 448.133 411.271C448.752 410.893 450.624 410.191 451.459 409.09C451.781 408.819 452.696 408.447 452.361 408.2C451.835 407.812 451.305 407.91 450.323 408.483C448.907 409.308 448.465 409.59 447.478 409.783C446.166 409.904 444.65 409.889 443.073 409.563C441.976 409.413 439.065 410.66 438.893 410.598C438.832 410.576 438.739 410.503 440.104 409.085C440.765 408.399 441.128 408.239 442.069 407.59C444.435 406.251 443.865 404.7 443.264 404.751C442.769 404.826 443.011 404.421 440.961 406.059C439.519 407.211 438.231 408.054 437.93 408.079C437.436 408.579 436.076 409.232 435.167 409.999C433.88 411.083 434.283 412.265 432.992 412.376Z" fill="url(#paint33_radial)"/>
<path d="M432.992 412.376L419.421 413.031L419.463 420.082C424.965 418.125 431.417 416.385 434.88 416.36C437.522 414.427 439.392 414.888 442.044 413.022C444.695 411.156 445.834 411.847 448.133 411.271C448.752 410.893 450.624 410.191 451.459 409.09C451.781 408.819 452.696 408.447 452.361 408.2C451.835 407.812 451.305 407.91 450.323 408.483C448.907 409.308 448.465 409.59 447.478 409.783C446.166 409.904 444.65 409.889 443.073 409.563C441.976 409.413 439.065 410.66 438.893 410.598C438.832 410.576 438.739 410.503 440.104 409.085C440.765 408.399 441.128 408.239 442.069 407.59C444.435 406.251 443.865 404.7 443.264 404.751C442.769 404.826 443.011 404.421 440.961 406.059C439.519 407.211 438.231 408.054 437.93 408.079C437.436 408.579 436.076 409.232 435.167 409.999C433.88 411.083 434.283 412.265 432.992 412.376Z" fill="url(#paint34_radial)"/>
<g filter="url(#filter12_d)">
<path d="M576.327 562.647C591.806 569.627 589.868 591.444 586.963 601.48L601.258 611.102C598.247 600.108 597.393 589.252 593.751 575.953C593.168 573.825 589.442 557.524 595.922 552.919C606.282 548.178 586.851 519.029 589.341 555.984C591.807 592.571 585.138 559.923 581.151 537.692C601.754 527.541 597.954 508.098 580.131 533.968C578.544 522.368 579.928 511.913 577.624 499.66C574.143 481.145 563.475 490.57 568.697 499.963C574.362 509.035 577.597 528.649 565.576 511.786C554.387 496.09 556.158 512.231 567.616 519.233C575.89 524.29 586.143 559.788 579.525 558.844C574.23 558.089 562.861 536.701 558.481 541.998C557.98 545.973 560.848 555.668 576.327 562.647Z" fill="#9AA7E5"/>
<path d="M576.327 562.647C591.806 569.627 589.868 591.444 586.963 601.48L601.258 611.102C598.247 600.108 597.393 589.252 593.751 575.953C593.168 573.825 589.442 557.524 595.922 552.919C606.282 548.178 586.851 519.029 589.341 555.984C591.807 592.571 585.138 559.923 581.151 537.692C601.754 527.541 597.954 508.098 580.131 533.968C578.544 522.368 579.928 511.913 577.624 499.66C574.143 481.145 563.475 490.57 568.697 499.963C574.362 509.035 577.597 528.649 565.576 511.786C554.387 496.09 556.158 512.231 567.616 519.233C575.89 524.29 586.143 559.788 579.525 558.844C574.23 558.089 562.861 536.701 558.481 541.998C557.98 545.973 560.848 555.668 576.327 562.647Z" fill="url(#paint35_linear)"/>
<path d="M576.327 562.647C591.806 569.627 589.868 591.444 586.963 601.48L601.258 611.102C598.247 600.108 597.393 589.252 593.751 575.953C593.168 573.825 589.442 557.524 595.922 552.919C606.282 548.178 586.851 519.029 589.341 555.984C591.807 592.571 585.138 559.923 581.151 537.692C601.754 527.541 597.954 508.098 580.131 533.968C578.544 522.368 579.928 511.913 577.624 499.66C574.143 481.145 563.475 490.57 568.697 499.963C574.362 509.035 577.597 528.649 565.576 511.786C554.387 496.09 556.158 512.231 567.616 519.233C575.89 524.29 586.143 559.788 579.525 558.844C574.23 558.089 562.861 536.701 558.481 541.998C557.98 545.973 560.848 555.668 576.327 562.647Z" fill="url(#paint36_linear)"/>
</g>
<g filter="url(#filter13_d)">
<path d="M582.334 533.453C608.355 534.516 611.581 587.546 606.248 602.71L622.767 585.556C618.088 572.301 617.069 558.063 611.408 542.028C610.503 539.463 604.82 519.409 616.011 509.662C633.803 497.627 601.947 468.686 604.71 517.378C607.445 565.585 597.413 524.989 591.522 497.046C626.928 472.137 621.246 447.868 589.937 492.557C587.701 477.709 590.467 462.801 587.04 447.459C581.861 424.273 563.362 442.817 571.862 452.706C581.125 461.921 585.843 486.728 566.088 470.407C547.702 455.216 550.07 476.113 569.258 479.386C583.116 481.749 599.125 524.262 587.918 526.57C578.953 528.416 560.485 505.616 552.835 515.161C551.826 520.816 556.312 532.391 582.334 533.453Z" fill="#9AA7E5"/>
<path d="M582.334 533.453C608.355 534.516 611.581 587.546 606.248 602.71L622.767 585.556C618.088 572.301 617.069 558.063 611.408 542.028C610.503 539.463 604.82 519.409 616.011 509.662C633.803 497.627 601.947 468.686 604.71 517.378C607.445 565.585 597.413 524.989 591.522 497.046C626.928 472.137 621.246 447.868 589.937 492.557C587.701 477.709 590.467 462.801 587.04 447.459C581.861 424.273 563.362 442.817 571.862 452.706C581.125 461.921 585.843 486.728 566.088 470.407C547.702 455.216 550.07 476.113 569.258 479.386C583.116 481.749 599.125 524.262 587.918 526.57C578.953 528.416 560.485 505.616 552.835 515.161C551.826 520.816 556.312 532.391 582.334 533.453Z" fill="url(#paint37_linear)"/>
<path d="M582.334 533.453C608.355 534.516 611.581 587.546 606.248 602.71L622.767 585.556C618.088 572.301 617.069 558.063 611.408 542.028C610.503 539.463 604.82 519.409 616.011 509.662C633.803 497.627 601.947 468.686 604.71 517.378C607.445 565.585 597.413 524.989 591.522 497.046C626.928 472.137 621.246 447.868 589.937 492.557C587.701 477.709 590.467 462.801 587.04 447.459C581.861 424.273 563.362 442.817 571.862 452.706C581.125 461.921 585.843 486.728 566.088 470.407C547.702 455.216 550.07 476.113 569.258 479.386C583.116 481.749 599.125 524.262 587.918 526.57C578.953 528.416 560.485 505.616 552.835 515.161C551.826 520.816 556.312 532.391 582.334 533.453Z" fill="url(#paint38_linear)"/>
</g>
<path d="M334.608 372.872L276.793 383.383C282.736 388.027 282.811 398.071 282.105 402.512L343.367 391.239C357.14 380.516 342.494 371.071 334.608 372.872Z" fill="url(#paint39_linear)"/>
<path d="M295.5 404L305.5 404L321 404C329.4 404 322.167 418.667 317.5 426L301.5 431.5L295.5 404Z" fill="#8FE3F0"/>
<path d="M344.927 431.697C359.731 408.812 355.113 399.284 348.495 396.334C346.423 400.055 333.424 413.292 332.717 431.155C332.317 441.237 343.037 446.304 347.227 453.969L351.262 450.502L344.927 431.697Z" fill="#191D4F"/>
<ellipse rx="3.58148" ry="9.93367" transform="matrix(0.978936 -0.161965 0.262243 0.974613 278.996 393.101)" fill="url(#paint40_linear)"/>
<ellipse rx="3.58148" ry="9.93367" transform="matrix(0.978936 -0.161965 0.262243 0.974613 278.996 393.101)" fill="black" fill-opacity="0.25"/>
<path d="M380.107 396.747C384.272 390.924 380.964 388.48 378.79 387.986L361.416 392.935L365.722 404.663C368.665 404.097 375.942 402.57 380.107 396.747Z" fill="#C1F7FF"/>
<path d="M364.759 383.546C374.824 373.37 380.736 384.768 382.433 391.739L371.797 395.493C371.702 395.617 371.556 395.648 371.417 395.627L371.797 395.493C372.022 395.199 371.959 394.386 370.841 392.518C369.252 389.862 369.187 394.285 369.353 396.829L365.392 401.775L360.494 390.966L364.759 383.546Z" fill="#101D35"/>
<path d="M208.27 395.272C205.08 392.715 202.264 396.535 202.06 399.03L203.787 400.568C218.8 410.92 235.018 423.159 241.833 426.356C245.16 426.386 264.704 430.338 276.878 429.439C280.299 429.746 293.841 424.834 298.107 424.227C305.489 410.228 301.695 412.28 296.905 410.701C280.751 406.484 273.49 405.856 270.044 407.632C266.146 409.642 248.416 409.438 240.847 410.817C233.058 402.237 212.194 398.418 208.27 395.272Z" fill="#191D4F"/>
<g filter="url(#filter14_d)">
<path d="M215.332 376.794C211.276 375.503 209.886 379.529 208.916 382.226L208.762 383.482C220.05 385.175 244.769 417.874 246.812 420.738C248.446 423.03 273.591 427.598 285.959 429.595C289.263 430.773 298.938 431.827 303.362 432.206C314.998 418.604 309.363 409.374 305.091 406.46C289.144 399.804 288.475 405.246 284.506 406.356C280.016 407.612 269.088 403.19 251.171 404.766C247.181 394.362 229.622 381.34 215.332 376.794Z" fill="#222763"/>
</g>
<path d="M361.019 387.919C366.217 392.394 373.758 405.86 362.339 423.928C350.921 441.997 352.887 429.013 354.695 418.2" stroke="#8FE3F0"/>
<g filter="url(#filter15_d)">
<path d="M157.298 334.897C158.834 338.349 154.873 338.224 152.7 337.73L152.433 337.395C172.112 370.451 166.02 363.01 188.168 388.848C193.047 401.835 198.687 402.026 200.896 400.498L205.334 401.762C202.572 399.065 204.574 395.399 205.921 393.903C197.613 393.424 174.032 354.908 163.281 335.709C161.442 336.842 158.526 335.64 157.298 334.897Z" fill="#1AA9CB"/>
<path d="M157.298 334.897C158.834 338.349 154.873 338.224 152.7 337.73L152.433 337.395C172.112 370.451 166.02 363.01 188.168 388.848C193.047 401.835 198.687 402.026 200.896 400.498L205.334 401.762C202.572 399.065 204.574 395.399 205.921 393.903C197.613 393.424 174.032 354.908 163.281 335.709C161.442 336.842 158.526 335.64 157.298 334.897Z" fill="url(#paint41_linear)"/>
</g>
<g filter="url(#filter16_d)">
<path d="M124.779 369.168C129.083 368.45 127.19 363.846 125.706 361.634L125.236 361.563C168.659 360.574 158.145 358.826 195.095 366.075C210.887 362.305 213.595 368.851 212.975 372.594L216.274 376.926C212.217 375.636 209.263 380.706 208.292 383.403C204.095 373.906 153.21 374.286 128.292 375.664C128.662 372.65 126.105 370.078 124.779 369.168Z" fill="#1AA9CB"/>
<path d="M124.779 369.168C129.083 368.45 127.19 363.846 125.706 361.634L125.236 361.563C168.659 360.574 158.145 358.826 195.095 366.075C210.887 362.305 213.595 368.851 212.975 372.594L216.274 376.926C212.217 375.636 209.263 380.706 208.292 383.403C204.095 373.906 153.21 374.286 128.292 375.664C128.662 372.65 126.105 370.078 124.779 369.168Z" fill="url(#paint42_linear)"/>
</g>
<g filter="url(#filter17_d)">
<path d="M351.253 389.438C326.332 389.536 309.629 398.121 303.943 404.104C318.885 410.364 315.595 422.314 312.083 427.507C318.156 431.097 326.962 428.558 331.106 428.622C354.02 425.363 367.038 405.199 367.139 404.377C367.22 403.72 363.48 395.179 361.6 390.99L351.253 389.438Z" fill="#20245E"/>
</g>
<g filter="url(#filter18_d)">
<path d="M386.308 410.557C359.051 397.71 346.258 404.169 343.268 409.004C347.68 410.838 361.553 415.574 381.754 419.845C401.954 424.117 424.139 419.861 432.707 417.199L427.209 412.682L386.308 410.557Z" fill="#191D4F"/>
</g>
<path d="M606.19 408.493L617.53 380.11L643.31 395.316L631.97 423.699L606.19 408.493Z" fill="#C1F7FF"/>
<path d="M606.19 408.493L617.53 380.11L643.31 395.316L631.97 423.699L606.19 408.493Z" fill="url(#paint43_linear)"/>
<path d="M606.666 409.099L632.667 423.144L662.808 515.958L642.95 496.192L606.666 409.099Z" fill="#8FE3F0"/>
<path d="M606.666 409.099L632.667 423.144L662.808 515.958L642.95 496.192L606.666 409.099Z" fill="url(#paint44_linear)"/>
<path d="M643.066 394.394L657.674 480.042L662.701 516.052L631.146 422.412L643.066 394.394Z" fill="#1AA9CB"/>
<path d="M643.066 394.394L657.674 480.042L662.701 516.052L631.146 422.412L643.066 394.394Z" fill="url(#paint45_linear)"/>
<path d="M655.643 395.974L676.071 374.026L694.947 398.008L674.518 419.955L655.643 395.974Z" fill="#C1F7FF"/>
<path d="M655.643 395.974L676.071 374.026L694.947 398.008L674.518 419.955L655.643 395.974Z" fill="url(#paint46_linear)"/>
<path d="M655.879 396.718L675.363 419.708L671.488 517.27L659.733 491.336L655.879 396.718Z" fill="#8FE3F0"/>
<path d="M655.879 396.718L675.363 419.708L671.488 517.27L659.733 491.336L655.879 396.718Z" fill="url(#paint47_linear)"/>
<path d="M695.038 397.06L679.1 482.022L671.355 517.317L674.191 418.446L695.038 397.06Z" fill="#1AA9CB"/>
<path d="M695.038 397.06L679.1 482.022L671.355 517.317L674.191 418.446L695.038 397.06Z" fill="url(#paint48_linear)"/>
<path d="M638.252 447.835L655.616 430.48L677.141 442.189L659.778 459.544L638.252 447.835Z" fill="#C1F7FF"/>
<path d="M638.252 447.835L655.616 430.48L677.141 442.189L659.778 459.544L638.252 447.835Z" fill="url(#paint49_linear)"/>
<path d="M638.576 448.26L660.578 459.24L668.853 521.078L660.356 515.406L638.576 448.26Z" fill="#8FE3F0"/>
<path d="M638.576 448.26L660.578 459.24L668.853 521.078L660.356 515.406L638.576 448.26Z" fill="url(#paint50_linear)"/>
<path d="M677.113 441.579L673.115 514.331L668.728 521.13L659.27 458.655L677.113 441.579Z" fill="#1AA9CB"/>
<path d="M677.113 441.579L673.115 514.331L668.728 521.13L659.27 458.655L677.113 441.579Z" fill="url(#paint51_linear)"/>
<path d="M446.574 484.258L465.565 447.395L500.783 472.991L486.876 508.996L446.574 484.258Z" fill="#C1F7FF"/>
<path d="M446.574 484.258L465.565 447.395L500.783 472.991L486.876 508.996L446.574 484.258Z" fill="url(#paint52_linear)"/>
<path d="M446.356 483.814L484.874 506.674L536.033 667.518L504.309 626.747L446.356 483.814Z" fill="#8FE3F0"/>
<path d="M446.356 483.814L484.874 506.674L536.033 667.518L504.309 626.747L446.356 483.814Z" fill="url(#paint53_linear)"/>
<path d="M500.387 471.554L530.232 611.952L536.179 660.02L484.279 507.302L500.387 471.554Z" fill="#1AA9CB"/>
<path d="M500.387 471.554L530.232 611.952L536.179 660.02L484.279 507.302L500.387 471.554Z" fill="url(#paint54_linear)"/>
<path d="M422.236 567.625L424.671 530.304L461.623 533.656L462.951 567.945L422.236 567.625Z" fill="#C1F7FF"/>
<path d="M422.236 567.625L424.671 530.304L461.623 533.656L462.951 567.945L422.236 567.625Z" fill="url(#paint55_linear)"/>
<path d="M421.91 567.384L460.551 567.084L556.92 667.456L517.519 650.756L421.91 567.384Z" fill="#8FE3F0"/>
<path d="M421.91 567.384L460.551 567.084L556.92 667.456L517.519 650.756L421.91 567.384Z" fill="url(#paint56_linear)"/>
<path d="M460.811 532.731L533.107 627.247L554.449 661.597L460.293 567.847L460.811 532.731Z" fill="#1AA9CB"/>
<path d="M460.811 532.731L533.107 627.247L554.449 661.597L460.293 567.847L460.811 532.731Z" fill="url(#paint57_linear)"/>
<path d="M503.964 469.6L540.473 445.597L559.779 474.709L532.45 508.626L503.964 469.6Z" fill="#C1F7FF"/>
<path d="M503.964 469.6L540.473 445.597L559.779 474.709L532.45 508.626L503.964 469.6Z" fill="url(#paint58_linear)"/>
<path d="M503.903 469.104L533.551 508.254L524.206 660.611L517.59 607.129L503.903 469.104Z" fill="#8FE3F0"/>
<path d="M503.903 469.104L533.551 508.254L524.206 660.611L517.59 607.129L503.903 469.104Z" fill="url(#paint59_linear)"/>
<path d="M559.938 473.229L537.655 614.561L524.032 660.681L532.096 506.262L559.938 473.229Z" fill="#1AA9CB"/>
<path d="M559.938 473.229L537.655 614.561L524.032 660.681L532.096 506.262L559.938 473.229Z" fill="url(#paint60_linear)"/>
<g filter="url(#filter19_d)">
<path d="M639.815 537.526C625.814 549.828 632.714 574.486 637.915 585.278L625.705 600.306C626.243 586.787 624.64 574.019 625.291 557.665C625.395 555.049 625.448 535.207 617.88 531.666C606.374 529.033 619.325 490.052 625.2 533.402C631.017 576.319 630.325 536.796 629.297 510.036C606.252 503.965 605.667 480.475 629.479 505.457C628.446 491.629 624.681 479.937 624.221 465.159C623.526 442.827 636.405 450.785 633.277 463.061C629.632 475.088 630.824 498.622 639.102 475.855C646.806 454.666 648.684 473.788 638.737 485.013C631.553 493.12 629.283 536.916 635.732 534.012C640.891 531.688 647.487 503.878 653.097 508.792C654.504 513.245 653.816 525.225 639.815 537.526Z" fill="#9AA7E5"/>
<path d="M639.815 537.526C625.814 549.828 632.714 574.486 637.915 585.278L625.705 600.306C626.243 586.787 624.64 574.019 625.291 557.665C625.395 555.049 625.448 535.207 617.88 531.666C606.374 529.033 619.325 490.052 625.2 533.402C631.017 576.319 630.325 536.796 629.297 510.036C606.252 503.965 605.667 480.475 629.479 505.457C628.446 491.629 624.681 479.937 624.221 465.159C623.526 442.827 636.405 450.785 633.277 463.061C629.632 475.088 630.824 498.622 639.102 475.855C646.806 454.666 648.684 473.788 638.737 485.013C631.553 493.12 629.283 536.916 635.732 534.012C640.891 531.688 647.487 503.878 653.097 508.792C654.504 513.245 653.816 525.225 639.815 537.526Z" fill="url(#paint61_linear)"/>
<path d="M639.815 537.526C625.814 549.828 632.714 574.486 637.915 585.278L625.705 600.306C626.243 586.787 624.64 574.019 625.291 557.665C625.395 555.049 625.448 535.207 617.88 531.666C606.374 529.033 619.325 490.052 625.2 533.402C631.017 576.319 630.325 536.796 629.297 510.036C606.252 503.965 605.667 480.475 629.479 505.457C628.446 491.629 624.681 479.937 624.221 465.159C623.526 442.827 636.405 450.785 633.277 463.061C629.632 475.088 630.824 498.622 639.102 475.855C646.806 454.666 648.684 473.788 638.737 485.013C631.553 493.12 629.283 536.916 635.732 534.012C640.891 531.688 647.487 503.878 653.097 508.792C654.504 513.245 653.816 525.225 639.815 537.526Z" fill="url(#paint62_linear)"/>
</g>
<g filter="url(#filter20_f)">
<path d="M536.731 440.849C535.095 446.846 522.852 449.571 509.385 446.937C495.917 444.303 486.326 437.306 487.961 431.31C489.597 425.313 501.84 422.587 515.308 425.222C528.775 427.856 538.367 434.853 536.731 440.849Z" fill="url(#paint63_linear)"/>
</g>
<ellipse cx="527.782" cy="432.837" rx="16.1106" ry="13.9645" transform="rotate(-7.05277 527.782 432.837)" fill="#C4C4C4"/>
<ellipse cx="527.782" cy="432.837" rx="16.1106" ry="13.9645" transform="rotate(-7.05277 527.782 432.837)" fill="url(#paint64_radial)"/>
</g>
<defs>
<filter id="filter0_d" x="19.7833" y="499.339" width="286.691" height="211.762" filterUnits="userSpaceOnUse" color-interpolation-filters="sRGB">
<feFlood flood-opacity="0" result="BackgroundImageFix"/>
<feColorMatrix in="SourceAlpha" type="matrix" values="0 0 0 0 0 0 0 0 0 0 0 0 0 0 0 0 0 0 127 0"/>
<feOffset dy="4"/>
<feGaussianBlur stdDeviation="2"/>
<feColorMatrix type="matrix" values="0 0 0 0 0 0 0 0 0 0 0 0 0 0 0 0 0 0 0.25 0"/>
<feBlend mode="normal" in2="BackgroundImageFix" result="effect1_dropShadow"/>
<feBlend mode="normal" in="SourceGraphic" in2="effect1_dropShadow" result="shape"/>
</filter>
<filter id="filter1_d" x="46.729" y="425.269" width="59.8273" height="125.798" filterUnits="userSpaceOnUse" color-interpolation-filters="sRGB">
<feFlood flood-opacity="0" result="BackgroundImageFix"/>
<feColorMatrix in="SourceAlpha" type="matrix" values="0 0 0 0 0 0 0 0 0 0 0 0 0 0 0 0 0 0 127 0"/>
<feOffset dy="4"/>
<feGaussianBlur stdDeviation="2"/>
<feColorMatrix type="matrix" values="0 0 0 0 0 0 0 0 0 0 0 0 0 0 0 0 0 0 0.25 0"/>
<feBlend mode="normal" in2="BackgroundImageFix" result="effect1_dropShadow"/>
<feBlend mode="normal" in="SourceGraphic" in2="effect1_dropShadow" result="shape"/>
</filter>
<filter id="filter2_d" x="93.271" y="485.149" width="56.4672" height="107.812" filterUnits="userSpaceOnUse" color-interpolation-filters="sRGB">
<feFlood flood-opacity="0" result="BackgroundImageFix"/>
<feColorMatrix in="SourceAlpha" type="matrix" values="0 0 0 0 0 0 0 0 0 0 0 0 0 0 0 0 0 0 127 0"/>
<feOffset dy="4"/>
<feGaussianBlur stdDeviation="2"/>
<feColorMatrix type="matrix" values="0 0 0 0 0 0 0 0 0 0 0 0 0 0 0 0 0 0 0.25 0"/>
<feBlend mode="normal" in2="BackgroundImageFix" result="effect1_dropShadow"/>
<feBlend mode="normal" in="SourceGraphic" in2="effect1_dropShadow" result="shape"/>
</filter>
<filter id="filter3_d" x="78.4615" y="449.31" width="70.6082" height="124.593" filterUnits="userSpaceOnUse" color-interpolation-filters="sRGB">
<feFlood flood-opacity="0" result="BackgroundImageFix"/>
<feColorMatrix in="SourceAlpha" type="matrix" values="0 0 0 0 0 0 0 0 0 0 0 0 0 0 0 0 0 0 127 0"/>
<feOffset dy="4"/>
<feGaussianBlur stdDeviation="2"/>
<feColorMatrix type="matrix" values="0 0 0 0 0 0 0 0 0 0 0 0 0 0 0 0 0 0 0.25 0"/>
<feBlend mode="normal" in2="BackgroundImageFix" result="effect1_dropShadow"/>
<feBlend mode="normal" in="SourceGraphic" in2="effect1_dropShadow" result="shape"/>
</filter>
<filter id="filter4_d" x="551.8" y="363.175" width="276.556" height="266.191" filterUnits="userSpaceOnUse" color-interpolation-filters="sRGB">
<feFlood flood-opacity="0" result="BackgroundImageFix"/>
<feColorMatrix in="SourceAlpha" type="matrix" values="0 0 0 0 0 0 0 0 0 0 0 0 0 0 0 0 0 0 127 0"/>
<feOffset dy="4"/>
<feGaussianBlur stdDeviation="2"/>
<feColorMatrix type="matrix" values="0 0 0 0 0 0 0 0 0 0 0 0 0 0 0 0 0 0 0.25 0"/>
<feBlend mode="normal" in2="BackgroundImageFix" result="effect1_dropShadow"/>
<feBlend mode="normal" in="SourceGraphic" in2="effect1_dropShadow" result="shape"/>
</filter>
<filter id="filter5_d" x="648.282" y="272.98" width="94.6105" height="148.351" filterUnits="userSpaceOnUse" color-interpolation-filters="sRGB">
<feFlood flood-opacity="0" result="BackgroundImageFix"/>
<feColorMatrix in="SourceAlpha" type="matrix" values="0 0 0 0 0 0 0 0 0 0 0 0 0 0 0 0 0 0 127 0"/>
<feOffset dy="4"/>
<feGaussianBlur stdDeviation="2"/>
<feColorMatrix type="matrix" values="0 0 0 0 0 0 0 0 0 0 0 0 0 0 0 0 0 0 0.25 0"/>
<feBlend mode="normal" in2="BackgroundImageFix" result="effect1_dropShadow"/>
<feBlend mode="normal" in="SourceGraphic" in2="effect1_dropShadow" result="shape"/>
</filter>
<filter id="filter6_d" x="667.992" y="368.946" width="81.8962" height="128.505" filterUnits="userSpaceOnUse" color-interpolation-filters="sRGB">
<feFlood flood-opacity="0" result="BackgroundImageFix"/>
<feColorMatrix in="SourceAlpha" type="matrix" values="0 0 0 0 0 0 0 0 0 0 0 0 0 0 0 0 0 0 127 0"/>
<feOffset dy="4"/>
<feGaussianBlur stdDeviation="2"/>
<feColorMatrix type="matrix" values="0 0 0 0 0 0 0 0 0 0 0 0 0 0 0 0 0 0 0.25 0"/>
<feBlend mode="normal" in2="BackgroundImageFix" result="effect1_dropShadow"/>
<feBlend mode="normal" in="SourceGraphic" in2="effect1_dropShadow" result="shape"/>
</filter>
<filter id="filter7_d" x="633.639" y="328.096" width="130.658" height="130.919" filterUnits="userSpaceOnUse" color-interpolation-filters="sRGB">
<feFlood flood-opacity="0" result="BackgroundImageFix"/>
<feColorMatrix in="SourceAlpha" type="matrix" values="0 0 0 0 0 0 0 0 0 0 0 0 0 0 0 0 0 0 127 0"/>
<feOffset dy="4"/>
<feGaussianBlur stdDeviation="2"/>
<feColorMatrix type="matrix" values="0 0 0 0 0 0 0 0 0 0 0 0 0 0 0 0 0 0 0.25 0"/>
<feBlend mode="normal" in2="BackgroundImageFix" result="effect1_dropShadow"/>
<feBlend mode="normal" in="SourceGraphic" in2="effect1_dropShadow" result="shape"/>
</filter>
<filter id="filter8_d" x="336.932" y="375.339" width="69.2363" height="299.431" filterUnits="userSpaceOnUse" color-interpolation-filters="sRGB">
<feFlood flood-opacity="0" result="BackgroundImageFix"/>
<feColorMatrix in="SourceAlpha" type="matrix" values="0 0 0 0 0 0 0 0 0 0 0 0 0 0 0 0 0 0 127 0"/>
<feOffset dy="4"/>
<feGaussianBlur stdDeviation="2"/>
<feColorMatrix type="matrix" values="0 0 0 0 0 0 0 0 0 0 0 0 0 0 0 0 0 0 0.25 0"/>
<feBlend mode="normal" in2="BackgroundImageFix" result="effect1_dropShadow"/>
<feBlend mode="normal" in="SourceGraphic" in2="effect1_dropShadow" result="shape"/>
</filter>
<filter id="filter9_d" x="284.89" y="496.002" width="50.5995" height="187.33" filterUnits="userSpaceOnUse" color-interpolation-filters="sRGB">
<feFlood flood-opacity="0" result="BackgroundImageFix"/>
<feColorMatrix in="SourceAlpha" type="matrix" values="0 0 0 0 0 0 0 0 0 0 0 0 0 0 0 0 0 0 127 0"/>
<feOffset dy="4"/>
<feGaussianBlur stdDeviation="2"/>
<feColorMatrix type="matrix" values="0 0 0 0 0 0 0 0 0 0 0 0 0 0 0 0 0 0 0.25 0"/>
<feBlend mode="normal" in2="BackgroundImageFix" result="effect1_dropShadow"/>
<feBlend mode="normal" in="SourceGraphic" in2="effect1_dropShadow" result="shape"/>
</filter>
<filter id="filter10_d" x="257.996" y="428.171" width="110.602" height="207.465" filterUnits="userSpaceOnUse" color-interpolation-filters="sRGB">
<feFlood flood-opacity="0" result="BackgroundImageFix"/>
<feColorMatrix in="SourceAlpha" type="matrix" values="0 0 0 0 0 0 0 0 0 0 0 0 0 0 0 0 0 0 127 0"/>
<feOffset dy="4"/>
<feGaussianBlur stdDeviation="2"/>
<feColorMatrix type="matrix" values="0 0 0 0 0 0 0 0 0 0 0 0 0 0 0 0 0 0 0.25 0"/>
<feBlend mode="normal" in2="BackgroundImageFix" result="effect1_dropShadow"/>
<feBlend mode="normal" in="SourceGraphic" in2="effect1_dropShadow" result="shape"/>
</filter>
<filter id="filter11_d" x="117.636" y="419.546" width="67.1077" height="186.33" filterUnits="userSpaceOnUse" color-interpolation-filters="sRGB">
<feFlood flood-opacity="0" result="BackgroundImageFix"/>
<feColorMatrix in="SourceAlpha" type="matrix" values="0 0 0 0 0 0 0 0 0 0 0 0 0 0 0 0 0 0 127 0"/>
<feOffset dy="4"/>
<feGaussianBlur stdDeviation="2"/>
<feColorMatrix type="matrix" values="0 0 0 0 0 0 0 0 0 0 0 0 0 0 0 0 0 0 0.25 0"/>
<feBlend mode="normal" in2="BackgroundImageFix" result="effect1_dropShadow"/>
<feBlend mode="normal" in="SourceGraphic" in2="effect1_dropShadow" result="shape"/>
</filter>
<filter id="filter12_d" x="554.043" y="489.044" width="51.2149" height="130.058" filterUnits="userSpaceOnUse" color-interpolation-filters="sRGB">
<feFlood flood-opacity="0" result="BackgroundImageFix"/>
<feColorMatrix in="SourceAlpha" type="matrix" values="0 0 0 0 0 0 0 0 0 0 0 0 0 0 0 0 0 0 127 0"/>
<feOffset dy="4"/>
<feGaussianBlur stdDeviation="2"/>
<feColorMatrix type="matrix" values="0 0 0 0 0 0 0 0 0 0 0 0 0 0 0 0 0 0 0.25 0"/>
<feBlend mode="normal" in2="BackgroundImageFix" result="effect1_dropShadow"/>
<feBlend mode="normal" in="SourceGraphic" in2="effect1_dropShadow" result="shape"/>
</filter>
<filter id="filter13_d" x="548.706" y="436.289" width="78.0604" height="174.421" filterUnits="userSpaceOnUse" color-interpolation-filters="sRGB">
<feFlood flood-opacity="0" result="BackgroundImageFix"/>
<feColorMatrix in="SourceAlpha" type="matrix" values="0 0 0 0 0 0 0 0 0 0 0 0 0 0 0 0 0 0 127 0"/>
<feOffset dy="4"/>
<feGaussianBlur stdDeviation="2"/>
<feColorMatrix type="matrix" values="0 0 0 0 0 0 0 0 0 0 0 0 0 0 0 0 0 0 0.25 0"/>
<feBlend mode="normal" in2="BackgroundImageFix" result="effect1_dropShadow"/>
<feBlend mode="normal" in="SourceGraphic" in2="effect1_dropShadow" result="shape"/>
</filter>
<filter id="filter14_d" x="204.762" y="376.545" width="109.516" height="63.6611" filterUnits="userSpaceOnUse" color-interpolation-filters="sRGB">
<feFlood flood-opacity="0" result="BackgroundImageFix"/>
<feColorMatrix in="SourceAlpha" type="matrix" values="0 0 0 0 0 0 0 0 0 0 0 0 0 0 0 0 0 0 127 0"/>
<feOffset dy="4"/>
<feGaussianBlur stdDeviation="2"/>
<feColorMatrix type="matrix" values="0 0 0 0 0 0 0 0 0 0 0 0 0 0 0 0 0 0 0.25 0"/>
<feBlend mode="normal" in2="BackgroundImageFix" result="effect1_dropShadow"/>
<feBlend mode="normal" in="SourceGraphic" in2="effect1_dropShadow" result="shape"/>
</filter>
<filter id="filter15_d" x="148.433" y="334.897" width="61.4876" height="74.8644" filterUnits="userSpaceOnUse" color-interpolation-filters="sRGB">
<feFlood flood-opacity="0" result="BackgroundImageFix"/>
<feColorMatrix in="SourceAlpha" type="matrix" values="0 0 0 0 0 0 0 0 0 0 0 0 0 0 0 0 0 0 127 0"/>
<feOffset dy="4"/>
<feGaussianBlur stdDeviation="2"/>
<feColorMatrix type="matrix" values="0 0 0 0 0 0 0 0 0 0 0 0 0 0 0 0 0 0 0.25 0"/>
<feBlend mode="normal" in2="BackgroundImageFix" result="effect1_dropShadow"/>
<feBlend mode="normal" in="SourceGraphic" in2="effect1_dropShadow" result="shape"/>
</filter>
<filter id="filter16_d" x="120.779" y="360.636" width="99.4945" height="30.7665" filterUnits="userSpaceOnUse" color-interpolation-filters="sRGB">
<feFlood flood-opacity="0" result="BackgroundImageFix"/>
<feColorMatrix in="SourceAlpha" type="matrix" values="0 0 0 0 0 0 0 0 0 0 0 0 0 0 0 0 0 0 127 0"/>
<feOffset dy="4"/>
<feGaussianBlur stdDeviation="2"/>
<feColorMatrix type="matrix" values="0 0 0 0 0 0 0 0 0 0 0 0 0 0 0 0 0 0 0.25 0"/>
<feBlend mode="normal" in2="BackgroundImageFix" result="effect1_dropShadow"/>
<feBlend mode="normal" in="SourceGraphic" in2="effect1_dropShadow" result="shape"/>
</filter>
<filter id="filter17_d" x="299.943" y="389.438" width="71.1967" height="47.9959" filterUnits="userSpaceOnUse" color-interpolation-filters="sRGB">
<feFlood flood-opacity="0" result="BackgroundImageFix"/>
<feColorMatrix in="SourceAlpha" type="matrix" values="0 0 0 0 0 0 0 0 0 0 0 0 0 0 0 0 0 0 127 0"/>
<feOffset dy="4"/>
<feGaussianBlur stdDeviation="2"/>
<feColorMatrix type="matrix" values="0 0 0 0 0 0 0 0 0 0 0 0 0 0 0 0 0 0 0.25 0"/>
<feBlend mode="normal" in2="BackgroundImageFix" result="effect1_dropShadow"/>
<feBlend mode="normal" in="SourceGraphic" in2="effect1_dropShadow" result="shape"/>
</filter>
<filter id="filter18_d" x="339.268" y="403.028" width="97.439" height="26.633" filterUnits="userSpaceOnUse" color-interpolation-filters="sRGB">
<feFlood flood-opacity="0" result="BackgroundImageFix"/>
<feColorMatrix in="SourceAlpha" type="matrix" values="0 0 0 0 0 0 0 0 0 0 0 0 0 0 0 0 0 0 127 0"/>
<feOffset dy="4"/>
<feGaussianBlur stdDeviation="2"/>
<feColorMatrix type="matrix" values="0 0 0 0 0 0 0 0 0 0 0 0 0 0 0 0 0 0 0.25 0"/>
<feBlend mode="normal" in2="BackgroundImageFix" result="effect1_dropShadow"/>
<feBlend mode="normal" in="SourceGraphic" in2="effect1_dropShadow" result="shape"/>
</filter>
<filter id="filter19_d" x="607.816" y="451.041" width="49.7862" height="157.265" filterUnits="userSpaceOnUse" color-interpolation-filters="sRGB">
<feFlood flood-opacity="0" result="BackgroundImageFix"/>
<feColorMatrix in="SourceAlpha" type="matrix" values="0 0 0 0 0 0 0 0 0 0 0 0 0 0 0 0 0 0 127 0"/>
<feOffset dy="4"/>
<feGaussianBlur stdDeviation="2"/>
<feColorMatrix type="matrix" values="0 0 0 0 0 0 0 0 0 0 0 0 0 0 0 0 0 0 0.25 0"/>
<feBlend mode="normal" in2="BackgroundImageFix" result="effect1_dropShadow"/>
<feBlend mode="normal" in="SourceGraphic" in2="effect1_dropShadow" result="shape"/>
</filter>
<filter id="filter20_f" x="483.78" y="420.217" width="57.1329" height="31.7242" filterUnits="userSpaceOnUse" color-interpolation-filters="sRGB">
<feFlood flood-opacity="0" result="BackgroundImageFix"/>
<feBlend mode="normal" in="SourceGraphic" in2="BackgroundImageFix" result="shape"/>
<feGaussianBlur stdDeviation="2" result="effect1_foregroundBlur"/>
</filter>
<radialGradient id="paint0_radial" cx="0" cy="0" r="1" gradientUnits="userSpaceOnUse" gradientTransform="translate(499.425 81.7227) rotate(97.9912) scale(551.03 666.567)">
<stop stop-color="#8FE3F0"/>
<stop offset="1" stop-color="#1AA9CB" stop-opacity="0"/>
</radialGradient>
<radialGradient id="paint1_radial" cx="0" cy="0" r="1" gradientUnits="userSpaceOnUse" gradientTransform="translate(528.715 133.53) rotate(110.075) scale(597.303 604.57)">
<stop stop-color="#C1F7FF"/>
<stop offset="0.515625" stop-color="#007A9A"/>
<stop offset="1" stop-color="#003C58"/>
</radialGradient>
<linearGradient id="paint2_linear" x1="60.1247" y1="504.843" x2="103.498" y2="496.308" gradientUnits="userSpaceOnUse">
<stop stop-color="#AE82A7"/>
<stop offset="0.883299" stop-color="white" stop-opacity="0"/>
</linearGradient>
<linearGradient id="paint3_linear" x1="60.1247" y1="504.843" x2="103.498" y2="496.308" gradientUnits="userSpaceOnUse">
<stop stop-color="#AE82A7"/>
<stop offset="0.883299" stop-color="white" stop-opacity="0"/>
</linearGradient>
<linearGradient id="paint4_linear" x1="141.633" y1="548.257" x2="98.8461" y2="550.019" gradientUnits="userSpaceOnUse">
<stop stop-color="#AE82A7"/>
<stop offset="0.883299" stop-color="white" stop-opacity="0"/>
</linearGradient>
<linearGradient id="paint5_linear" x1="141.633" y1="548.257" x2="98.8461" y2="550.019" gradientUnits="userSpaceOnUse">
<stop stop-color="#AE82A7"/>
<stop offset="0.883299" stop-color="white" stop-opacity="0"/>
</linearGradient>
<linearGradient id="paint6_linear" x1="134.862" y1="540.681" x2="64.4518" y2="507.856" gradientUnits="userSpaceOnUse">
<stop stop-color="#AE82A7"/>
<stop offset="0.883299" stop-color="white" stop-opacity="0"/>
</linearGradient>
<linearGradient id="paint7_linear" x1="134.862" y1="540.681" x2="64.4518" y2="507.856" gradientUnits="userSpaceOnUse">
<stop stop-color="#AE82A7"/>
<stop offset="0.883299" stop-color="white" stop-opacity="0"/>
</linearGradient>
<linearGradient id="paint8_linear" x1="623.024" y1="541.688" x2="469.689" y2="522.391" gradientUnits="userSpaceOnUse">
<stop stop-color="#6D6D6D"/>
<stop offset="1" stop-color="white" stop-opacity="0"/>
</linearGradient>
<linearGradient id="paint9_linear" x1="729.015" y1="353.697" x2="689.776" y2="374.379" gradientUnits="userSpaceOnUse">
<stop stop-color="#AE82A7"/>
<stop offset="0.883299" stop-color="white" stop-opacity="0"/>
</linearGradient>
<linearGradient id="paint10_linear" x1="729.015" y1="353.697" x2="689.776" y2="374.379" gradientUnits="userSpaceOnUse">
<stop stop-color="#AE82A7"/>
<stop offset="0.883299" stop-color="white" stop-opacity="0"/>
</linearGradient>
<linearGradient id="paint11_linear" x1="704.274" y1="460.823" x2="740.102" y2="436.731" gradientUnits="userSpaceOnUse">
<stop stop-color="#AE82A7"/>
<stop offset="0.883299" stop-color="white" stop-opacity="0"/>
</linearGradient>
<linearGradient id="paint12_linear" x1="704.274" y1="460.823" x2="740.102" y2="436.731" gradientUnits="userSpaceOnUse">
<stop stop-color="#AE82A7"/>
<stop offset="0.883299" stop-color="white" stop-opacity="0"/>
</linearGradient>
<linearGradient id="paint13_linear" x1="703.026" y1="447.308" x2="752.639" y2="377.516" gradientUnits="userSpaceOnUse">
<stop stop-color="#AE82A7"/>
<stop offset="0.883299" stop-color="white" stop-opacity="0"/>
</linearGradient>
<linearGradient id="paint14_linear" x1="703.026" y1="447.308" x2="752.639" y2="377.516" gradientUnits="userSpaceOnUse">
<stop stop-color="#AE82A7"/>
<stop offset="0.883299" stop-color="white" stop-opacity="0"/>
</linearGradient>
<radialGradient id="paint15_radial" cx="0" cy="0" r="1" gradientUnits="userSpaceOnUse" gradientTransform="translate(355.803 456.124) rotate(127.449) scale(2.93802 8.36491)">
<stop stop-color="#1AA9CB"/>
<stop offset="1" stop-color="#1AA9CB" stop-opacity="0"/>
</radialGradient>
<radialGradient id="paint16_radial" cx="0" cy="0" r="1" gradientUnits="userSpaceOnUse" gradientTransform="translate(345.612 446.208) rotate(60.1505) scale(12.3054 1.49535)">
<stop stop-color="#1AA9CB" stop-opacity="0.5"/>
<stop offset="1" stop-color="#1AA9CB" stop-opacity="0"/>
</radialGradient>
<linearGradient id="paint17_linear" x1="359.495" y1="461.578" x2="358.498" y2="464.288" gradientUnits="userSpaceOnUse">
<stop stop-color="#8FE3F0"/>
<stop offset="0.520833" stop-color="#1AA9CB"/>
<stop offset="0.947917" stop-color="#8FE3F0"/>
<stop offset="1" stop-color="#8FE3F0"/>
</linearGradient>
<linearGradient id="paint18_linear" x1="354.902" y1="460.912" x2="354.631" y2="464.607" gradientUnits="userSpaceOnUse">
<stop stop-color="#1AA9CB"/>
<stop offset="1" stop-color="white" stop-opacity="0"/>
</linearGradient>
<radialGradient id="paint19_radial" cx="0" cy="0" r="1" gradientUnits="userSpaceOnUse" gradientTransform="translate(352.241 455.313) rotate(-24.0621) scale(4.41234 8.65706)">
<stop stop-color="white" stop-opacity="0"/>
<stop offset="0.473958" stop-color="#C1F7FF"/>
<stop offset="1" stop-color="#1AA9CB"/>
</radialGradient>
<linearGradient id="paint20_linear" x1="402.44" y1="564.004" x2="354.993" y2="570.84" gradientUnits="userSpaceOnUse">
<stop stop-color="#AE82A7"/>
<stop offset="0.883299" stop-color="white" stop-opacity="0"/>
</linearGradient>
<linearGradient id="paint21_linear" x1="402.44" y1="564.004" x2="354.993" y2="570.84" gradientUnits="userSpaceOnUse">
<stop stop-color="#AE82A7"/>
<stop offset="0.883299" stop-color="white" stop-opacity="0"/>
</linearGradient>
<linearGradient id="paint22_linear" x1="297.359" y1="619.172" x2="344.848" y2="608.453" gradientUnits="userSpaceOnUse">
<stop stop-color="#AE82A7"/>
<stop offset="0.883299" stop-color="white" stop-opacity="0"/>
</linearGradient>
<linearGradient id="paint23_linear" x1="297.359" y1="619.172" x2="344.848" y2="608.453" gradientUnits="userSpaceOnUse">
<stop stop-color="#AE82A7"/>
<stop offset="0.883299" stop-color="white" stop-opacity="0"/>
</linearGradient>
<linearGradient id="paint24_linear" x1="301.106" y1="602.449" x2="385.094" y2="552.945" gradientUnits="userSpaceOnUse">
<stop stop-color="#AE82A7"/>
<stop offset="0.883299" stop-color="white" stop-opacity="0"/>
</linearGradient>
<linearGradient id="paint25_linear" x1="301.106" y1="602.449" x2="385.094" y2="552.945" gradientUnits="userSpaceOnUse">
<stop stop-color="#AE82A7"/>
<stop offset="0.883299" stop-color="white" stop-opacity="0"/>
</linearGradient>
<linearGradient id="paint26_linear" x1="135.992" y1="539.197" x2="179.385" y2="531.781" gradientUnits="userSpaceOnUse">
<stop stop-color="#AE82A7"/>
<stop offset="0.883299" stop-color="white" stop-opacity="0"/>
</linearGradient>
<linearGradient id="paint27_linear" x1="135.992" y1="539.197" x2="179.385" y2="531.781" gradientUnits="userSpaceOnUse">
<stop stop-color="#AE82A7"/>
<stop offset="0.883299" stop-color="white" stop-opacity="0"/>
</linearGradient>
<linearGradient id="paint28_linear" x1="591.227" y1="449.135" x2="485.733" y2="431.681" gradientUnits="userSpaceOnUse">
<stop stop-color="white"/>
<stop offset="1" stop-color="white" stop-opacity="0"/>
</linearGradient>
<linearGradient id="paint29_linear" x1="603.041" y1="415.351" x2="524.615" y2="355.085" gradientUnits="userSpaceOnUse">
<stop stop-color="white"/>
<stop offset="1" stop-color="white" stop-opacity="0"/>
</linearGradient>
<linearGradient id="paint30_linear" x1="446.022" y1="409.375" x2="448.244" y2="411.703" gradientUnits="userSpaceOnUse">
<stop stop-color="#8FE3F0"/>
<stop offset="0.520833" stop-color="#1AA9CB"/>
<stop offset="0.947917" stop-color="#8FE3F0"/>
<stop offset="1" stop-color="#8FE3F0"/>
</linearGradient>
<linearGradient id="paint31_linear" x1="448.547" y1="408.57" x2="449.74" y2="411.467" gradientUnits="userSpaceOnUse">
<stop stop-color="#8FE3F0"/>
<stop offset="0.520833" stop-color="#1AA9CB"/>
<stop offset="0.947917" stop-color="#8FE3F0"/>
<stop offset="1" stop-color="#8FE3F0"/>
</linearGradient>
<linearGradient id="paint32_linear" x1="446.951" y1="410.556" x2="448.848" y2="414.152" gradientUnits="userSpaceOnUse">
<stop stop-color="#1AA9CB"/>
<stop offset="1" stop-color="white" stop-opacity="0"/>
</linearGradient>
<radialGradient id="paint33_radial" cx="0" cy="0" r="1" gradientUnits="userSpaceOnUse" gradientTransform="translate(442.291 408.763) rotate(75.0122) scale(3.7566 12.5499)">
<stop stop-color="#1AA9CB"/>
<stop offset="1" stop-color="#1AA9CB" stop-opacity="0"/>
</radialGradient>
<radialGradient id="paint34_radial" cx="0" cy="0" r="1" gradientUnits="userSpaceOnUse" gradientTransform="translate(424.499 414.951) rotate(-13.205) scale(18.2863 1.92201)">
<stop stop-color="#1AA9CB" stop-opacity="0.5"/>
<stop offset="1" stop-color="#1AA9CB" stop-opacity="0"/>
</radialGradient>
<linearGradient id="paint35_linear" x1="567.461" y1="576.718" x2="612.519" y2="560.928" gradientUnits="userSpaceOnUse">
<stop stop-color="#AE82A7"/>
<stop offset="0.883299" stop-color="white" stop-opacity="0"/>
</linearGradient>
<linearGradient id="paint36_linear" x1="567.461" y1="576.718" x2="612.519" y2="560.928" gradientUnits="userSpaceOnUse">
<stop stop-color="#AE82A7"/>
<stop offset="0.883299" stop-color="white" stop-opacity="0"/>
</linearGradient>
<linearGradient id="paint37_linear" x1="566.712" y1="557.31" x2="647.375" y2="518.811" gradientUnits="userSpaceOnUse">
<stop stop-color="#AE82A7"/>
<stop offset="0.883299" stop-color="white" stop-opacity="0"/>
</linearGradient>
<linearGradient id="paint38_linear" x1="566.712" y1="557.31" x2="647.375" y2="518.811" gradientUnits="userSpaceOnUse">
<stop stop-color="#AE82A7"/>
<stop offset="0.883299" stop-color="white" stop-opacity="0"/>
</linearGradient>
<linearGradient id="paint39_linear" x1="315.589" y1="371.724" x2="319.788" y2="398.725" gradientUnits="userSpaceOnUse">
<stop offset="0.109156" stop-color="#F0F0F0"/>
<stop offset="0.9999" stop-color="#4C4C4C"/>
<stop offset="1" stop-color="#F0F0F0"/>
</linearGradient>
<linearGradient id="paint40_linear" x1="-1.37885" y1="16.0302" x2="-0.860857" y2="-5.63851" gradientUnits="userSpaceOnUse">
<stop stop-color="#717171"/>
<stop offset="0.684112" stop-color="#C4C4C4"/>
</linearGradient>
<linearGradient id="paint41_linear" x1="173.237" y1="373.057" x2="185.365" y2="363.377" gradientUnits="userSpaceOnUse">
<stop stop-color="white"/>
<stop offset="1" stop-color="white" stop-opacity="0"/>
</linearGradient>
<linearGradient id="paint42_linear" x1="171.893" y1="359.99" x2="168.633" y2="381.716" gradientUnits="userSpaceOnUse">
<stop stop-color="white"/>
<stop offset="1" stop-color="white" stop-opacity="0"/>
</linearGradient>
<linearGradient id="paint43_linear" x1="606.19" y1="408.493" x2="643.573" y2="396.109" gradientUnits="userSpaceOnUse">
<stop stop-color="#9AA7E5"/>
<stop offset="1" stop-color="white" stop-opacity="0"/>
</linearGradient>
<linearGradient id="paint44_linear" x1="610.332" y1="421.126" x2="672.035" y2="427.567" gradientUnits="userSpaceOnUse">
<stop stop-color="#9AA7E5"/>
<stop offset="1" stop-color="white" stop-opacity="0"/>
</linearGradient>
<linearGradient id="paint45_linear" x1="647.081" y1="406.961" x2="600.705" y2="451.502" gradientUnits="userSpaceOnUse">
<stop stop-color="#9AA7E5"/>
<stop offset="1" stop-color="white" stop-opacity="0"/>
</linearGradient>
<linearGradient id="paint46_linear" x1="655.643" y1="395.974" x2="694.971" y2="397.304" gradientUnits="userSpaceOnUse">
<stop stop-color="#9AA7E5"/>
<stop offset="1" stop-color="white" stop-opacity="0"/>
</linearGradient>
<linearGradient id="paint47_linear" x1="655.152" y1="409.268" x2="711.432" y2="437.42" gradientUnits="userSpaceOnUse">
<stop stop-color="#9AA7E5"/>
<stop offset="1" stop-color="white" stop-opacity="0"/>
</linearGradient>
<linearGradient id="paint48_linear" x1="694.45" y1="410.245" x2="636.236" y2="435.116" gradientUnits="userSpaceOnUse">
<stop stop-color="#9AA7E5"/>
<stop offset="1" stop-color="white" stop-opacity="0"/>
</linearGradient>
<linearGradient id="paint49_linear" x1="638.252" y1="447.835" x2="677.152" y2="442.264" gradientUnits="userSpaceOnUse">
<stop stop-color="#9AA7E5"/>
<stop offset="1" stop-color="white" stop-opacity="0"/>
</linearGradient>
<linearGradient id="paint50_linear" x1="639.417" y1="456.254" x2="689.064" y2="481.801" gradientUnits="userSpaceOnUse">
<stop stop-color="#9AA7E5"/>
<stop offset="1" stop-color="white" stop-opacity="0"/>
</linearGradient>
<linearGradient id="paint51_linear" x1="678.169" y1="449.947" x2="637.793" y2="489.755" gradientUnits="userSpaceOnUse">
<stop stop-color="#9AA7E5"/>
<stop offset="1" stop-color="white" stop-opacity="0"/>
</linearGradient>
<linearGradient id="paint52_linear" x1="452.931" y1="489.973" x2="501.12" y2="474.009" gradientUnits="userSpaceOnUse">
<stop stop-color="#9AA7E5"/>
<stop offset="1" stop-color="white" stop-opacity="0"/>
</linearGradient>
<linearGradient id="paint53_linear" x1="452.642" y1="504.672" x2="541.898" y2="507.953" gradientUnits="userSpaceOnUse">
<stop stop-color="#9AA7E5"/>
<stop offset="1" stop-color="white" stop-opacity="0"/>
</linearGradient>
<linearGradient id="paint54_linear" x1="506.702" y1="491.197" x2="441.11" y2="545.783" gradientUnits="userSpaceOnUse">
<stop stop-color="#9AA7E5"/>
<stop offset="1" stop-color="white" stop-opacity="0"/>
</linearGradient>
<linearGradient id="paint55_linear" x1="429.285" y1="569.075" x2="463.377" y2="535.434" gradientUnits="userSpaceOnUse">
<stop stop-color="#9AA7E5"/>
<stop offset="1" stop-color="white" stop-opacity="0"/>
</linearGradient>
<linearGradient id="paint56_linear" x1="434.128" y1="580.562" x2="510.002" y2="550.202" gradientUnits="userSpaceOnUse">
<stop stop-color="#9AA7E5"/>
<stop offset="1" stop-color="white" stop-opacity="0"/>
</linearGradient>
<linearGradient id="paint57_linear" x1="472.634" y1="544.957" x2="444.206" y2="619.624" gradientUnits="userSpaceOnUse">
<stop stop-color="#9AA7E5"/>
<stop offset="1" stop-color="white" stop-opacity="0"/>
</linearGradient>
<linearGradient id="paint58_linear" x1="509.172" y1="470.814" x2="559.837" y2="473.675" gradientUnits="userSpaceOnUse">
<stop stop-color="#9AA7E5"/>
<stop offset="1" stop-color="white" stop-opacity="0"/>
</linearGradient>
<linearGradient id="paint59_linear" x1="507.947" y1="491.575" x2="584.231" y2="525.453" gradientUnits="userSpaceOnUse">
<stop stop-color="#9AA7E5"/>
<stop offset="1" stop-color="white" stop-opacity="0"/>
</linearGradient>
<linearGradient id="paint60_linear" x1="558.593" y1="493.818" x2="478.534" y2="519.645" gradientUnits="userSpaceOnUse">
<stop stop-color="#9AA7E5"/>
<stop offset="1" stop-color="white" stop-opacity="0"/>
</linearGradient>
<linearGradient id="paint61_linear" x1="651.932" y1="551.341" x2="602.893" y2="546.401" gradientUnits="userSpaceOnUse">
<stop stop-color="#AE82A7"/>
<stop offset="0.883299" stop-color="white" stop-opacity="0"/>
</linearGradient>
<linearGradient id="paint62_linear" x1="651.932" y1="551.341" x2="602.893" y2="546.401" gradientUnits="userSpaceOnUse">
<stop stop-color="#AE82A7"/>
<stop offset="0.883299" stop-color="white" stop-opacity="0"/>
</linearGradient>
<linearGradient id="paint63_linear" x1="526.202" y1="450.941" x2="500.055" y2="433.206" gradientUnits="userSpaceOnUse">
<stop/>
<stop offset="1" stop-opacity="0"/>
</linearGradient>
<radialGradient id="paint64_radial" cx="0" cy="0" r="1" gradientUnits="userSpaceOnUse" gradientTransform="translate(532.521 429.875) rotate(105.639) scale(17.5773 19.9804)">
<stop stop-color="white"/>
<stop offset="1" stop-color="white" stop-opacity="0"/>
</radialGradient>
</defs>
</svg>
