<svg width="708" height="598" viewBox="0 0 708 598" fill="none" xmlns="http://www.w3.org/2000/svg">
<mask id="mask0" mask-type="alpha" maskUnits="userSpaceOnUse" x="5" y="0" width="682" height="564">
<rect x="5" width="682" height="564" fill="#C4C4C4"/>
</mask>
<g mask="url(#mask0)">
<rect x="-36.4275" y="-106" width="775.122" height="778.818" transform="rotate(6.75239 -36.4275 -106)" fill="url(#paint0_radial)"/>
<g filter="url(#filter0_d)">
<path d="M205.44 614.07L164.523 534.869L107.767 492.49L74.6824 438.637L-16.5983 431.95L-95.0557 537.951L3.09 635.095L205.44 614.07Z" fill="#CCCCCC"/>
</g>
<g filter="url(#filter1_d)">
<path d="M107.954 509.297C121.146 521.364 116.139 546.17 111.986 557.065L123.699 571.893C122.558 558.369 123.379 545.559 121.998 529.2C121.777 526.583 120.763 506.721 127.398 503.043C137.62 500.203 124.074 461.41 120.898 504.909C117.754 547.975 116.454 508.398 116.077 481.592C136.51 475.107 135.894 451.581 115.69 477.011C115.947 463.15 118.765 451.379 118.459 436.578C117.998 414.21 106.801 422.404 110.212 434.638C114.076 446.613 114.148 470.192 105.595 447.549C97.6342 426.473 96.8751 445.649 106.368 456.71C113.224 464.698 117.397 508.5 111.455 505.706C106.701 503.472 99.4159 475.749 94.6087 480.768C93.5604 485.25 94.7619 497.23 107.954 509.297Z" fill="#9AA7E5"/>
<path d="M107.954 509.297C121.146 521.364 116.139 546.17 111.986 557.065L123.699 571.893C122.558 558.369 123.379 545.559 121.998 529.2C121.777 526.583 120.763 506.721 127.398 503.043C137.62 500.203 124.074 461.41 120.898 504.909C117.754 547.975 116.454 508.398 116.077 481.592C136.51 475.107 135.894 451.581 115.69 477.011C115.947 463.15 118.765 451.379 118.459 436.578C117.998 414.21 106.801 422.404 110.212 434.638C114.076 446.613 114.148 470.192 105.595 447.549C97.6342 426.473 96.8751 445.649 106.368 456.71C113.224 464.698 117.397 508.5 111.455 505.706C106.701 503.472 99.4159 475.749 94.6087 480.768C93.5604 485.25 94.7619 497.23 107.954 509.297Z" fill="url(#paint1_linear)"/>
<path d="M107.954 509.297C121.146 521.364 116.139 546.17 111.986 557.065L123.699 571.893C122.558 558.369 123.379 545.559 121.998 529.2C121.777 526.583 120.763 506.721 127.398 503.043C137.62 500.203 124.074 461.41 120.898 504.909C117.754 547.975 116.454 508.398 116.077 481.592C136.51 475.107 135.894 451.581 115.69 477.011C115.947 463.15 118.765 451.379 118.459 436.578C117.998 414.21 106.801 422.404 110.212 434.638C114.076 446.613 114.148 470.192 105.595 447.549C97.6342 426.473 96.8751 445.649 106.368 456.71C113.224 464.698 117.397 508.5 111.455 505.706C106.701 503.472 99.4159 475.749 94.6087 480.768C93.5604 485.25 94.7619 497.23 107.954 509.297Z" fill="url(#paint2_linear)"/>
</g>
<g filter="url(#filter2_d)">
<path d="M56.1978 539.1C45.409 551.112 53.9665 570.927 59.5938 579.333L50.6391 593.41C49.6777 582.02 46.9472 571.52 45.7842 557.741C45.5981 555.537 43.5516 538.909 36.6454 536.865C26.4347 536.062 33.5036 501.829 43.1474 537.427C52.695 572.669 47.9295 539.646 44.2193 517.354C23.6861 515.078 20.7032 495.472 43.8937 513.496C41.5434 502.038 37.0602 492.703 35.1048 480.38C32.1497 461.757 44.106 466.854 42.7009 477.518C40.8226 488.038 44.3337 507.606 49.0782 487.526C53.4942 468.836 57.1322 484.626 49.7295 495.242C44.3831 502.909 47.0422 539.873 52.303 536.654C56.5116 534.078 59.2721 509.978 64.6333 513.411C66.3168 516.969 66.9866 527.089 56.1978 539.1Z" fill="#9AA7E5"/>
<path d="M56.1978 539.1C45.409 551.112 53.9665 570.927 59.5938 579.333L50.6391 593.41C49.6777 582.02 46.9472 571.52 45.7842 557.741C45.5981 555.537 43.5516 538.909 36.6454 536.865C26.4347 536.062 33.5036 501.829 43.1474 537.427C52.695 572.669 47.9295 539.646 44.2193 517.354C23.6861 515.078 20.7032 495.472 43.8937 513.496C41.5434 502.038 37.0602 492.703 35.1048 480.38C32.1497 461.757 44.106 466.854 42.7009 477.518C40.8226 488.038 44.3337 507.606 49.0782 487.526C53.4942 468.836 57.1322 484.626 49.7295 495.242C44.3831 502.909 47.0422 539.873 52.303 536.654C56.5116 534.078 59.2721 509.978 64.6333 513.411C66.3168 516.969 66.9866 527.089 56.1978 539.1Z" fill="url(#paint3_linear)"/>
<path d="M56.1978 539.1C45.409 551.112 53.9665 570.927 59.5938 579.333L50.6391 593.41C49.6777 582.02 46.9472 571.52 45.7842 557.741C45.5981 555.537 43.5516 538.909 36.6454 536.865C26.4347 536.062 33.5036 501.829 43.1474 537.427C52.695 572.669 47.9295 539.646 44.2193 517.354C23.6861 515.078 20.7032 495.472 43.8937 513.496C41.5434 502.038 37.0602 492.703 35.1048 480.38C32.1497 461.757 44.106 466.854 42.7009 477.518C40.8226 488.038 44.3337 507.606 49.0782 487.526C53.4942 468.836 57.1322 484.626 49.7295 495.242C44.3831 502.909 47.0422 539.873 52.303 536.654C56.5116 534.078 59.2721 509.978 64.6333 513.411C66.3168 516.969 66.9866 527.089 56.1978 539.1Z" fill="url(#paint4_linear)"/>
</g>
<g filter="url(#filter3_d)">
<path d="M46.212 515.149C22.858 516.673 28.0885 547.225 33.623 562.311L12.3784 568.022C15.9424 554.67 16.1663 540.399 20.4776 524.247C21.1674 521.663 25.303 501.487 14.7627 491.928C-1.82575 480.196 25.4195 450.661 25.3032 499.453C25.1881 547.758 32.2374 506.942 36.1767 478.866C3.11775 454.558 7.04795 430.162 37.3838 474.344C38.6727 459.441 35.459 444.567 37.7954 429.147C41.3261 405.846 58.8675 424.082 51.7033 434.131C43.819 443.52 40.7828 468.436 57.7571 451.748C73.556 436.216 72.4425 457.178 55.3428 460.793C42.993 463.404 30.6613 506.245 40.8539 508.357C49.0081 510.046 64.5098 486.896 71.8556 496.316C73.0385 501.958 69.5659 513.624 46.212 515.149Z" fill="#9AA7E5"/>
<path d="M46.212 515.149C22.858 516.673 28.0885 547.225 33.623 562.311L12.3784 568.022C15.9424 554.67 16.1663 540.399 20.4776 524.247C21.1674 521.663 25.303 501.487 14.7627 491.928C-1.82575 480.196 25.4195 450.661 25.3032 499.453C25.1881 547.758 32.2374 506.942 36.1767 478.866C3.11775 454.558 7.04795 430.162 37.3838 474.344C38.6727 459.441 35.459 444.567 37.7954 429.147C41.3261 405.846 58.8675 424.082 51.7033 434.131C43.819 443.52 40.7828 468.436 57.7571 451.748C73.556 436.216 72.4425 457.178 55.3428 460.793C42.993 463.404 30.6613 506.245 40.8539 508.357C49.0081 510.046 64.5098 486.896 71.8556 496.316C73.0385 501.958 69.5659 513.624 46.212 515.149Z" fill="url(#paint5_linear)"/>
<path d="M46.212 515.149C22.858 516.673 28.0885 547.225 33.623 562.311L12.3784 568.022C15.9424 554.67 16.1663 540.399 20.4776 524.247C21.1674 521.663 25.303 501.487 14.7627 491.928C-1.82575 480.196 25.4195 450.661 25.3032 499.453C25.1881 547.758 32.2374 506.942 36.1767 478.866C3.11775 454.558 7.04795 430.162 37.3838 474.344C38.6727 459.441 35.459 444.567 37.7954 429.147C41.3261 405.846 58.8675 424.082 51.7033 434.131C43.819 443.52 40.7828 468.436 57.7571 451.748C73.556 436.216 72.4425 457.178 55.3428 460.793C42.993 463.404 30.6613 506.245 40.8539 508.357C49.0081 510.046 64.5098 486.896 71.8556 496.316C73.0385 501.958 69.5659 513.624 46.212 515.149Z" fill="url(#paint6_linear)"/>
</g>
<path d="M324.027 599.818L367.146 519.818L428.272 476.318L463.336 421.818L562.843 413.318L624.443 554.818L545.311 616.818L324.027 599.818Z" fill="#ADADAD"/>
<path d="M324.027 599.818L367.146 519.818L428.272 476.318L463.336 421.818L562.843 413.318L624.443 554.818L545.311 616.818L324.027 599.818Z" fill="url(#paint7_linear)"/>
<g filter="url(#filter4_d)">
<path d="M460.024 641.742L496.219 551.323L550.411 500.091L580.279 438.181L671.068 423.364L733.323 575.725L663.402 648.308L460.024 641.742Z" fill="#CCCCCC"/>
</g>
<g filter="url(#filter5_d)">
<path d="M675.547 355.558C670.344 374.087 687.399 395.399 696.577 403.739L694.068 424.159C688.115 410.518 680.832 398.591 673.63 382.091C672.477 379.45 663.16 359.763 655.542 359.68C645.255 362.28 637.048 317.787 662.114 358.086C686.93 397.984 667.744 359.13 654.313 333.077C633.335 337.493 621.795 314.48 652.296 328.457C644.961 315.221 636.487 305.339 629.155 290.902C618.075 269.086 631.952 271.143 635.284 284.723C638.092 298.293 650.129 321.074 645.897 294.766C641.958 270.28 652.454 288.379 649.93 304.006C648.107 315.292 666.981 359.721 670.68 353.923C673.639 349.285 665.706 318.74 672.434 321.07C675.639 324.846 680.749 337.029 675.547 355.558Z" fill="#9AA7E5"/>
<path d="M675.547 355.558C670.344 374.087 687.399 395.399 696.577 403.739L694.068 424.159C688.115 410.518 680.832 398.591 673.63 382.091C672.477 379.45 663.16 359.763 655.542 359.68C645.255 362.28 637.048 317.787 662.114 358.086C686.93 397.984 667.744 359.13 654.313 333.077C633.335 337.493 621.795 314.48 652.296 328.457C644.961 315.221 636.487 305.339 629.155 290.902C618.075 269.086 631.952 271.143 635.284 284.723C638.092 298.293 650.129 321.074 645.897 294.766C641.958 270.28 652.454 288.379 649.93 304.006C648.107 315.292 666.981 359.721 670.68 353.923C673.639 349.285 665.706 318.74 672.434 321.07C675.639 324.846 680.749 337.029 675.547 355.558Z" fill="url(#paint8_linear)"/>
<path d="M675.547 355.558C670.344 374.087 687.399 395.399 696.577 403.739L694.068 424.159C688.115 410.518 680.832 398.591 673.63 382.091C672.477 379.45 663.16 359.763 655.542 359.68C645.255 362.28 637.048 317.787 662.114 358.086C686.93 397.984 667.744 359.13 654.313 333.077C633.335 337.493 621.795 314.48 652.296 328.457C644.961 315.221 636.487 305.339 629.155 290.902C618.075 269.086 631.952 271.143 635.284 284.723C638.092 298.293 650.129 321.074 645.897 294.766C641.958 270.28 652.454 288.379 649.93 304.006C648.107 315.292 666.981 359.721 670.68 353.923C673.639 349.285 665.706 318.74 672.434 321.07C675.639 324.846 680.749 337.029 675.547 355.558Z" fill="url(#paint9_linear)"/>
</g>
<g filter="url(#filter6_d)">
<path d="M658.993 451.078C674.476 457.03 677.253 480.612 676.706 491.659L691.665 500.561C686.65 489.072 683.62 477.517 677.554 463.62C676.584 461.396 669.818 444.289 674.735 438.711C683.143 432.603 659.469 403.275 669.407 442.648C679.245 481.628 666.415 447.286 658.18 423.847C674.748 410.927 667.264 390.458 656.482 419.956C652.632 407.676 651.714 396.33 647.079 383.422C640.075 363.916 632.363 375.077 639.049 384.629C646.07 393.795 653.079 414.504 638.677 397.613C625.271 381.892 630.232 399.022 642.074 405.396C650.626 409.999 667.298 447.042 661.102 446.684C656.145 446.398 641.393 424.594 638.524 430.705C638.895 435.016 643.51 445.127 658.993 451.078Z" fill="#9AA7E5"/>
<path d="M658.993 451.078C674.476 457.03 677.253 480.612 676.706 491.659L691.665 500.561C686.65 489.072 683.62 477.517 677.554 463.62C676.584 461.396 669.818 444.289 674.735 438.711C683.143 432.603 659.469 403.275 669.407 442.648C679.245 481.628 666.415 447.286 658.18 423.847C674.748 410.927 667.264 390.458 656.482 419.956C652.632 407.676 651.714 396.33 647.079 383.422C640.075 363.916 632.363 375.077 639.049 384.629C646.07 393.795 653.079 414.504 638.677 397.613C625.271 381.892 630.232 399.022 642.074 405.396C650.626 409.999 667.298 447.042 661.102 446.684C656.145 446.398 641.393 424.594 638.524 430.705C638.895 435.016 643.51 445.127 658.993 451.078Z" fill="url(#paint10_linear)"/>
<path d="M658.993 451.078C674.476 457.03 677.253 480.612 676.706 491.659L691.665 500.561C686.65 489.072 683.62 477.517 677.554 463.62C676.584 461.396 669.818 444.289 674.735 438.711C683.143 432.603 659.469 403.275 669.407 442.648C679.245 481.628 666.415 447.286 658.18 423.847C674.748 410.927 667.264 390.458 656.482 419.956C652.632 407.676 651.714 396.33 647.079 383.422C640.075 363.916 632.363 375.077 639.049 384.629C646.07 393.795 653.079 414.504 638.677 397.613C625.271 381.892 630.232 399.022 642.074 405.396C650.626 409.999 667.298 447.042 661.102 446.684C656.145 446.398 641.393 424.594 638.524 430.705C638.895 435.016 643.51 445.127 658.993 451.078Z" fill="url(#paint11_linear)"/>
</g>
<g filter="url(#filter7_d)">
<path d="M655.328 422.76C676.282 412.033 687.443 444.234 690.404 461.676L711.685 456.089C701.755 445.072 694.238 431.423 682.226 418.096C680.304 415.964 666.378 398.663 670.577 383.937C678.885 363.957 640.195 349.699 665.334 396.701C690.222 443.234 663.187 407.546 645.377 382.522C661.458 341.809 645.544 320.331 642.013 378.791C633.252 365.089 628.395 349.063 618.464 335.411C603.457 314.779 597.664 341.53 609.009 347.482C620.637 352.42 636.046 374.868 612.82 367.636C591.203 360.906 602.921 380.543 619.547 375.1C631.555 371.168 664.191 406.05 656.47 413.411C650.294 419.299 625.024 405.065 623.513 417.987C625.387 424.048 634.373 433.487 655.328 422.76Z" fill="#9AA7E5"/>
<path d="M655.328 422.76C676.282 412.033 687.443 444.234 690.404 461.676L711.685 456.089C701.755 445.072 694.238 431.423 682.226 418.096C680.304 415.964 666.378 398.663 670.577 383.937C678.885 363.957 640.195 349.699 665.334 396.701C690.222 443.234 663.187 407.546 645.377 382.522C661.458 341.809 645.544 320.331 642.013 378.791C633.252 365.089 628.395 349.063 618.464 335.411C603.457 314.779 597.664 341.53 609.009 347.482C620.637 352.42 636.046 374.868 612.82 367.636C591.203 360.906 602.921 380.543 619.547 375.1C631.555 371.168 664.191 406.05 656.47 413.411C650.294 419.299 625.024 405.065 623.513 417.987C625.387 424.048 634.373 433.487 655.328 422.76Z" fill="url(#paint12_linear)"/>
<path d="M655.328 422.76C676.282 412.033 687.443 444.234 690.404 461.676L711.685 456.089C701.755 445.072 694.238 431.423 682.226 418.096C680.304 415.964 666.378 398.663 670.577 383.937C678.885 363.957 640.195 349.699 665.334 396.701C690.222 443.234 663.187 407.546 645.377 382.522C661.458 341.809 645.544 320.331 642.013 378.791C633.252 365.089 628.395 349.063 618.464 335.411C603.457 314.779 597.664 341.53 609.009 347.482C620.637 352.42 636.046 374.868 612.82 367.636C591.203 360.906 602.921 380.543 619.547 375.1C631.555 371.168 664.191 406.05 656.47 413.411C650.294 419.299 625.024 405.065 623.513 417.987C625.387 424.048 634.373 433.487 655.328 422.76Z" fill="url(#paint13_linear)"/>
</g>
<path d="M310.213 392.888L307.014 382L302.463 388.48C306.415 397.831 307.934 397.886 309.755 400.474C308.852 403.268 314.893 406.951 317.156 409.402L318.251 409.645C318.45 408.956 317.266 407.275 317.262 407.164C317.258 407.054 316.226 405.886 315.711 405.315C315.375 404.316 314.754 402.231 314.962 401.883C315.33 401.578 315.309 401.027 315.383 401.159C315.457 401.292 315.765 401.233 315.94 401.289C316.079 401.333 316.854 402.393 317.332 403.029C318.904 404.511 319.697 404.049 319.813 403.441C319.661 403.073 319.415 402.487 318.367 401.186C317.418 400.01 316.669 399.285 316.63 399.006C313.618 395.888 313.222 396.368 312.61 396.157C312.121 395.988 310.808 393.907 310.213 392.888Z" fill="#8FE3F0"/>
<path d="M310.213 392.888L307.014 382L302.463 388.48C306.415 397.831 307.934 397.886 309.755 400.474C308.852 403.268 314.893 406.951 317.156 409.402L318.251 409.645C318.45 408.956 317.266 407.275 317.262 407.164C317.258 407.054 316.226 405.886 315.711 405.315C315.375 404.316 314.754 402.231 314.962 401.883C315.33 401.578 315.309 401.027 315.383 401.159C315.457 401.292 315.765 401.233 315.94 401.289C316.079 401.333 316.854 402.393 317.332 403.029C318.904 404.511 319.697 404.049 319.813 403.441C319.661 403.073 319.415 402.487 318.367 401.186C317.418 400.01 316.669 399.285 316.63 399.006C313.618 395.888 313.222 396.368 312.61 396.157C312.121 395.988 310.808 393.907 310.213 392.888Z" fill="url(#paint14_radial)"/>
<path d="M310.213 392.888L307.014 382L302.463 388.48C306.415 397.831 307.934 397.886 309.755 400.474C308.852 403.268 314.893 406.951 317.156 409.402L318.251 409.645C318.45 408.956 317.266 407.275 317.262 407.164C317.258 407.054 316.226 405.886 315.711 405.315C315.375 404.316 314.754 402.231 314.962 401.883C315.33 401.578 315.309 401.027 315.383 401.159C315.457 401.292 315.765 401.233 315.94 401.289C316.079 401.333 316.854 402.393 317.332 403.029C318.904 404.511 319.697 404.049 319.813 403.441C319.661 403.073 319.415 402.487 318.367 401.186C317.418 400.01 316.669 399.285 316.63 399.006C313.618 395.888 313.222 396.368 312.61 396.157C312.121 395.988 310.808 393.907 310.213 392.888Z" fill="url(#paint15_radial)"/>
<path d="M319.429 408.862C320.107 409.68 319.64 410.049 319.321 410.131C318.209 409.44 317.513 409.253 316.838 409.184C316.298 409.129 315.091 408.715 314.554 408.515L313.154 407.034L313.663 406.355C315.268 406.853 318.667 408.05 319.429 408.862Z" fill="url(#paint16_linear)"/>
<path d="M317.929 406.559C319.337 406.961 319.099 407.58 318.804 407.839C318.601 407.924 317.213 407.686 315.533 407.955C315.257 407.942 314.607 407.723 314.113 407.789C313.619 407.855 313.149 407.519 312.976 407.342C312.386 406.783 311.086 405.578 310.604 405.228C310.1 405.019 309.74 404.558 309.624 404.354C310.309 404.088 311.632 404.405 312.358 404.625C313.083 404.845 314.731 405.564 315.35 406.293C315.623 406.214 316.521 406.157 317.929 406.559Z" fill="#8FE3F0"/>
<path d="M317.929 406.559C319.337 406.961 319.099 407.58 318.804 407.839C318.601 407.924 317.213 407.686 315.533 407.955C315.257 407.942 314.607 407.723 314.113 407.789C313.619 407.855 313.149 407.519 312.976 407.342C312.386 406.783 311.086 405.578 310.604 405.228C310.1 405.019 309.74 404.558 309.624 404.354C310.309 404.088 311.632 404.405 312.358 404.625C313.083 404.845 314.731 405.564 315.35 406.293C315.623 406.214 316.521 406.157 317.929 406.559Z" fill="url(#paint17_linear)"/>
<path d="M314.469 404.841C316.303 404.477 316.951 405.155 317.046 405.539C317.217 405.958 313.64 406.202 312.794 406.147C312.116 406.102 310.062 404.694 309.292 404.086C308.957 403.127 306.638 397.023 307.073 396.984C311.514 392.921 312.098 399.053 311.835 402.627C312.473 404.077 312.908 404.452 312.93 404.563C313.246 404.524 314.068 404.717 314.469 404.841Z" fill="#8FE3F0"/>
<path d="M314.469 404.841C316.303 404.477 316.951 405.155 317.046 405.539C317.217 405.958 313.64 406.202 312.794 406.147C312.116 406.102 310.062 404.694 309.292 404.086C308.957 403.127 306.638 397.023 307.073 396.984C311.514 392.921 312.098 399.053 311.835 402.627C312.473 404.077 312.908 404.452 312.93 404.563C313.246 404.524 314.068 404.717 314.469 404.841Z" fill="url(#paint18_radial)"/>
<g filter="url(#filter8_d)">
<path d="M328.08 507.101C316.262 533.786 326.298 581.389 332.793 601.854L323.076 633.63C321.742 606.805 318.446 581.824 316.832 549.374C316.574 544.182 313.906 504.933 306.121 499.206C294.661 495.936 301.81 416.665 313.419 501.405C324.912 585.3 318.828 507.255 314.168 454.507C291.108 446.382 287.324 400.026 313.716 445.421C310.824 418.248 305.59 395.76 303.121 366.612C299.39 322.565 312.902 336.134 311.568 360.938C309.7 385.337 314.076 431.676 318.939 385.26C323.466 342.057 327.899 379.557 319.843 403.432C314.025 420.674 317.839 507.668 323.661 500.837C328.318 495.373 330.868 439.265 336.953 448.039C338.92 456.607 339.898 480.415 328.08 507.101Z" fill="#9AA7E5"/>
<path d="M328.08 507.101C316.262 533.786 326.298 581.389 332.793 601.854L323.076 633.63C321.742 606.805 318.446 581.824 316.832 549.374C316.574 544.182 313.906 504.933 306.121 499.206C294.661 495.936 301.81 416.665 313.419 501.405C324.912 585.3 318.828 507.255 314.168 454.507C291.108 446.382 287.324 400.026 313.716 445.421C310.824 418.248 305.59 395.76 303.121 366.612C299.39 322.565 312.902 336.134 311.568 360.938C309.7 385.337 314.076 431.676 318.939 385.26C323.466 342.057 327.899 379.557 319.843 403.432C314.025 420.674 317.839 507.668 323.661 500.837C328.318 495.373 330.868 439.265 336.953 448.039C338.92 456.607 339.898 480.415 328.08 507.101Z" fill="url(#paint19_linear)"/>
<path d="M328.08 507.101C316.262 533.786 326.298 581.389 332.793 601.854L323.076 633.63C321.742 606.805 318.446 581.824 316.832 549.374C316.574 544.182 313.906 504.933 306.121 499.206C294.661 495.936 301.81 416.665 313.419 501.405C324.912 585.3 318.828 507.255 314.168 454.507C291.108 446.382 287.324 400.026 313.716 445.421C310.824 418.248 305.59 395.76 303.121 366.612C299.39 322.565 312.902 336.134 311.568 360.938C309.7 385.337 314.076 431.676 318.939 385.26C323.466 342.057 327.899 379.557 319.843 403.432C314.025 420.674 317.839 507.668 323.661 500.837C328.318 495.373 330.868 439.265 336.953 448.039C338.92 456.607 339.898 480.415 328.08 507.101Z" fill="url(#paint20_linear)"/>
</g>
<g filter="url(#filter9_d)">
<path d="M242.296 557.628C256.405 572.8 250.101 602.662 245.185 615.697L257.579 634.155C256.761 617.715 258.077 602.221 257.088 582.334C256.93 579.152 256.458 555.034 263.869 550.849C275.195 547.829 261.561 500.246 256.665 552.843C251.818 604.917 251.667 556.889 252.119 524.379C274.786 517.362 274.869 488.82 251.842 518.811C252.572 502.02 256.049 487.867 256.192 469.913C256.407 442.78 243.837 452.251 247.19 467.22C251.05 481.896 250.368 510.482 241.699 482.68C233.63 456.804 232.177 480.017 242.253 493.817C249.53 503.783 252.701 557.051 246.26 553.42C241.108 550.514 233.996 516.609 228.551 522.494C227.254 527.883 228.187 542.456 242.296 557.628Z" fill="#9AA7E5"/>
<path d="M242.296 557.628C256.405 572.8 250.101 602.662 245.185 615.697L257.579 634.155C256.761 617.715 258.077 602.221 257.088 582.334C256.93 579.152 256.458 555.034 263.869 550.849C275.195 547.829 261.561 500.246 256.665 552.843C251.818 604.917 251.667 556.889 252.119 524.379C274.786 517.362 274.869 488.82 251.842 518.811C252.572 502.02 256.049 487.867 256.192 469.913C256.407 442.78 243.837 452.251 247.19 467.22C251.05 481.896 250.368 510.482 241.699 482.68C233.63 456.804 232.177 480.017 242.253 493.817C249.53 503.783 252.701 557.051 246.26 553.42C241.108 550.514 233.996 516.609 228.551 522.494C227.254 527.883 228.187 542.456 242.296 557.628Z" fill="url(#paint21_linear)"/>
<path d="M242.296 557.628C256.405 572.8 250.101 602.662 245.185 615.697L257.579 634.155C256.761 617.715 258.077 602.221 257.088 582.334C256.93 579.152 256.458 555.034 263.869 550.849C275.195 547.829 261.561 500.246 256.665 552.843C251.818 604.917 251.667 556.889 252.119 524.379C274.786 517.362 274.869 488.82 251.842 518.811C252.572 502.02 256.049 487.867 256.192 469.913C256.407 442.78 243.837 452.251 247.19 467.22C251.05 481.896 250.368 510.482 241.699 482.68C233.63 456.804 232.177 480.017 242.253 493.817C249.53 503.783 252.701 557.051 246.26 553.42C241.108 550.514 233.996 516.609 228.551 522.494C227.254 527.883 228.187 542.456 242.296 557.628Z" fill="url(#paint22_linear)"/>
</g>
<g filter="url(#filter10_d)">
<path d="M249.516 521.596C275.981 519.488 275.198 564.072 271.498 586.627L296.293 590.884C290.07 572.473 287.442 552.137 279.914 529.866C278.709 526.303 270.708 498.253 280.946 482.67C297.61 462.875 262.113 425.702 270.369 495.349C278.542 564.301 263.833 507.315 254.737 467.948C287.792 427.174 279.319 393.061 252.629 461.712C248.701 440.67 249.831 418.841 244.641 397.253C236.798 364.63 220.147 393.887 229.861 406.921C240.273 418.88 247.83 453.901 226 433.187C205.682 413.907 210.422 443.633 230.216 445.659C244.512 447.121 265.486 506.029 254.398 510.915C245.528 514.823 224.274 484.612 217.598 499.409C217.21 507.683 223.051 523.704 249.516 521.596Z" fill="#9AA7E5"/>
<path d="M249.516 521.596C275.981 519.488 275.198 564.072 271.498 586.627L296.293 590.884C290.07 572.473 287.442 552.137 279.914 529.866C278.709 526.303 270.708 498.253 280.946 482.67C297.61 462.875 262.113 425.702 270.369 495.349C278.542 564.301 263.833 507.315 254.737 467.948C287.792 427.174 279.319 393.061 252.629 461.712C248.701 440.67 249.831 418.841 244.641 397.253C236.798 364.63 220.147 393.887 229.861 406.921C240.273 418.88 247.83 453.901 226 433.187C205.682 413.907 210.422 443.633 230.216 445.659C244.512 447.121 265.486 506.029 254.398 510.915C245.528 514.823 224.274 484.612 217.598 499.409C217.21 507.683 223.051 523.704 249.516 521.596Z" fill="url(#paint23_linear)"/>
<path d="M249.516 521.596C275.981 519.488 275.198 564.072 271.498 586.627L296.293 590.884C290.07 572.473 287.442 552.137 279.914 529.866C278.709 526.303 270.708 498.253 280.946 482.67C297.61 462.875 262.113 425.702 270.369 495.349C278.542 564.301 263.833 507.315 254.737 467.948C287.792 427.174 279.319 393.061 252.629 461.712C248.701 440.67 249.831 418.841 244.641 397.253C236.798 364.63 220.147 393.887 229.861 406.921C240.273 418.88 247.83 453.901 226 433.187C205.682 413.907 210.422 443.633 230.216 445.659C244.512 447.121 265.486 506.029 254.398 510.915C245.528 514.823 224.274 484.612 217.598 499.409C217.21 507.683 223.051 523.704 249.516 521.596Z" fill="url(#paint24_linear)"/>
</g>
<g filter="url(#filter11_d)">
<path d="M78.0072 513.036C90.0696 528.39 83.0332 556.794 78.0072 569.077L88.3733 587.501C88.3733 571.636 90.2581 556.794 90.2581 537.602C90.2581 534.531 90.9151 511.295 97.7971 507.662C108.163 505.359 97.9856 458.838 91.2005 509.198C84.483 559.055 86.5046 512.825 88.3733 481.561C109.162 476.016 110.519 448.551 88.3733 476.188C89.7869 460.066 93.5634 446.632 94.4988 429.359C95.9123 403.258 84.1326 411.703 86.4886 426.289C89.3157 440.619 87.4155 468.093 80.8343 440.875C74.7089 415.541 72.353 437.804 80.8343 451.622C86.9598 461.602 87.431 513.036 81.7767 509.198C77.2533 506.127 72.353 473.117 67.1699 478.491C65.7563 483.609 65.9448 497.683 78.0072 513.036Z" fill="#9AA7E5"/>
<path d="M78.0072 513.036C90.0696 528.39 83.0332 556.794 78.0072 569.077L88.3733 587.501C88.3733 571.636 90.2581 556.794 90.2581 537.602C90.2581 534.531 90.9151 511.295 97.7971 507.662C108.163 505.359 97.9856 458.838 91.2005 509.198C84.483 559.055 86.5046 512.825 88.3733 481.561C109.162 476.016 110.519 448.551 88.3733 476.188C89.7869 460.066 93.5634 446.632 94.4988 429.359C95.9123 403.258 84.1326 411.703 86.4886 426.289C89.3157 440.619 87.4155 468.093 80.8343 440.875C74.7089 415.541 72.353 437.804 80.8343 451.622C86.9598 461.602 87.431 513.036 81.7767 509.198C77.2533 506.127 72.353 473.117 67.1699 478.491C65.7563 483.609 65.9448 497.683 78.0072 513.036Z" fill="url(#paint25_linear)"/>
<path d="M78.0072 513.036C90.0696 528.39 83.0332 556.794 78.0072 569.077L88.3733 587.501C88.3733 571.636 90.2581 556.794 90.2581 537.602C90.2581 534.531 90.9151 511.295 97.7971 507.662C108.163 505.359 97.9856 458.838 91.2005 509.198C84.483 559.055 86.5046 512.825 88.3733 481.561C109.162 476.016 110.519 448.551 88.3733 476.188C89.7869 460.066 93.5634 446.632 94.4988 429.359C95.9123 403.258 84.1326 411.703 86.4886 426.289C89.3157 440.619 87.4155 468.093 80.8343 440.875C74.7089 415.541 72.353 437.804 80.8343 451.622C86.9598 461.602 87.431 513.036 81.7767 509.198C77.2533 506.127 72.353 473.117 67.1699 478.491C65.7563 483.609 65.9448 497.683 78.0072 513.036Z" fill="url(#paint26_linear)"/>
</g>
<ellipse rx="62.6472" ry="25.659" transform="matrix(0.982633 0.185559 -0.230406 0.973095 486.46 430.533)" fill="#C1F7FF"/>
<ellipse rx="58.6259" ry="22.5144" transform="matrix(0.633833 0.77347 -0.83708 0.547081 524.273 368.662)" fill="#C1F7FF"/>
<path d="M560.183 428.865L531.279 410.246H521.328L505.691 403.475C483.326 391.965 467.626 393.601 462.571 395.858C461.434 394.504 457.991 396.14 456.412 397.128C454.137 396.112 451.673 397.833 450.725 398.82C449.209 397.805 444.723 400.372 442.67 401.782C439.638 400.428 435.405 404.321 433.667 406.437C431.772 406.437 430.35 408.13 429.876 408.976C425.707 409.315 424.98 415.606 425.138 418.709C421.726 422.771 425.296 425.48 427.507 426.326C427.128 429.373 428.297 430.981 428.929 431.404C430.192 431.122 433.004 431.489 434.141 435.213C435.278 438.936 437.774 439.585 438.879 439.444C440.459 438.598 444.092 437.921 445.987 441.983C447.882 446.046 450.883 446.779 452.147 446.638C455.148 445.651 461.813 444.607 464.467 448.331C468.258 454.086 472.364 453.55 473.944 452.562C475.681 451.011 480.198 448.838 484.368 452.562C492.897 458.487 497.636 455.101 498.11 455.101C498.583 455.101 505.217 450.87 509.008 453.832C521.802 459.333 521.328 452.139 525.119 452.985C528.151 453.663 529.541 452.985 529.857 452.562C540.85 452.901 540.439 451.575 538.86 450.87C537.912 450.023 537.154 448.5 541.703 449.177C553.454 448.838 554.813 445.086 554.023 443.253C536.965 425.057 556.866 430.981 560.183 428.865Z" fill="#517C9E"/>
<path d="M560.183 428.865L531.279 410.246H521.328L505.691 403.475C483.326 391.965 467.626 393.601 462.571 395.858C461.434 394.504 457.991 396.14 456.412 397.128C454.137 396.112 451.673 397.833 450.725 398.82C449.209 397.805 444.723 400.372 442.67 401.782C439.638 400.428 435.405 404.321 433.667 406.437C431.772 406.437 430.35 408.13 429.876 408.976C425.707 409.315 424.98 415.606 425.138 418.709C421.726 422.771 425.296 425.48 427.507 426.326C427.128 429.373 428.297 430.981 428.929 431.404C430.192 431.122 433.004 431.489 434.141 435.213C435.278 438.936 437.774 439.585 438.879 439.444C440.459 438.598 444.092 437.921 445.987 441.983C447.882 446.046 450.883 446.779 452.147 446.638C455.148 445.651 461.813 444.607 464.467 448.331C468.258 454.086 472.364 453.55 473.944 452.562C475.681 451.011 480.198 448.838 484.368 452.562C492.897 458.487 497.636 455.101 498.11 455.101C498.583 455.101 505.217 450.87 509.008 453.832C521.802 459.333 521.328 452.139 525.119 452.985C528.151 453.663 529.541 452.985 529.857 452.562C540.85 452.901 540.439 451.575 538.86 450.87C537.912 450.023 537.154 448.5 541.703 449.177C553.454 448.838 554.813 445.086 554.023 443.253C536.965 425.057 556.866 430.981 560.183 428.865Z" fill="url(#paint27_linear)"/>
<path d="M558.101 427.211L530.891 411.342L526.112 403.615L513.756 393.864C494.775 380.561 488.407 367.792 487.595 363.07C486.08 362.666 485.598 359.414 485.546 357.839C483.727 356.431 483.775 353.91 484.027 352.826C482.572 352.007 482.256 347.617 482.279 345.525C479.854 343.648 480.608 338.987 481.288 336.89C480.378 335.419 480.907 333.717 481.286 333.05C479.525 329.693 483.68 326.907 485.978 325.934C487.248 321.85 490.901 323.666 492.568 325.084C494.568 323.714 496.28 324.054 496.886 324.395C497.291 325.476 498.904 327.529 502.116 327.097C505.328 326.666 506.991 328.374 507.421 329.283C507.574 330.808 508.834 333.868 512.652 333.905C516.47 333.943 518.437 336.014 518.943 337.045C519.677 339.724 522.131 345.268 526.071 346.014C532.011 346.925 533.6 350.303 533.651 351.878C533.375 353.775 533.989 358.05 538.657 359.973C546.995 364.504 546.847 369.379 547.074 369.747C547.302 370.115 547.458 376.76 551.399 378.658C561.481 386.65 556.104 388.822 558.53 391.466C560.471 393.582 560.654 394.901 560.502 395.295C566.024 403.712 564.878 403.861 563.614 402.884C562.553 402.447 561.098 402.396 563.768 405.689C569.169 414.934 567.135 417.313 565.443 417.348C544.224 410.527 558.023 423.889 558.101 427.211Z" fill="#517C9E"/>
<path d="M558.101 427.211L530.891 411.342L526.112 403.615L513.756 393.864C494.775 380.561 488.407 367.792 487.595 363.07C486.08 362.666 485.598 359.414 485.546 357.839C483.727 356.431 483.775 353.91 484.027 352.826C482.572 352.007 482.256 347.617 482.279 345.525C479.854 343.648 480.608 338.987 481.288 336.89C480.378 335.419 480.907 333.717 481.286 333.05C479.525 329.693 483.68 326.907 485.978 325.934C487.248 321.85 490.901 323.666 492.568 325.084C494.568 323.714 496.28 324.054 496.886 324.395C497.291 325.476 498.904 327.529 502.116 327.097C505.328 326.666 506.991 328.374 507.421 329.283C507.574 330.808 508.834 333.868 512.652 333.905C516.47 333.943 518.437 336.014 518.943 337.045C519.677 339.724 522.131 345.268 526.071 346.014C532.011 346.925 533.6 350.303 533.651 351.878C533.375 353.775 533.989 358.05 538.657 359.973C546.995 364.504 546.847 369.379 547.074 369.747C547.302 370.115 547.458 376.76 551.399 378.658C561.481 386.65 556.104 388.822 558.53 391.466C560.471 393.582 560.654 394.901 560.502 395.295C566.024 403.712 564.878 403.861 563.614 402.884C562.553 402.447 561.098 402.396 563.768 405.689C569.169 414.934 567.135 417.313 565.443 417.348C544.224 410.527 558.023 423.889 558.101 427.211Z" fill="url(#paint28_linear)"/>
<path d="M410.491 374.446C411.834 374.439 411.945 374.803 411.777 375.126C410.22 375.583 409.625 376.13 409.027 376.649C408.549 377.063 407.707 376.592 407.088 376.904L404.656 376.1L406.521 376.034C408.407 375.662 408.863 374.818 410.491 374.446Z" fill="url(#paint29_linear)"/>
<path d="M412.875 375.621C414.127 376.091 414.068 376.459 413.767 376.693C412.115 376.556 411.318 376.84 410.531 377.099C409.902 377.305 409.329 376.58 408.614 376.644L406.711 375.055L408.475 375.655C410.395 375.986 411.195 375.382 412.875 375.621Z" fill="url(#paint30_linear)"/>
<path d="M415.165 376.046C415.402 375.684 415.293 375.046 413.792 375.061C411.954 375.079 410.177 375.586 409.889 375.754C409.265 375.414 407.281 374.674 405.579 374.131L403.085 372.17C402.674 371.777 402.351 371.484 402.213 371.484C401.261 371.48 398.688 374.147 397.992 374.638C398.218 374.815 403.172 376.514 403.858 376.576C404.579 376.791 405.472 376.421 406.41 376.822C406.691 376.952 408.92 377.546 409.475 377.323C410.031 377.1 411.182 377.045 411.515 376.973C413.385 376.17 414.96 376.199 415.165 376.046Z" fill="#8FE3F0"/>
<path d="M415.165 376.046C415.402 375.684 415.293 375.046 413.792 375.061C411.954 375.079 410.177 375.586 409.889 375.754C409.265 375.414 407.281 374.674 405.579 374.131L403.085 372.17C402.674 371.777 402.351 371.484 402.213 371.484C401.261 371.48 398.688 374.147 397.992 374.638C398.218 374.815 403.172 376.514 403.858 376.576C404.579 376.791 405.472 376.421 406.41 376.822C406.691 376.952 408.92 377.546 409.475 377.323C410.031 377.1 411.182 377.045 411.515 376.973C413.385 376.17 414.96 376.199 415.165 376.046Z" fill="url(#paint31_linear)"/>
<path d="M394.684 371.925L381.95 367.189L379.215 373.687C385.043 374.052 391.659 374.991 394.853 376.331C398.042 375.593 399.58 376.752 402.752 376.08C405.924 375.408 406.699 376.491 409.039 376.866C409.757 376.762 411.754 376.853 412.955 376.169C413.357 376.047 414.345 376.065 414.134 375.706C413.804 375.142 413.277 375.024 412.149 375.164C410.522 375.366 410.005 375.451 409.022 375.24C407.768 374.835 406.381 374.225 405.059 373.305C404.11 372.736 400.943 372.737 400.809 372.612C400.761 372.568 400.705 372.464 402.517 371.698C403.395 371.327 403.792 371.323 404.912 371.096C407.614 370.796 407.7 369.146 407.128 368.957C406.644 368.831 407.025 368.553 404.496 369.253C402.717 369.745 401.201 370.012 400.915 369.918C400.264 370.182 398.756 370.248 397.619 370.595C396.009 371.086 395.915 372.332 394.684 371.925Z" fill="#8FE3F0"/>
<path d="M394.684 371.925L381.95 367.189L379.215 373.687C385.043 374.052 391.659 374.991 394.853 376.331C398.042 375.593 399.58 376.752 402.752 376.08C405.924 375.408 406.699 376.491 409.039 376.866C409.757 376.762 411.754 376.853 412.955 376.169C413.357 376.047 414.345 376.065 414.134 375.706C413.804 375.142 413.277 375.024 412.149 375.164C410.522 375.366 410.005 375.451 409.022 375.24C407.768 374.835 406.381 374.225 405.059 373.305C404.11 372.736 400.943 372.737 400.809 372.612C400.761 372.568 400.705 372.464 402.517 371.698C403.395 371.327 403.792 371.323 404.912 371.096C407.614 370.796 407.7 369.146 407.128 368.957C406.644 368.831 407.025 368.553 404.496 369.253C402.717 369.745 401.201 370.012 400.915 369.918C400.264 370.182 398.756 370.248 397.619 370.595C396.009 371.086 395.915 372.332 394.684 371.925Z" fill="url(#paint32_radial)"/>
<path d="M394.684 371.925L381.95 367.189L379.215 373.687C385.043 374.052 391.659 374.991 394.853 376.331C398.042 375.593 399.58 376.752 402.752 376.08C405.924 375.408 406.699 376.491 409.039 376.866C409.757 376.762 411.754 376.853 412.955 376.169C413.357 376.047 414.345 376.065 414.134 375.706C413.804 375.142 413.277 375.024 412.149 375.164C410.522 375.366 410.005 375.451 409.022 375.24C407.768 374.835 406.381 374.225 405.059 373.305C404.11 372.736 400.943 372.737 400.809 372.612C400.761 372.568 400.705 372.464 402.517 371.698C403.395 371.327 403.792 371.323 404.912 371.096C407.614 370.796 407.7 369.146 407.128 368.957C406.644 368.831 407.025 368.553 404.496 369.253C402.717 369.745 401.201 370.012 400.915 369.918C400.264 370.182 398.756 370.248 397.619 370.595C396.009 371.086 395.915 372.332 394.684 371.925Z" fill="url(#paint33_radial)"/>
<g filter="url(#filter12_d)">
<path d="M509.118 584.525C523.394 594.745 517.966 621.181 513.468 633.121L526.142 646.439C524.911 632.681 525.803 619.327 524.313 602.685C524.075 600.022 522.984 579.704 530.167 574.789C541.233 570.133 526.582 532.402 523.131 577.812C519.714 622.77 518.319 582.162 517.919 554.573C540.039 544.431 539.379 520.267 517.502 549.913C517.784 535.57 520.837 522.952 520.511 507.734C520.019 484.738 507.896 495.082 511.584 507.126C515.763 518.827 515.835 543.139 506.583 521.225C497.972 500.828 497.145 520.738 507.417 530.544C514.836 537.627 519.34 582.108 512.909 580.23C507.764 578.727 499.886 551.359 494.681 557.349C493.545 562.15 494.842 574.306 509.118 584.525Z" fill="#9AA7E5"/>
<path d="M509.118 584.525C523.394 594.745 517.966 621.181 513.468 633.121L526.142 646.439C524.911 632.681 525.803 619.327 524.313 602.685C524.075 600.022 522.984 579.704 530.167 574.789C541.233 570.133 526.582 532.402 523.131 577.812C519.714 622.77 518.319 582.162 517.919 554.573C540.039 544.431 539.379 520.267 517.502 549.913C517.784 535.57 520.837 522.952 520.511 507.734C520.019 484.738 507.896 495.082 511.584 507.126C515.763 518.827 515.835 543.139 506.583 521.225C497.972 500.828 497.145 520.738 507.417 530.544C514.836 537.627 519.34 582.108 512.909 580.23C507.764 578.727 499.886 551.359 494.681 557.349C493.545 562.15 494.842 574.306 509.118 584.525Z" fill="url(#paint34_linear)"/>
<path d="M509.118 584.525C523.394 594.745 517.966 621.181 513.468 633.121L526.142 646.439C524.911 632.681 525.803 619.327 524.313 602.685C524.075 600.022 522.984 579.704 530.167 574.789C541.233 570.133 526.582 532.402 523.131 577.812C519.714 622.77 518.319 582.162 517.919 554.573C540.039 544.431 539.379 520.267 517.502 549.913C517.784 535.57 520.837 522.952 520.511 507.734C520.019 484.738 507.896 495.082 511.584 507.126C515.763 518.827 515.835 543.139 506.583 521.225C497.972 500.828 497.145 520.738 507.417 530.544C514.836 537.627 519.34 582.108 512.909 580.23C507.764 578.727 499.886 551.359 494.681 557.349C493.545 562.15 494.842 574.306 509.118 584.525Z" fill="url(#paint35_linear)"/>
</g>
<g filter="url(#filter13_d)">
<path d="M519.775 549.525C545.486 553.673 540.187 618.798 532.451 636.735L551.633 617.592C549.105 600.89 550.375 583.388 547.317 563.183C546.828 559.95 544.393 534.834 557.088 524.154C576.714 511.404 549.672 472.567 544.609 532.342C539.597 591.521 536.13 540.838 534.754 506.064C573.965 479.517 572.206 449.252 533.897 500.406C534.055 482.027 539.198 464.121 538.25 445.006C536.818 416.12 515.444 436.744 522.312 449.752C530.048 462.022 530.76 492.839 513.731 470.74C497.88 450.172 496.883 475.956 515.443 482.055C528.847 486.459 537.951 540.138 526.434 541.729C517.22 543.002 502.51 513.132 493.369 523.953C491.458 530.748 494.064 545.377 519.775 549.525Z" fill="#9AA7E5"/>
<path d="M519.775 549.525C545.486 553.673 540.187 618.798 532.451 636.735L551.633 617.592C549.105 600.89 550.375 583.388 547.317 563.183C546.828 559.95 544.393 534.834 557.088 524.154C576.714 511.404 549.672 472.567 544.609 532.342C539.597 591.521 536.13 540.838 534.754 506.064C573.965 479.517 572.206 449.252 533.897 500.406C534.055 482.027 539.198 464.121 538.25 445.006C536.818 416.12 515.444 436.744 522.312 449.752C530.048 462.022 530.76 492.839 513.731 470.74C497.88 450.172 496.883 475.956 515.443 482.055C528.847 486.459 537.951 540.138 526.434 541.729C517.22 543.002 502.51 513.132 493.369 523.953C491.458 530.748 494.064 545.377 519.775 549.525Z" fill="url(#paint36_linear)"/>
<path d="M519.775 549.525C545.486 553.673 540.187 618.798 532.451 636.735L551.633 617.592C549.105 600.89 550.375 583.388 547.317 563.183C546.828 559.95 544.393 534.834 557.088 524.154C576.714 511.404 549.672 472.567 544.609 532.342C539.597 591.521 536.13 540.838 534.754 506.064C573.965 479.517 572.206 449.252 533.897 500.406C534.055 482.027 539.198 464.121 538.25 445.006C536.818 416.12 515.444 436.744 522.312 449.752C530.048 462.022 530.76 492.839 513.731 470.74C497.88 450.172 496.883 475.956 515.443 482.055C528.847 486.459 537.951 540.138 526.434 541.729C517.22 543.002 502.51 513.132 493.369 523.953C491.458 530.748 494.064 545.377 519.775 549.525Z" fill="url(#paint37_linear)"/>
</g>
<path d="M307.187 310.557L248.447 308.914C253.305 314.684 251.305 324.527 249.699 328.727L311.968 330.336C327.657 322.684 315.275 310.421 307.187 310.557Z" fill="url(#paint38_linear)"/>
<path d="M262.499 332.947L272.283 335.01L287.45 338.207C295.669 339.94 285.566 352.799 279.487 359.012L262.696 361.093L262.499 332.947Z" fill="#8FE3F0"/>
<path d="M305.148 370.244C324.356 350.906 321.802 340.63 315.935 336.378C313.14 339.592 297.69 349.863 293.313 367.195C290.842 376.978 300.286 384.147 302.804 392.512L307.468 389.952L305.148 370.244Z" fill="#191D4F"/>
<ellipse rx="3.58148" ry="9.93367" transform="matrix(0.991292 0.0434746 0.0555374 1.00775 248.599 318.877)" fill="url(#paint39_linear)"/>
<ellipse rx="3.58148" ry="9.93367" transform="matrix(0.991292 0.0434746 0.0555374 1.00775 248.599 318.877)" fill="black" fill-opacity="0.25"/>
<path d="M346.782 343.304C352.059 338.465 349.326 335.392 347.3 334.459L329.279 335.718L331.073 348.082C334.07 348.136 341.506 348.142 346.782 343.304Z" fill="#C1F7FF"/>
<path d="M334.488 327.221C346.436 319.34 349.868 331.712 350.091 338.883L338.91 340.363C338.791 340.464 338.642 340.465 338.51 340.415L338.91 340.363C339.19 340.122 339.296 339.313 338.588 337.255C337.581 334.328 336.605 338.642 336.242 341.165L331.346 345.189L328.783 333.601L334.488 327.221Z" fill="#101D35"/>
<path d="M178.946 306.411C176.352 303.25 172.809 306.408 172.094 308.807L173.466 310.668C186.021 323.895 199.365 339.216 205.374 343.75C208.623 344.466 226.932 352.365 239.029 353.997C242.313 355.003 256.578 352.99 260.877 353.277C270.989 341.101 266.852 342.327 262.491 339.793C247.555 332.335 240.579 330.222 236.841 331.249C232.612 332.411 215.305 328.554 207.615 328.342C201.764 318.339 182.136 310.299 178.946 306.411Z" fill="#191D4F"/>
<g filter="url(#filter14_d)">
<path d="M189.668 289.787C185.965 287.687 183.775 291.34 182.27 293.779L181.859 294.975C192.555 298.961 209.997 336.056 211.405 339.28C212.531 341.86 236.193 351.517 247.883 356.023C250.873 357.857 260.122 360.884 264.372 362.168C278.564 351.259 274.955 341.065 271.376 337.332C257.145 327.53 255.367 332.717 251.255 332.984C246.603 333.287 236.822 326.706 218.966 324.551C217.208 313.548 202.713 297.184 189.668 289.787Z" fill="#222763"/>
</g>
<path d="M329.926 330.728C334.089 336.179 338.69 350.912 323.789 366.236C308.889 381.559 313.491 369.261 317.491 359.054" stroke="#8FE3F0"/>
<g filter="url(#filter15_d)">
<path d="M141.526 236.819C142.316 240.513 138.466 239.574 136.443 238.642L136.25 238.259C148.687 274.665 144.261 266.126 160.602 295.977C162.697 309.692 168.175 311.042 170.653 310.003L174.735 312.155C172.588 308.947 175.303 305.773 176.929 304.587C168.899 302.404 153.772 259.851 147.212 238.848C145.179 239.577 142.574 237.799 141.526 236.819Z" fill="#1AA9CB"/>
<path d="M141.526 236.819C142.316 240.513 138.466 239.574 136.443 238.642L136.25 238.259C148.687 274.665 144.261 266.126 160.602 295.977C162.697 309.692 168.175 311.042 170.653 310.003L174.735 312.155C172.588 308.947 175.303 305.773 176.929 304.587C168.899 302.404 153.772 259.851 147.212 238.848C145.179 239.577 142.574 237.799 141.526 236.819Z" fill="url(#paint40_linear)"/>
</g>
<g filter="url(#filter16_d)">
<path d="M102.636 263.645C106.996 263.829 106.093 258.934 105.097 256.463L104.652 256.297C147.346 264.288 137.418 260.408 172.077 275.124C188.307 274.693 189.607 281.656 188.228 285.192L190.562 290.111C186.859 288.011 182.922 292.363 181.416 294.801C179.269 284.643 129.399 274.518 104.733 270.725C105.718 267.852 103.745 264.808 102.636 263.645Z" fill="#1AA9CB"/>
<path d="M102.636 263.645C106.996 263.829 106.093 258.934 105.097 256.463L104.652 256.297C147.346 264.288 137.418 260.408 172.077 275.124C188.307 274.693 189.607 281.656 188.228 285.192L190.562 290.111C186.859 288.011 182.922 292.363 181.416 294.801C179.269 284.643 129.399 274.518 104.733 270.725C105.718 267.852 103.745 264.808 102.636 263.645Z" fill="url(#paint41_linear)"/>
</g>
<g filter="url(#filter17_d)">
<path d="M320.056 330.2C295.652 325.155 277.537 330.109 270.739 334.79C284.068 343.998 278.384 355.013 273.875 359.369C279.077 364.135 288.218 363.467 292.259 364.384C315.353 365.923 332.25 348.878 332.519 348.095C332.734 347.468 330.836 338.34 329.861 333.853L320.056 330.2Z" fill="#20245E"/>
</g>
<g filter="url(#filter18_d)">
<path d="M350 358.096C325.981 339.903 312.13 343.583 308.207 347.698C312.145 350.403 324.744 357.898 343.628 366.245C362.513 374.592 383.068 376.837 392 376L389.583 368.613L350 358.096Z" fill="#191D4F"/>
</g>
<path d="M562.964 403.064L577.703 376.287L601.422 394.543L586.682 421.32L562.964 403.064Z" fill="#C1F7FF"/>
<path d="M562.964 403.064L577.703 376.287L601.422 394.543L586.682 421.32L562.964 403.064Z" fill="url(#paint42_linear)"/>
<path d="M563.362 403.723L587.442 420.854L605.959 516.667L588.678 494.612L563.362 403.723Z" fill="#8FE3F0"/>
<path d="M563.362 403.723L587.442 420.854L605.959 516.667L588.678 494.612L563.362 403.723Z" fill="url(#paint43_linear)"/>
<path d="M601.293 393.598L605.274 480.392L605.841 516.747L586.022 419.941L601.293 393.598Z" fill="#1AA9CB"/>
<path d="M601.293 393.598L605.274 480.392L605.841 516.747L586.022 419.941L601.293 393.598Z" fill="url(#paint44_linear)"/>
<path d="M613.58 396.711L636.549 377.437L652.337 403.555L629.368 422.828L613.58 396.711Z" fill="#C1F7FF"/>
<path d="M613.58 396.711L636.549 377.437L652.337 403.555L629.368 422.828L613.58 396.711Z" fill="url(#paint45_linear)"/>
<path d="M613.723 397.478L630.237 422.686L614.412 519.035L605.93 491.853L613.723 397.478Z" fill="#8FE3F0"/>
<path d="M613.723 397.478L630.237 422.686L614.412 519.035L605.93 491.853L613.723 397.478Z" fill="url(#paint46_linear)"/>
<path d="M652.543 402.626L626.294 484.988L614.274 519.065L629.229 421.29L652.543 402.626Z" fill="#1AA9CB"/>
<path d="M652.543 402.626L626.294 484.988L614.274 519.065L629.229 421.29L652.543 402.626Z" fill="url(#paint47_linear)"/>
<path d="M589.953 446.044L609.316 430.952L629.242 445.216L609.878 460.307L589.953 446.044Z" fill="#C1F7FF"/>
<path d="M589.953 446.044L609.316 430.952L629.242 445.216L609.878 460.307L589.953 446.044Z" fill="url(#paint48_linear)"/>
<path d="M590.223 446.505L610.709 460.104L611.329 522.49L603.594 515.818L590.223 446.505Z" fill="#8FE3F0"/>
<path d="M590.223 446.505L610.709 460.104L611.329 522.49L603.594 515.818L590.223 446.505Z" fill="url(#paint49_linear)"/>
<path d="M629.288 444.607L616.387 516.318L611.199 522.527L609.483 459.363L629.288 444.607Z" fill="#1AA9CB"/>
<path d="M629.288 444.607L616.387 516.318L611.199 522.527L609.483 459.363L629.288 444.607Z" fill="url(#paint50_linear)"/>
<path d="M395.253 458.656L418.626 424.404L450.436 454.131L432.213 488.156L395.253 458.656Z" fill="#C1F7FF"/>
<path d="M395.253 458.656L418.626 424.404L450.436 454.131L432.213 488.156L395.253 458.656Z" fill="url(#paint51_linear)"/>
<path d="M395.092 458.189L430.511 485.606L461.534 651.514L435.056 607.156L395.092 458.189Z" fill="#8FE3F0"/>
<path d="M395.092 458.189L430.511 485.606L461.534 651.514L435.056 607.156L395.092 458.189Z" fill="url(#paint52_linear)"/>
<path d="M450.219 452.656L462.6 595.656L462.6 644.09L429.843 486.156L450.219 452.656Z" fill="#1AA9CB"/>
<path d="M450.219 452.656L462.6 595.656L462.6 644.09L429.843 486.156L450.219 452.656Z" fill="url(#paint53_linear)"/>
<path d="M360.864 538.404L367.863 501.665L404.124 509.529L401.231 543.721L360.864 538.404Z" fill="#C1F7FF"/>
<path d="M360.864 538.404L367.863 501.665L404.124 509.529L401.231 543.721L360.864 538.404Z" fill="url(#paint54_linear)"/>
<path d="M360.569 538.125L398.955 542.573L482.271 654.018L445.218 632.606L360.569 538.125Z" fill="#8FE3F0"/>
<path d="M360.569 538.125L398.955 542.573L482.271 654.018L445.218 632.606L360.569 538.125Z" fill="url(#paint55_linear)"/>
<path d="M403.431 508.511L463.575 611.188L480.538 647.899L398.605 543.298L403.431 508.511Z" fill="#1AA9CB"/>
<path d="M403.431 508.511L463.575 611.188L480.538 647.899L398.605 543.298L403.431 508.511Z" fill="url(#paint56_linear)"/>
<path d="M454.009 451.156L493.189 431.818L508.774 463.079L477.488 493.384L454.009 451.156Z" fill="#C1F7FF"/>
<path d="M454.009 451.156L493.189 431.818L508.774 463.079L477.488 493.384L454.009 451.156Z" fill="url(#paint57_linear)"/>
<path d="M454.009 450.656L478.626 493.151L450.645 643.207L450.645 589.318L454.009 450.656Z" fill="#8FE3F0"/>
<path d="M454.009 450.656L478.626 493.151L450.645 643.207L450.645 589.318L454.009 450.656Z" fill="url(#paint58_linear)"/>
<path d="M509.114 461.631L469.646 599.156L450.464 643.255L477.427 490.995L509.114 461.631Z" fill="#1AA9CB"/>
<path d="M509.114 461.631L469.646 599.156L450.464 643.255L477.427 490.995L509.114 461.631Z" fill="url(#paint59_linear)"/>
<g filter="url(#filter19_d)">
<path d="M588.389 575.089C572.983 585.579 576.804 610.898 580.64 622.246L566.678 635.661C568.871 622.311 568.848 609.442 571.502 593.293C571.926 590.709 574.416 571.023 567.34 566.58C556.244 562.554 573.883 525.458 574.392 569.201C574.895 612.509 579.061 573.2 581.326 546.516C559.201 537.661 561.504 514.277 582.069 541.994C582.742 528.143 580.441 516.077 581.799 501.355C583.851 479.107 595.655 488.586 591.044 500.385C585.949 511.873 584.243 535.375 595.253 513.797C605.501 493.714 605.017 512.922 593.767 522.841C585.642 530.005 578.012 573.191 584.769 571.1C590.174 569.427 600.135 542.637 605.099 548.203C605.948 552.795 603.794 564.6 588.389 575.089Z" fill="#9AA7E5"/>
<path d="M588.389 575.089C572.983 585.579 576.804 610.898 580.64 622.246L566.678 635.661C568.871 622.311 568.848 609.442 571.502 593.293C571.926 590.709 574.416 571.023 567.34 566.58C556.244 562.554 573.883 525.458 574.392 569.201C574.895 612.509 579.061 573.2 581.326 546.516C559.201 537.661 561.504 514.277 582.069 541.994C582.742 528.143 580.441 516.077 581.799 501.355C583.851 479.107 595.655 488.586 591.044 500.385C585.949 511.873 584.243 535.375 595.253 513.797C605.501 493.714 605.017 512.922 593.767 522.841C585.642 530.005 578.012 573.191 584.769 571.1C590.174 569.427 600.135 542.637 605.099 548.203C605.948 552.795 603.794 564.6 588.389 575.089Z" fill="url(#paint60_linear)"/>
<path d="M588.389 575.089C572.983 585.579 576.804 610.898 580.64 622.246L566.678 635.661C568.871 622.311 568.848 609.442 571.502 593.293C571.926 590.709 574.416 571.023 567.34 566.58C556.244 562.554 573.883 525.458 574.392 569.201C574.895 612.509 579.061 573.2 581.326 546.516C559.201 537.661 561.504 514.277 582.069 541.994C582.742 528.143 580.441 516.077 581.799 501.355C583.851 479.107 595.655 488.586 591.044 500.385C585.949 511.873 584.243 535.375 595.253 513.797C605.501 493.714 605.017 512.922 593.767 522.841C585.642 530.005 578.012 573.191 584.769 571.1C590.174 569.427 600.135 542.637 605.099 548.203C605.948 552.795 603.794 564.6 588.389 575.089Z" fill="url(#paint61_linear)"/>
</g>
<g filter="url(#filter20_f)">
<path d="M490.058 426.646C487.699 432.396 475.213 433.598 462.171 429.33C449.129 425.062 440.469 416.941 442.829 411.19C445.188 405.44 457.673 404.238 470.715 408.506C483.757 412.774 492.417 420.896 490.058 426.646Z" fill="url(#paint62_linear)"/>
</g>
<ellipse cx="482.16" cy="417.596" rx="16.1106" ry="13.9645" fill="#C4C4C4"/>
<ellipse cx="482.16" cy="417.596" rx="16.1106" ry="13.9645" fill="url(#paint63_radial)"/>
</g>
<defs>
<filter id="filter0_d" x="-99.0557" y="431.95" width="308.496" height="211.145" filterUnits="userSpaceOnUse" color-interpolation-filters="sRGB">
<feFlood flood-opacity="0" result="BackgroundImageFix"/>
<feColorMatrix in="SourceAlpha" type="matrix" values="0 0 0 0 0 0 0 0 0 0 0 0 0 0 0 0 0 0 127 0"/>
<feOffset dy="4"/>
<feGaussianBlur stdDeviation="2"/>
<feColorMatrix type="matrix" values="0 0 0 0 0 0 0 0 0 0 0 0 0 0 0 0 0 0 0.25 0"/>
<feBlend mode="normal" in2="BackgroundImageFix" result="effect1_dropShadow"/>
<feBlend mode="normal" in="SourceGraphic" in2="effect1_dropShadow" result="shape"/>
</filter>
<filter id="filter1_d" x="85.2601" y="421.364" width="58.5769" height="160.373" filterUnits="userSpaceOnUse" color-interpolation-filters="sRGB">
<feFlood flood-opacity="0" result="BackgroundImageFix"/>
<feColorMatrix in="SourceAlpha" type="matrix" values="0 0 0 0 0 0 0 0 0 0 0 0 0 0 0 0 0 0 127 0"/>
<feOffset dy="4"/>
<feGaussianBlur stdDeviation="2"/>
<feColorMatrix type="matrix" values="0 0 0 0 0 0 0 0 0 0 0 0 0 0 0 0 0 0 0.25 0"/>
<feBlend mode="normal" in2="BackgroundImageFix" result="effect1_dropShadow"/>
<feBlend mode="normal" in="SourceGraphic" in2="effect1_dropShadow" result="shape"/>
</filter>
<filter id="filter2_d" x="20.3881" y="465.986" width="55.4336" height="136.745" filterUnits="userSpaceOnUse" color-interpolation-filters="sRGB">
<feFlood flood-opacity="0" result="BackgroundImageFix"/>
<feColorMatrix in="SourceAlpha" type="matrix" values="0 0 0 0 0 0 0 0 0 0 0 0 0 0 0 0 0 0 127 0"/>
<feOffset dy="4"/>
<feGaussianBlur stdDeviation="2"/>
<feColorMatrix type="matrix" values="0 0 0 0 0 0 0 0 0 0 0 0 0 0 0 0 0 0 0.25 0"/>
<feBlend mode="normal" in2="BackgroundImageFix" result="effect1_dropShadow"/>
<feBlend mode="normal" in="SourceGraphic" in2="effect1_dropShadow" result="shape"/>
</filter>
<filter id="filter3_d" x="5.40588" y="417.811" width="70.6509" height="158.211" filterUnits="userSpaceOnUse" color-interpolation-filters="sRGB">
<feFlood flood-opacity="0" result="BackgroundImageFix"/>
<feColorMatrix in="SourceAlpha" type="matrix" values="0 0 0 0 0 0 0 0 0 0 0 0 0 0 0 0 0 0 127 0"/>
<feOffset dy="4"/>
<feGaussianBlur stdDeviation="2"/>
<feColorMatrix type="matrix" values="0 0 0 0 0 0 0 0 0 0 0 0 0 0 0 0 0 0 0.25 0"/>
<feBlend mode="normal" in2="BackgroundImageFix" result="effect1_dropShadow"/>
<feBlend mode="normal" in="SourceGraphic" in2="effect1_dropShadow" result="shape"/>
</filter>
<filter id="filter4_d" x="456.024" y="423.364" width="281.299" height="232.943" filterUnits="userSpaceOnUse" color-interpolation-filters="sRGB">
<feFlood flood-opacity="0" result="BackgroundImageFix"/>
<feColorMatrix in="SourceAlpha" type="matrix" values="0 0 0 0 0 0 0 0 0 0 0 0 0 0 0 0 0 0 127 0"/>
<feOffset dy="4"/>
<feGaussianBlur stdDeviation="2"/>
<feColorMatrix type="matrix" values="0 0 0 0 0 0 0 0 0 0 0 0 0 0 0 0 0 0 0.25 0"/>
<feBlend mode="normal" in2="BackgroundImageFix" result="effect1_dropShadow"/>
<feBlend mode="normal" in="SourceGraphic" in2="effect1_dropShadow" result="shape"/>
</filter>
<filter id="filter5_d" x="620.938" y="274.494" width="79.639" height="157.665" filterUnits="userSpaceOnUse" color-interpolation-filters="sRGB">
<feFlood flood-opacity="0" result="BackgroundImageFix"/>
<feColorMatrix in="SourceAlpha" type="matrix" values="0 0 0 0 0 0 0 0 0 0 0 0 0 0 0 0 0 0 127 0"/>
<feOffset dy="4"/>
<feGaussianBlur stdDeviation="2"/>
<feColorMatrix type="matrix" values="0 0 0 0 0 0 0 0 0 0 0 0 0 0 0 0 0 0 0.25 0"/>
<feBlend mode="normal" in2="BackgroundImageFix" result="effect1_dropShadow"/>
<feBlend mode="normal" in="SourceGraphic" in2="effect1_dropShadow" result="shape"/>
</filter>
<filter id="filter6_d" x="626.654" y="372.669" width="69.0106" height="135.892" filterUnits="userSpaceOnUse" color-interpolation-filters="sRGB">
<feFlood flood-opacity="0" result="BackgroundImageFix"/>
<feColorMatrix in="SourceAlpha" type="matrix" values="0 0 0 0 0 0 0 0 0 0 0 0 0 0 0 0 0 0 127 0"/>
<feOffset dy="4"/>
<feGaussianBlur stdDeviation="2"/>
<feColorMatrix type="matrix" values="0 0 0 0 0 0 0 0 0 0 0 0 0 0 0 0 0 0 0.25 0"/>
<feBlend mode="normal" in2="BackgroundImageFix" result="effect1_dropShadow"/>
<feBlend mode="normal" in="SourceGraphic" in2="effect1_dropShadow" result="shape"/>
</filter>
<filter id="filter7_d" x="597.052" y="327.719" width="118.633" height="141.956" filterUnits="userSpaceOnUse" color-interpolation-filters="sRGB">
<feFlood flood-opacity="0" result="BackgroundImageFix"/>
<feColorMatrix in="SourceAlpha" type="matrix" values="0 0 0 0 0 0 0 0 0 0 0 0 0 0 0 0 0 0 127 0"/>
<feOffset dy="4"/>
<feGaussianBlur stdDeviation="2"/>
<feColorMatrix type="matrix" values="0 0 0 0 0 0 0 0 0 0 0 0 0 0 0 0 0 0 0.25 0"/>
<feBlend mode="normal" in2="BackgroundImageFix" result="effect1_dropShadow"/>
<feBlend mode="normal" in="SourceGraphic" in2="effect1_dropShadow" result="shape"/>
</filter>
<filter id="filter8_d" x="291.364" y="337.872" width="50.7893" height="303.757" filterUnits="userSpaceOnUse" color-interpolation-filters="sRGB">
<feFlood flood-opacity="0" result="BackgroundImageFix"/>
<feColorMatrix in="SourceAlpha" type="matrix" values="0 0 0 0 0 0 0 0 0 0 0 0 0 0 0 0 0 0 127 0"/>
<feOffset dy="4"/>
<feGaussianBlur stdDeviation="2"/>
<feColorMatrix type="matrix" values="0 0 0 0 0 0 0 0 0 0 0 0 0 0 0 0 0 0 0.25 0"/>
<feBlend mode="normal" in2="BackgroundImageFix" result="effect1_dropShadow"/>
<feBlend mode="normal" in="SourceGraphic" in2="effect1_dropShadow" result="shape"/>
</filter>
<filter id="filter9_d" x="224.128" y="452.678" width="48.9877" height="189.477" filterUnits="userSpaceOnUse" color-interpolation-filters="sRGB">
<feFlood flood-opacity="0" result="BackgroundImageFix"/>
<feColorMatrix in="SourceAlpha" type="matrix" values="0 0 0 0 0 0 0 0 0 0 0 0 0 0 0 0 0 0 127 0"/>
<feOffset dy="4"/>
<feGaussianBlur stdDeviation="2"/>
<feColorMatrix type="matrix" values="0 0 0 0 0 0 0 0 0 0 0 0 0 0 0 0 0 0 0.25 0"/>
<feBlend mode="normal" in2="BackgroundImageFix" result="effect1_dropShadow"/>
<feBlend mode="normal" in="SourceGraphic" in2="effect1_dropShadow" result="shape"/>
</filter>
<filter id="filter10_d" x="208.88" y="382.364" width="91.4126" height="216.52" filterUnits="userSpaceOnUse" color-interpolation-filters="sRGB">
<feFlood flood-opacity="0" result="BackgroundImageFix"/>
<feColorMatrix in="SourceAlpha" type="matrix" values="0 0 0 0 0 0 0 0 0 0 0 0 0 0 0 0 0 0 127 0"/>
<feOffset dy="4"/>
<feGaussianBlur stdDeviation="2"/>
<feColorMatrix type="matrix" values="0 0 0 0 0 0 0 0 0 0 0 0 0 0 0 0 0 0 0.25 0"/>
<feBlend mode="normal" in2="BackgroundImageFix" result="effect1_dropShadow"/>
<feBlend mode="normal" in="SourceGraphic" in2="effect1_dropShadow" result="shape"/>
</filter>
<filter id="filter11_d" x="62.5704" y="412.501" width="45.9074" height="183" filterUnits="userSpaceOnUse" color-interpolation-filters="sRGB">
<feFlood flood-opacity="0" result="BackgroundImageFix"/>
<feColorMatrix in="SourceAlpha" type="matrix" values="0 0 0 0 0 0 0 0 0 0 0 0 0 0 0 0 0 0 127 0"/>
<feOffset dy="4"/>
<feGaussianBlur stdDeviation="2"/>
<feColorMatrix type="matrix" values="0 0 0 0 0 0 0 0 0 0 0 0 0 0 0 0 0 0 0.25 0"/>
<feBlend mode="normal" in2="BackgroundImageFix" result="effect1_dropShadow"/>
<feBlend mode="normal" in="SourceGraphic" in2="effect1_dropShadow" result="shape"/>
</filter>
<filter id="filter12_d" x="490.364" y="494.046" width="47.8695" height="160.393" filterUnits="userSpaceOnUse" color-interpolation-filters="sRGB">
<feFlood flood-opacity="0" result="BackgroundImageFix"/>
<feColorMatrix in="SourceAlpha" type="matrix" values="0 0 0 0 0 0 0 0 0 0 0 0 0 0 0 0 0 0 127 0"/>
<feOffset dy="4"/>
<feGaussianBlur stdDeviation="2"/>
<feColorMatrix type="matrix" values="0 0 0 0 0 0 0 0 0 0 0 0 0 0 0 0 0 0 0.25 0"/>
<feBlend mode="normal" in2="BackgroundImageFix" result="effect1_dropShadow"/>
<feBlend mode="normal" in="SourceGraphic" in2="effect1_dropShadow" result="shape"/>
</filter>
<filter id="filter13_d" x="488.875" y="430.383" width="79.2631" height="214.353" filterUnits="userSpaceOnUse" color-interpolation-filters="sRGB">
<feFlood flood-opacity="0" result="BackgroundImageFix"/>
<feColorMatrix in="SourceAlpha" type="matrix" values="0 0 0 0 0 0 0 0 0 0 0 0 0 0 0 0 0 0 127 0"/>
<feOffset dy="4"/>
<feGaussianBlur stdDeviation="2"/>
<feColorMatrix type="matrix" values="0 0 0 0 0 0 0 0 0 0 0 0 0 0 0 0 0 0 0.25 0"/>
<feBlend mode="normal" in2="BackgroundImageFix" result="effect1_dropShadow"/>
<feBlend mode="normal" in="SourceGraphic" in2="effect1_dropShadow" result="shape"/>
</filter>
<filter id="filter14_d" x="177.859" y="289.161" width="100.742" height="81.0075" filterUnits="userSpaceOnUse" color-interpolation-filters="sRGB">
<feFlood flood-opacity="0" result="BackgroundImageFix"/>
<feColorMatrix in="SourceAlpha" type="matrix" values="0 0 0 0 0 0 0 0 0 0 0 0 0 0 0 0 0 0 127 0"/>
<feOffset dy="4"/>
<feGaussianBlur stdDeviation="2"/>
<feColorMatrix type="matrix" values="0 0 0 0 0 0 0 0 0 0 0 0 0 0 0 0 0 0 0.25 0"/>
<feBlend mode="normal" in2="BackgroundImageFix" result="effect1_dropShadow"/>
<feBlend mode="normal" in="SourceGraphic" in2="effect1_dropShadow" result="shape"/>
</filter>
<filter id="filter15_d" x="132.25" y="236.819" width="48.6792" height="83.3361" filterUnits="userSpaceOnUse" color-interpolation-filters="sRGB">
<feFlood flood-opacity="0" result="BackgroundImageFix"/>
<feColorMatrix in="SourceAlpha" type="matrix" values="0 0 0 0 0 0 0 0 0 0 0 0 0 0 0 0 0 0 127 0"/>
<feOffset dy="4"/>
<feGaussianBlur stdDeviation="2"/>
<feColorMatrix type="matrix" values="0 0 0 0 0 0 0 0 0 0 0 0 0 0 0 0 0 0 0.25 0"/>
<feBlend mode="normal" in2="BackgroundImageFix" result="effect1_dropShadow"/>
<feBlend mode="normal" in="SourceGraphic" in2="effect1_dropShadow" result="shape"/>
</filter>
<filter id="filter16_d" x="98.6364" y="256.297" width="95.9258" height="46.5046" filterUnits="userSpaceOnUse" color-interpolation-filters="sRGB">
<feFlood flood-opacity="0" result="BackgroundImageFix"/>
<feColorMatrix in="SourceAlpha" type="matrix" values="0 0 0 0 0 0 0 0 0 0 0 0 0 0 0 0 0 0 127 0"/>
<feOffset dy="4"/>
<feGaussianBlur stdDeviation="2"/>
<feColorMatrix type="matrix" values="0 0 0 0 0 0 0 0 0 0 0 0 0 0 0 0 0 0 0.25 0"/>
<feBlend mode="normal" in2="BackgroundImageFix" result="effect1_dropShadow"/>
<feBlend mode="normal" in="SourceGraphic" in2="effect1_dropShadow" result="shape"/>
</filter>
<filter id="filter17_d" x="266.739" y="328.082" width="69.7964" height="44.4008" filterUnits="userSpaceOnUse" color-interpolation-filters="sRGB">
<feFlood flood-opacity="0" result="BackgroundImageFix"/>
<feColorMatrix in="SourceAlpha" type="matrix" values="0 0 0 0 0 0 0 0 0 0 0 0 0 0 0 0 0 0 127 0"/>
<feOffset dy="4"/>
<feGaussianBlur stdDeviation="2"/>
<feColorMatrix type="matrix" values="0 0 0 0 0 0 0 0 0 0 0 0 0 0 0 0 0 0 0.25 0"/>
<feBlend mode="normal" in2="BackgroundImageFix" result="effect1_dropShadow"/>
<feBlend mode="normal" in="SourceGraphic" in2="effect1_dropShadow" result="shape"/>
</filter>
<filter id="filter18_d" x="304.207" y="344.332" width="91.7933" height="39.8321" filterUnits="userSpaceOnUse" color-interpolation-filters="sRGB">
<feFlood flood-opacity="0" result="BackgroundImageFix"/>
<feColorMatrix in="SourceAlpha" type="matrix" values="0 0 0 0 0 0 0 0 0 0 0 0 0 0 0 0 0 0 127 0"/>
<feOffset dy="4"/>
<feGaussianBlur stdDeviation="2"/>
<feColorMatrix type="matrix" values="0 0 0 0 0 0 0 0 0 0 0 0 0 0 0 0 0 0 0.25 0"/>
<feBlend mode="normal" in2="BackgroundImageFix" result="effect1_dropShadow"/>
<feBlend mode="normal" in="SourceGraphic" in2="effect1_dropShadow" result="shape"/>
</filter>
<filter id="filter19_d" x="559.682" y="487.909" width="49.5753" height="155.752" filterUnits="userSpaceOnUse" color-interpolation-filters="sRGB">
<feFlood flood-opacity="0" result="BackgroundImageFix"/>
<feColorMatrix in="SourceAlpha" type="matrix" values="0 0 0 0 0 0 0 0 0 0 0 0 0 0 0 0 0 0 127 0"/>
<feOffset dy="4"/>
<feGaussianBlur stdDeviation="2"/>
<feColorMatrix type="matrix" values="0 0 0 0 0 0 0 0 0 0 0 0 0 0 0 0 0 0 0.25 0"/>
<feBlend mode="normal" in2="BackgroundImageFix" result="effect1_dropShadow"/>
<feBlend mode="normal" in="SourceGraphic" in2="effect1_dropShadow" result="shape"/>
</filter>
<filter id="filter20_f" x="438.441" y="401.951" width="56.0042" height="33.9342" filterUnits="userSpaceOnUse" color-interpolation-filters="sRGB">
<feFlood flood-opacity="0" result="BackgroundImageFix"/>
<feBlend mode="normal" in="SourceGraphic" in2="BackgroundImageFix" result="shape"/>
<feGaussianBlur stdDeviation="2" result="effect1_foregroundBlur"/>
</filter>
<radialGradient id="paint0_radial" cx="0" cy="0" r="1" gradientUnits="userSpaceOnUse" gradientTransform="translate(541.702 -43.9259) rotate(110.34) scale(633.129 647.827)">
<stop stop-color="#C1F7FF"/>
<stop offset="0.515625" stop-color="#007A9A"/>
<stop offset="1" stop-color="#003C58"/>
</radialGradient>
<linearGradient id="paint1_linear" x1="97.7267" y1="523.341" x2="141.555" y2="517.233" gradientUnits="userSpaceOnUse">
<stop stop-color="#AE82A7"/>
<stop offset="0.883299" stop-color="white" stop-opacity="0"/>
</linearGradient>
<linearGradient id="paint2_linear" x1="97.7267" y1="523.341" x2="141.555" y2="517.233" gradientUnits="userSpaceOnUse">
<stop stop-color="#AE82A7"/>
<stop offset="0.883299" stop-color="white" stop-opacity="0"/>
</linearGradient>
<linearGradient id="paint3_linear" x1="68.1149" y1="549.196" x2="25.2418" y2="550.129" gradientUnits="userSpaceOnUse">
<stop stop-color="#AE82A7"/>
<stop offset="0.883299" stop-color="white" stop-opacity="0"/>
</linearGradient>
<linearGradient id="paint4_linear" x1="68.1149" y1="549.196" x2="25.2418" y2="550.129" gradientUnits="userSpaceOnUse">
<stop stop-color="#AE82A7"/>
<stop offset="0.883299" stop-color="white" stop-opacity="0"/>
</linearGradient>
<linearGradient id="paint5_linear" x1="61.4237" y1="538.754" x2="-15.99" y2="509.564" gradientUnits="userSpaceOnUse">
<stop stop-color="#AE82A7"/>
<stop offset="0.883299" stop-color="white" stop-opacity="0"/>
</linearGradient>
<linearGradient id="paint6_linear" x1="61.4237" y1="538.754" x2="-15.99" y2="509.564" gradientUnits="userSpaceOnUse">
<stop stop-color="#AE82A7"/>
<stop offset="0.883299" stop-color="white" stop-opacity="0"/>
</linearGradient>
<linearGradient id="paint7_linear" x1="563.317" y1="537.318" x2="413.511" y2="499.339" gradientUnits="userSpaceOnUse">
<stop stop-color="#6D6D6D"/>
<stop offset="1" stop-color="white" stop-opacity="0"/>
</linearGradient>
<linearGradient id="paint8_linear" x1="691.588" y1="363.763" x2="650.106" y2="379.47" gradientUnits="userSpaceOnUse">
<stop stop-color="#AE82A7"/>
<stop offset="0.883299" stop-color="white" stop-opacity="0"/>
</linearGradient>
<linearGradient id="paint9_linear" x1="691.588" y1="363.763" x2="650.106" y2="379.47" gradientUnits="userSpaceOnUse">
<stop stop-color="#AE82A7"/>
<stop offset="0.883299" stop-color="white" stop-opacity="0"/>
</linearGradient>
<linearGradient id="paint10_linear" x1="653.88" y1="467.04" x2="692.395" y2="447.53" gradientUnits="userSpaceOnUse">
<stop stop-color="#AE82A7"/>
<stop offset="0.883299" stop-color="white" stop-opacity="0"/>
</linearGradient>
<linearGradient id="paint11_linear" x1="653.88" y1="467.04" x2="692.395" y2="447.53" gradientUnits="userSpaceOnUse">
<stop stop-color="#AE82A7"/>
<stop offset="0.883299" stop-color="white" stop-opacity="0"/>
</linearGradient>
<linearGradient id="paint12_linear" x1="654.302" y1="453.474" x2="712.108" y2="390.302" gradientUnits="userSpaceOnUse">
<stop stop-color="#AE82A7"/>
<stop offset="0.883299" stop-color="white" stop-opacity="0"/>
</linearGradient>
<linearGradient id="paint13_linear" x1="654.302" y1="453.474" x2="712.108" y2="390.302" gradientUnits="userSpaceOnUse">
<stop stop-color="#AE82A7"/>
<stop offset="0.883299" stop-color="white" stop-opacity="0"/>
</linearGradient>
<radialGradient id="paint14_radial" cx="0" cy="0" r="1" gradientUnits="userSpaceOnUse" gradientTransform="translate(314.955 401.245) rotate(134.502) scale(2.93802 8.36491)">
<stop stop-color="#1AA9CB"/>
<stop offset="1" stop-color="#1AA9CB" stop-opacity="0"/>
</radialGradient>
<radialGradient id="paint15_radial" cx="0" cy="0" r="1" gradientUnits="userSpaceOnUse" gradientTransform="translate(306.06 390.152) rotate(67.2033) scale(12.3054 1.49535)">
<stop stop-color="#1AA9CB" stop-opacity="0.5"/>
<stop offset="1" stop-color="#1AA9CB" stop-opacity="0"/>
</radialGradient>
<linearGradient id="paint16_linear" x1="317.95" y1="407.111" x2="316.628" y2="409.678" gradientUnits="userSpaceOnUse">
<stop stop-color="#8FE3F0"/>
<stop offset="0.520833" stop-color="#1AA9CB"/>
<stop offset="0.947917" stop-color="#8FE3F0"/>
<stop offset="1" stop-color="#8FE3F0"/>
</linearGradient>
<linearGradient id="paint17_linear" x1="313.473" y1="405.886" x2="312.751" y2="409.519" gradientUnits="userSpaceOnUse">
<stop stop-color="#1AA9CB"/>
<stop offset="1" stop-color="white" stop-opacity="0"/>
</linearGradient>
<radialGradient id="paint18_radial" cx="0" cy="0" r="1" gradientUnits="userSpaceOnUse" gradientTransform="translate(311.52 400.003) rotate(-17.0094) scale(4.41234 8.65706)">
<stop stop-color="white" stop-opacity="0"/>
<stop offset="0.473958" stop-color="#C1F7FF"/>
<stop offset="1" stop-color="#1AA9CB"/>
</radialGradient>
<linearGradient id="paint19_linear" x1="341.661" y1="532.38" x2="293.734" y2="533.339" gradientUnits="userSpaceOnUse">
<stop stop-color="#AE82A7"/>
<stop offset="0.883299" stop-color="white" stop-opacity="0"/>
</linearGradient>
<linearGradient id="paint20_linear" x1="341.661" y1="532.38" x2="293.734" y2="533.339" gradientUnits="userSpaceOnUse">
<stop stop-color="#AE82A7"/>
<stop offset="0.883299" stop-color="white" stop-opacity="0"/>
</linearGradient>
<linearGradient id="paint21_linear" x1="230.602" y1="574.229" x2="279.048" y2="569.421" gradientUnits="userSpaceOnUse">
<stop stop-color="#AE82A7"/>
<stop offset="0.883299" stop-color="white" stop-opacity="0"/>
</linearGradient>
<linearGradient id="paint22_linear" x1="230.602" y1="574.229" x2="279.048" y2="569.421" gradientUnits="userSpaceOnUse">
<stop stop-color="#AE82A7"/>
<stop offset="0.883299" stop-color="white" stop-opacity="0"/>
</linearGradient>
<linearGradient id="paint23_linear" x1="236.373" y1="558.092" x2="325.805" y2="519.275" gradientUnits="userSpaceOnUse">
<stop stop-color="#AE82A7"/>
<stop offset="0.883299" stop-color="white" stop-opacity="0"/>
</linearGradient>
<linearGradient id="paint24_linear" x1="236.373" y1="558.092" x2="325.805" y2="519.275" gradientUnits="userSpaceOnUse">
<stop stop-color="#AE82A7"/>
<stop offset="0.883299" stop-color="white" stop-opacity="0"/>
</linearGradient>
<linearGradient id="paint25_linear" x1="66.6987" y1="528.39" x2="110.674" y2="526.358" gradientUnits="userSpaceOnUse">
<stop stop-color="#AE82A7"/>
<stop offset="0.883299" stop-color="white" stop-opacity="0"/>
</linearGradient>
<linearGradient id="paint26_linear" x1="66.6987" y1="528.39" x2="110.674" y2="526.358" gradientUnits="userSpaceOnUse">
<stop stop-color="#AE82A7"/>
<stop offset="0.883299" stop-color="white" stop-opacity="0"/>
</linearGradient>
<linearGradient id="paint27_linear" x1="543.125" y1="441.56" x2="440.571" y2="411.285" gradientUnits="userSpaceOnUse">
<stop stop-color="white"/>
<stop offset="1" stop-color="white" stop-opacity="0"/>
</linearGradient>
<linearGradient id="paint28_linear" x1="558.997" y1="409.483" x2="488.565" y2="340.043" gradientUnits="userSpaceOnUse">
<stop stop-color="white"/>
<stop offset="1" stop-color="white" stop-opacity="0"/>
</linearGradient>
<linearGradient id="paint29_linear" x1="407.844" y1="374.292" x2="408.972" y2="377.307" gradientUnits="userSpaceOnUse">
<stop stop-color="#8FE3F0"/>
<stop offset="0.520833" stop-color="#1AA9CB"/>
<stop offset="0.947917" stop-color="#8FE3F0"/>
<stop offset="1" stop-color="#8FE3F0"/>
</linearGradient>
<linearGradient id="paint30_linear" x1="410.483" y1="374.546" x2="410.44" y2="377.678" gradientUnits="userSpaceOnUse">
<stop stop-color="#8FE3F0"/>
<stop offset="0.520833" stop-color="#1AA9CB"/>
<stop offset="0.947917" stop-color="#8FE3F0"/>
<stop offset="1" stop-color="#8FE3F0"/>
</linearGradient>
<linearGradient id="paint31_linear" x1="408.234" y1="375.744" x2="408.564" y2="379.796" gradientUnits="userSpaceOnUse">
<stop stop-color="#1AA9CB"/>
<stop offset="1" stop-color="white" stop-opacity="0"/>
</linearGradient>
<radialGradient id="paint32_radial" cx="0" cy="0" r="1" gradientUnits="userSpaceOnUse" gradientTransform="translate(404.655 372.262) rotate(98.179) scale(3.7566 12.5499)">
<stop stop-color="#1AA9CB"/>
<stop offset="1" stop-color="#1AA9CB" stop-opacity="0"/>
</radialGradient>
<radialGradient id="paint33_radial" cx="0" cy="0" r="1" gradientUnits="userSpaceOnUse" gradientTransform="translate(385.863 370.952) rotate(9.96181) scale(18.2863 1.92201)">
<stop stop-color="#1AA9CB" stop-opacity="0.5"/>
<stop offset="1" stop-color="#1AA9CB" stop-opacity="0"/>
</radialGradient>
<linearGradient id="paint34_linear" x1="498.043" y1="600.74" x2="546.454" y2="593.51" gradientUnits="userSpaceOnUse">
<stop stop-color="#AE82A7"/>
<stop offset="0.883299" stop-color="white" stop-opacity="0"/>
</linearGradient>
<linearGradient id="paint35_linear" x1="498.043" y1="600.74" x2="546.454" y2="593.51" gradientUnits="userSpaceOnUse">
<stop stop-color="#AE82A7"/>
<stop offset="0.883299" stop-color="white" stop-opacity="0"/>
</linearGradient>
<linearGradient id="paint36_linear" x1="500.411" y1="576.953" x2="590.738" y2="554.663" gradientUnits="userSpaceOnUse">
<stop stop-color="#AE82A7"/>
<stop offset="0.883299" stop-color="white" stop-opacity="0"/>
</linearGradient>
<linearGradient id="paint37_linear" x1="500.411" y1="576.953" x2="590.738" y2="554.663" gradientUnits="userSpaceOnUse">
<stop stop-color="#AE82A7"/>
<stop offset="0.883299" stop-color="white" stop-opacity="0"/>
</linearGradient>
<linearGradient id="paint38_linear" x1="288.814" y1="305.51" x2="287.353" y2="332.796" gradientUnits="userSpaceOnUse">
<stop offset="0.109156" stop-color="#F0F0F0"/>
<stop offset="0.9999" stop-color="#4C4C4C"/>
<stop offset="1" stop-color="#F0F0F0"/>
</linearGradient>
<linearGradient id="paint39_linear" x1="-1.37885" y1="16.0302" x2="-0.860857" y2="-5.63851" gradientUnits="userSpaceOnUse">
<stop stop-color="#717171"/>
<stop offset="0.684112" stop-color="#C4C4C4"/>
</linearGradient>
<linearGradient id="paint40_linear" x1="149.249" y1="277.447" x2="163.113" y2="270.476" gradientUnits="userSpaceOnUse">
<stop stop-color="white"/>
<stop offset="1" stop-color="white" stop-opacity="0"/>
</linearGradient>
<linearGradient id="paint41_linear" x1="150.63" y1="264.383" x2="142.958" y2="284.969" gradientUnits="userSpaceOnUse">
<stop stop-color="white"/>
<stop offset="1" stop-color="white" stop-opacity="0"/>
</linearGradient>
<linearGradient id="paint42_linear" x1="562.964" y1="403.064" x2="601.585" y2="395.363" gradientUnits="userSpaceOnUse">
<stop stop-color="#9AA7E5"/>
<stop offset="1" stop-color="white" stop-opacity="0"/>
</linearGradient>
<linearGradient id="paint43_linear" x1="565.524" y1="416.109" x2="625.969" y2="430.078" gradientUnits="userSpaceOnUse">
<stop stop-color="#9AA7E5"/>
<stop offset="1" stop-color="white" stop-opacity="0"/>
</linearGradient>
<linearGradient id="paint44_linear" x1="603.734" y1="406.564" x2="552.24" y2="445.073" gradientUnits="userSpaceOnUse">
<stop stop-color="#9AA7E5"/>
<stop offset="1" stop-color="white" stop-opacity="0"/>
</linearGradient>
<linearGradient id="paint45_linear" x1="613.58" y1="396.711" x2="652.447" y2="402.859" gradientUnits="userSpaceOnUse">
<stop stop-color="#9AA7E5"/>
<stop offset="1" stop-color="white" stop-opacity="0"/>
</linearGradient>
<linearGradient id="paint46_linear" x1="611.461" y1="409.844" x2="663.858" y2="444.694" gradientUnits="userSpaceOnUse">
<stop stop-color="#9AA7E5"/>
<stop offset="1" stop-color="white" stop-opacity="0"/>
</linearGradient>
<linearGradient id="paint47_linear" x1="650.342" y1="415.638" x2="589.514" y2="433.174" gradientUnits="userSpaceOnUse">
<stop stop-color="#9AA7E5"/>
<stop offset="1" stop-color="white" stop-opacity="0"/>
</linearGradient>
<linearGradient id="paint48_linear" x1="589.953" y1="446.044" x2="629.243" y2="445.292" gradientUnits="userSpaceOnUse">
<stop stop-color="#9AA7E5"/>
<stop offset="1" stop-color="white" stop-opacity="0"/>
</linearGradient>
<linearGradient id="paint49_linear" x1="590.075" y1="454.543" x2="636.21" y2="485.992" gradientUnits="userSpaceOnUse">
<stop stop-color="#9AA7E5"/>
<stop offset="1" stop-color="white" stop-opacity="0"/>
</linearGradient>
<linearGradient id="paint50_linear" x1="629.309" y1="453.041" x2="584.351" y2="487.59" gradientUnits="userSpaceOnUse">
<stop stop-color="#9AA7E5"/>
<stop offset="1" stop-color="white" stop-opacity="0"/>
</linearGradient>
<linearGradient id="paint51_linear" x1="400.861" y1="465.109" x2="450.645" y2="455.182" gradientUnits="userSpaceOnUse">
<stop stop-color="#9AA7E5"/>
<stop offset="1" stop-color="white" stop-opacity="0"/>
</linearGradient>
<linearGradient id="paint52_linear" x1="398.768" y1="479.661" x2="486.947" y2="493.877" gradientUnits="userSpaceOnUse">
<stop stop-color="#9AA7E5"/>
<stop offset="1" stop-color="white" stop-opacity="0"/>
</linearGradient>
<linearGradient id="paint53_linear" x1="454.074" y1="472.925" x2="382.277" y2="519.045" gradientUnits="userSpaceOnUse">
<stop stop-color="#9AA7E5"/>
<stop offset="1" stop-color="white" stop-opacity="0"/>
</linearGradient>
<linearGradient id="paint54_linear" x1="367.681" y1="540.709" x2="405.646" y2="511.508" gradientUnits="userSpaceOnUse">
<stop stop-color="#9AA7E5"/>
<stop offset="1" stop-color="white" stop-opacity="0"/>
</linearGradient>
<linearGradient id="paint55_linear" x1="371.077" y1="552.704" x2="450.104" y2="531.889" gradientUnits="userSpaceOnUse">
<stop stop-color="#9AA7E5"/>
<stop offset="1" stop-color="white" stop-opacity="0"/>
</linearGradient>
<linearGradient id="paint56_linear" x1="413.663" y1="522.096" x2="376.282" y2="592.708" gradientUnits="userSpaceOnUse">
<stop stop-color="#9AA7E5"/>
<stop offset="1" stop-color="white" stop-opacity="0"/>
</linearGradient>
<linearGradient id="paint57_linear" x1="459.028" y1="453" x2="508.959" y2="462.06" gradientUnits="userSpaceOnUse">
<stop stop-color="#9AA7E5"/>
<stop offset="1" stop-color="white" stop-opacity="0"/>
</linearGradient>
<linearGradient id="paint58_linear" x1="455.264" y1="473.454" x2="526.81" y2="516.442" gradientUnits="userSpaceOnUse">
<stop stop-color="#9AA7E5"/>
<stop offset="1" stop-color="white" stop-opacity="0"/>
</linearGradient>
<linearGradient id="paint59_linear" x1="505.251" y1="481.898" x2="422.627" y2="497.7" gradientUnits="userSpaceOnUse">
<stop stop-color="#9AA7E5"/>
<stop offset="1" stop-color="white" stop-opacity="0"/>
</linearGradient>
<linearGradient id="paint60_linear" x1="598.718" y1="590.287" x2="550.656" y2="579.363" gradientUnits="userSpaceOnUse">
<stop stop-color="#AE82A7"/>
<stop offset="0.883299" stop-color="white" stop-opacity="0"/>
</linearGradient>
<linearGradient id="paint61_linear" x1="598.718" y1="590.287" x2="550.656" y2="579.363" gradientUnits="userSpaceOnUse">
<stop stop-color="#AE82A7"/>
<stop offset="0.883299" stop-color="white" stop-opacity="0"/>
</linearGradient>
<linearGradient id="paint62_linear" x1="478.37" y1="435.369" x2="454.598" y2="414.558" gradientUnits="userSpaceOnUse">
<stop/>
<stop offset="1" stop-opacity="0"/>
</linearGradient>
<radialGradient id="paint63_radial" cx="0" cy="0" r="1" gradientUnits="userSpaceOnUse" gradientTransform="translate(486.899 414.634) rotate(105.639) scale(17.5773 19.9804)">
<stop stop-color="white"/>
<stop offset="1" stop-color="white" stop-opacity="0"/>
</radialGradient>
</defs>
</svg>
