<svg width="200" height="57" viewBox="0 0 200 57" fill="none" xmlns="http://www.w3.org/2000/svg">
<g clip-path="url(#clip0)">
<path fill-rule="evenodd" clip-rule="evenodd" d="M155.038 7.01542C152.924 7.01542 150.892 9.04752 150.892 11.1609V48.1512C150.892 50.2645 152.924 52.2966 155.038 52.2966H192.028C194.141 52.2966 196.173 50.2645 196.173 48.1512V11.1609C196.173 9.04752 194.141 7.01542 192.028 7.01542H155.038ZM147.066 11.1609C147.066 6.93416 150.811 3.18884 155.038 3.18884H192.028C196.255 3.18884 200 6.93416 200 11.1609V48.1512C200 52.3779 196.255 56.1232 192.028 56.1232H155.038C150.811 56.1232 147.066 52.3779 147.066 48.1512V11.1609Z" fill="#1AA9CB"/>
<path d="M84.4348 47.822C87.51 47.8133 90.4796 46.6997 92.8023 44.6842L90.3443 40.7097C88.88 41.9125 87.0496 42.9068 85.063 42.9068C81.0362 42.9068 78.2122 39.5075 78.2122 34.3824C78.2122 29.2051 81.0885 25.8045 85.2199 25.8045C86.8411 25.8045 88.1485 26.4844 89.5082 27.6859L92.4368 23.7637C90.3776 21.8921 87.6887 20.8651 84.9061 20.8873C78.0546 20.8893 72.0405 25.8051 72.0405 34.3818C72.0405 42.9068 77.4271 47.822 84.4348 47.822ZM103.597 47.822C107.101 47.822 109.611 46.0962 111.86 43.4291H112.017L112.487 47.1944H117.403V21.5168H111.389V39.0872C109.454 41.5974 107.937 42.6434 105.688 42.6434C102.917 42.6434 101.714 41.0745 101.714 36.8397V21.5168H95.7003V37.6242C95.7003 44.1089 98.1053 47.822 103.597 47.822ZM133.846 47.822C136.921 47.8133 139.891 46.6997 142.214 44.6842L139.756 40.7097C138.291 41.9125 136.461 42.9061 134.474 42.9061C130.447 42.9061 127.623 39.5068 127.623 34.3818C127.623 29.2044 130.499 25.8039 134.631 25.8039C136.252 25.8039 137.559 26.4837 138.919 27.6853L141.848 23.763C139.788 21.8914 137.099 20.8645 134.317 20.8867C127.466 20.8867 121.452 25.8026 121.452 34.3792C121.452 42.9068 126.838 47.822 133.846 47.822Z" fill="#003C58"/>
<path d="M164.122 47.822C167.155 47.822 169.77 46.3054 172.071 44.3705H172.28L172.699 47.1945H177.667V31.9762C177.667 24.8115 174.478 20.8893 168.097 20.8893C164.017 20.8893 160.357 22.4582 157.533 24.2376L159.729 28.2631C162.03 26.9034 164.436 25.7529 166.946 25.7529C170.45 25.7529 171.548 28.0539 171.653 30.7734C161.089 31.9239 156.538 34.8002 156.538 40.2913C156.539 44.7888 159.624 47.822 164.122 47.822ZM166.056 43.1153C163.912 43.1153 162.343 42.1217 162.343 39.8207C162.343 37.2581 164.644 35.4277 171.652 34.5387V40.2913C169.718 42.0694 168.149 43.1153 166.056 43.1153ZM182.97 47.1945H188.984V23.4301H182.97L182.97 47.1945ZM186.003 18.9326C188.147 18.9326 189.611 17.5729 189.611 15.4811C189.611 13.4402 188.147 12.0818 186.003 12.0818C183.859 12.0818 182.395 13.4415 182.395 15.4798C182.395 17.5729 183.859 18.9326 186.004 18.9326H186.003Z" fill="#003C58"/>
<path d="M32.7172 53.8441L15.1826 55.8617L16.1392 49.8839L0 36.2135L4.05171 33.8072L1.25767 23.0609L10.9006 23.9566L13.1009 20.4489L22.5867 28.4608L20.4445 9.24119L26.11 11.5862L32.6637 0.182081V0L32.716 0.0908813L32.7683 0V0.182081L39.3219 11.5866L44.9878 9.24119L42.8456 28.4608L52.331 20.4476L54.5313 23.9553L64.1743 23.0596L61.3802 33.8059L65.4319 36.2122L49.294 49.8826L50.2506 55.8604L32.7172 53.8441Z" fill="#1AA9CB"/>
</g>
<defs>
<clipPath id="clip0">
<rect width="200" height="56.1232" fill="white"/>
</clipPath>
</defs>
</svg>
