<svg width="166" height="166" viewBox="0 0 166 166" fill="none" xmlns="http://www.w3.org/2000/svg">
<path fill-rule="evenodd" clip-rule="evenodd" d="M25 12C18.3726 12 12 18.3726 12 25V141C12 147.627 18.3726 154 25 154H141C147.627 154 154 147.627 154 141V25C154 18.3726 147.627 12 141 12H25ZM0 25C0 11.7452 11.7452 0 25 0H141C154.255 0 166 11.7452 166 25V141C166 154.255 154.255 166 141 166H25C11.7452 166 0 154.255 0 141V25Z" fill="#1AA9CB"/>
<path d="M53.488 139.968C63 139.968 71.2 135.212 78.416 129.144H79.072L80.384 138H95.964V90.2762C95.964 67.8082 85.964 55.5082 65.952 55.5082C53.16 55.5082 41.68 60.4282 32.824 66.0082L39.712 78.6322C46.928 74.3682 54.472 70.7602 62.344 70.7602C73.332 70.7602 76.776 77.9762 77.104 86.5042C43.976 90.1122 29.704 99.1322 29.704 116.352C29.708 130.456 39.384 139.968 53.488 139.968ZM59.554 125.208C52.83 125.208 47.91 122.092 47.91 114.876C47.91 106.84 55.126 101.1 77.102 98.3122V116.352C71.036 121.928 66.116 125.208 59.554 125.208ZM112.594 138H131.454V63.4762H112.596L112.594 138ZM122.106 49.3722C128.83 49.3722 133.422 45.1082 133.422 38.5482C133.422 32.1482 128.83 27.8882 122.106 27.8882C115.382 27.8882 110.792 32.1522 110.792 38.5442C110.792 45.1082 115.384 49.3722 122.108 49.3722H122.106Z" fill="#003C58"/>
</svg>
